SplineFontDB: 3.0
FontName: Pacifico-Bold
FullName: Pacifico Bold
FamilyName: Pacifico
Weight: Bold
Copyright: 
Version: 2.0
ItalicAngle: 0
UnderlinePosition: 0
UnderlineWidth: 0
Ascent: 800
Descent: 200
UFOAscent: 708
UFODescent: -459
LayerCount: 2
Layer: 0 0 "Back"  1
Layer: 1 0 "Fore"  0
FSType: 0
OS2Version: 0
OS2_WeightWidthSlopeOnly: 0
OS2_UseTypoMetrics: 1
CreationTime: 1398192582
ModificationTime: 1398193300
PfmFamily: 17
TTFWeight: 700
TTFWidth: 5
LineGap: 0
VLineGap: 0
OS2TypoAscent: 0
OS2TypoAOffset: 1
OS2TypoDescent: 0
OS2TypoDOffset: 1
OS2TypoLinegap: 0
OS2WinAscent: 0
OS2WinAOffset: 1
OS2WinDescent: 0
OS2WinDOffset: 1
HheadAscent: 0
HheadAOffset: 1
HheadDescent: 0
HheadDOffset: 1
OS2Vendor: 'NeWT'
Lookup: 1 0 0 "'locl' Localized Forms in Latin lookup 0"  {"'locl' Localized Forms in Latin lookup 0 subtable"  } ['locl' ('latn' <'ROM ' 'dflt' > ) ]
Lookup: 1 0 0 "'locl' Localized Forms in Latin lookup 1"  {"'locl' Localized Forms in Latin lookup 1 subtable"  } ['locl' ('latn' <'MOL ' 'dflt' > ) ]
Lookup: 6 0 0 "'locl' Localized Forms in Latin lookup 2"  {"'locl' Localized Forms in Latin lookup 2 contextual 0"  "'locl' Localized Forms in Latin lookup 2 contextual 1"  } ['locl' ('latn' <'CAT ' 'dflt' > ) ]
Lookup: 4 0 0 "Ligature Substitution lookup 3"  {"Ligature Substitution lookup 3 subtable"  } []
Lookup: 4 0 0 "Ligature Substitution lookup 4"  {"Ligature Substitution lookup 4 subtable"  } []
Lookup: 1 0 0 "'sups' Superscript lookup 5"  {"'sups' Superscript lookup 5 subtable" ("superior" ) } ['sups' ('latn' <'dflt' 'ROM ' 'MOL ' 'CAT ' > 'grek' <'dflt' > 'DFLT' <'dflt' > ) ]
Lookup: 4 0 0 "'frac' Diagonal Fractions lookup 6"  {"'frac' Diagonal Fractions lookup 6 subtable"  } ['frac' ('latn' <'dflt' 'ROM ' 'MOL ' 'CAT ' > 'grek' <'dflt' > 'DFLT' <'dflt' > ) ]

StartChar: A
Encoding: 65 65 0
Width: 706
VWidth: 0
Flags: HW
PickledData: "(dp1
S'com.typemytype.robofont.layerData'
p2
(dp3
s."
AnchorPoint: "top" 587 708 basechar 0
AnchorPoint: "ogonek" 545 -56 basechar 0
LayerCount: 2
Fore
SplineSet
606 19 m 0
 582 19 572 37 572 68 c 0
 572 89 577 120 587 164 c 2
 660 477 l 2
 661 483 662 489 662 494 c 0
 662 517 647 530 611 530 c 0
 585 530 567 524 562 501 c 2
 485 207 l 2
 458 101 402 25 298 25 c 0
 203 25 160 104 160 204 c 0
 160 379 295 620 530 620 c 0
 531 620 531 620 532 620 c 0
 597 620 662 599 721 557 c 0
 729 550 739 548 747 548 c 0
 769 548 786 567 786 591 c 0
 786 600 784 615 771 625 c 0
 705 684 621 713 535 713 c 0
 312 713 72 524 55 197 c 0
 55 188 54 180 54 172 c 0
 54 0 150 -72 271 -72 c 0
 278 -72 285 -71 292 -71 c 0
 388.066146715 -64.3747485024 463.557000896 9.46312527406 486.66538196 60.2039483003 c 1
 485.690314007 51.9560731774 485.000000125 42.6937596485 485 33 c 0
 485 -21 515 -67 581 -67 c 0
 628 -67 682 -42 710 -11 c 0
 717 -3 719 7 719 14 c 0
 719 38 701 55 682 55 c 0
 673 55 667 52 660 46 c 0
 644 32 624 19 606 19 c 0
EndSplineSet
Position2: "'cpsp' Capital Spacing lookup 0 subtable" dx=5 dy=0 dh=10 dv=0
Substitution2: "Single Substitution lookup 8 subtable" ordfeminine
EndChar

StartChar: B
Encoding: 66 66 18
Width: 609
VWidth: 0
Flags: HW
PickledData: "(dp1
S'com.typemytype.robofont.layerData'
p2
(dp3
s."
AnchorPoint: "top" 417 708 basechar 0
LayerCount: 2
Fore
SplineSet
223 -90 m 0
 414 -90 598 39 598 176 c 0
 598 253 511 303 453 307 c 1
 576 307 640 398 653 458 c 0
 656 469 657 480 657 491 c 0
 657 587 564 681 370 681 c 0
 197 681 98 618 31 559 c 0
 23 552 20 542 20 532 c 0
 20 509 40 485 68 485 c 0
 81 485 96 490 112 503 c 0
 178 559 246 593 375 593 c 0
 494 593 538 537 538 476 c 0
 538 473 538 471 538 468 c 0
 534 428 513 336 372 336 c 0
 371 336 369 336 367 336 c 2
 334 338 l 2
 307 337 282 334 282 307 c 0
 282 255 484 300 484 171 c 0
 484 85 365 -13 213 -13 c 0
 179 -13 180 -8 180 15 c 0
 180 163 215 397 283 480 c 1
 271 501 256 512 233 512 c 0
 138 512 63 350 63 -23 c 0
 63 -65 124 -90 223 -90 c 0
EndSplineSet
Position2: "'cpsp' Capital Spacing lookup 0 subtable" dx=5 dy=0 dh=10 dv=0
EndChar

StartChar: C
Encoding: 67 67 20
Width: 603
VWidth: 0
Flags: HW
PickledData: "(dp1
S'com.typemytype.robofont.layerData'
p2
(dp3
s."
AnchorPoint: "top" 507 708 basechar 0
AnchorPoint: "bot" 305 -70 basechar 0
LayerCount: 2
Fore
SplineSet
55 190 m 0
 55 37 136 -95 320 -95 c 0
 465 -95 587 7 629 121 c 0
 631 125 631 129 631 133 c 0
 631 152 612 165 594 165 c 0
 585 165 576 161 570 153 c 0
 518 75 450 -2 340 -2 c 0
 221 -2 171 93 171 207 c 0
 171 391 289 580 453 580 c 0
 510 580 539 548 539 503 c 0
 539 453 498 397 418 387 c 0
 380 383 359 370 359 341 c 0
 359 316 377 304 410 304 c 0
 416 304 423 304 430 305 c 0
 559 321 632 425 632 521 c 0
 632 604 575 672 459 672 c 0
 234 672 55 434 55 190 c 0
EndSplineSet
Position2: "'cpsp' Capital Spacing lookup 0 subtable" dx=5 dy=0 dh=10 dv=0
EndChar

StartChar: D
Encoding: 68 68 26
Width: 636
VWidth: 0
Flags: HW
PickledData: "(dp1
S'com.typemytype.robofont.layerData'
p2
(dp3
s."
AnchorPoint: "mid" 172 308 basechar 0
AnchorPoint: "top" 397 708 basechar 0
AnchorPoint: "bot" 227 -36 basechar 0
LayerCount: 2
Fore
SplineSet
293 588 m 0
 452 588 534 496 534 384 c 0
 534 195 376 25 210 25 c 0
 191 25 188 42 188 70 c 0
 188 75 188 80 188 86 c 0
 187 212 250 428 309 502 c 1
 294 528 271 543 249 543 c 0
 233 542 218 535 207 519 c 0
 136 415 79 193 80 21 c 0
 79 4 90 -12 104 -20 c 0
 123 -31 172 -51 217 -51 c 0
 219 -51 221 -51 223 -51 c 0
 399 -43 633 75 633 393 c 0
 633 573 517 684 314 684 c 0
 298 684 282 683 265 682 c 0
 193 676 111 649 61 588 c 0
 47 571 31 536 32 502 c 0
 31 486 38 457 64 457 c 0
 87 457 129 526 132 531 c 0
 180 580 236 588 293 588 c 0
EndSplineSet
Position2: "'cpsp' Capital Spacing lookup 0 subtable" dx=5 dy=0 dh=10 dv=0
EndChar

StartChar: Delta
Encoding: 916 916 32
Width: 721
VWidth: 0
Flags: HW
LayerCount: 2
Fore
SplineSet
233 93 m 1
 285 177 366 313 425 412 c 1
 559 93 l 1
 233 93 l 1
151 1 m 2
 625 1 l 2
 664 1 680 24 680 58 c 1
 491 507 l 2
 481 528 460 543 438 543 c 0
 422 543 406 535 394 515 c 0
 321 398 251 281 196 191 c 0
 148 116 114 66 108 51 c 1
 106 23 123 1 151 1 c 2
EndSplineSet
Position2: "'cpsp' Capital Spacing lookup 0 subtable" dx=5 dy=0 dh=10 dv=0
EndChar

StartChar: E
Encoding: 69 69 35
Width: 576
VWidth: 0
Flags: HW
PickledData: "(dp1
S'com.typemytype.robofont.layerData'
p2
(dp3
s."
AnchorPoint: "top" 413 708 basechar 0
AnchorPoint: "bot" 271 -89 basechar 0
AnchorPoint: "ogonek" 352 -87 basechar 0
LayerCount: 2
Fore
SplineSet
122 491 m 0
 122 409 184 336 310 331 c 1
 140 331 45 208 45 90 c 0
 45 -16 125 -110 287 -110 c 0
 459 -110 611 -9 681 69 c 0
 690 78 693 88 693 99 c 0
 693 124 677 153 652 153 c 0
 642 153 631 147 620 136 c 0
 536 48 408 -12 306 -12 c 0
 229 -12 168 25 168 112 c 0
 168 191 232 266 390 274 c 0
 433 276 443 298 443 325 c 0
 443 345 430 368 404 372 c 0
 288 391 250 416 250 498 c 0
 250 592 349 641 442 641 c 0
 488 641 532 629 562 604 c 1
 519 591 506 565 506 539 c 0
 506 498 533 474 573 474 c 0
 612 474 651 499 651 556 c 0
 651 665 535 718 414 718 c 0
 272 717 122 644 122 491 c 0
EndSplineSet
Position2: "'cpsp' Capital Spacing lookup 0 subtable" dx=5 dy=0 dh=10 dv=0
EndChar

StartChar: Eng
Encoding: 330 330 46
Width: 538
VWidth: 0
Flags: HW
LayerCount: 2
Fore
SplineSet
278 -62 m 1
 252 -130 171 -261 108 -261 c 0
 102 -261 98 -259 99 -249 c 0
 98 -223 137 -130 278 -62 c 1
39 -274 m 0
 39 -302 64 -320 107 -320 c 0
 171 -320 300 -243 392 -24 c 1
 454 13 510 14 561 44 c 0
 590 58 603 76 603 89 c 0
 603 99 596 106 584 106 c 0
 581 106 577 105 573 104 c 0
 572 104 572 104 571 104 c 0
 549 104 457 72 405 43 c 1
 499 321 573 465 573 566 c 0
 573 635 530 674 452 674 c 0
 269 674 195 500 152 372 c 1
 178 468 199 557 199 597 c 0
 199 644 151 673 107 673 c 0
 101 673 96 672 90 671 c 0
 -7 657 -77 584 -110 504 c 0
 -113 497 -114 491 -114 485 c 0
 -114 437 -35 409 -41 412 c 1
 -33 461 41 589 85 589 c 2
 86 589 l 2
 103 589 106 560 106 542 c 0
 106 533 105 527 105 527 c 1
 104.00170949 403.211976731 -33.5285811868 96.0525079835 -91.7018512039 -40.3010208641 c 1
 -91.1065569913 -39.5814737893 -89.7625408256 -39.0000011539 -89 -39 c 0
 -80 -39 -51 -58 -20 -58 c 0
 36 -58 37 -10 56 30 c 0
 187 310 260 564 428 564 c 0
 449 564 466 548 466 526 c 0
 466 460 413 331 295 -2 c 1
 105 -94 39 -214 39 -274 c 0
-91.7018512039 -40.3010208641 m 1
 -91.8014681032 -40.5345149843 -91.9008522981 -40.7675082378 -92 -41 c 1
 -92 -40.7625435302 -91.8872288499 -40.5250870605 -91.7018512039 -40.3010208641 c 1
EndSplineSet
Position2: "'cpsp' Capital Spacing lookup 0 subtable" dx=5 dy=0 dh=10 dv=0
EndChar

StartChar: Euro
Encoding: 8364 8364 50
Width: 634
VWidth: 0
Flags: HW
LayerCount: 2
Fore
SplineSet
97 359 m 2
 71 359 47 346 47 318 c 0
 47 302 63 297 89 297 c 2
 102 297 l 1
 99 291 87 239 87 227 c 1
 62 227 l 2
 42 227 29 211 29 195 c 0
 29 181 40 167 69 167 c 2
 82 167 l 1
 82 165 l 2
 82 21 165 -69 299 -69 c 0
 453 -69 548 12 584 73 c 0
 586 76 587 80 587 84 c 0
 587 104 560 127 538 127 c 0
 531 127 524 124 519 119 c 0
 476 76 418 30 336 30 c 0
 244 30 202 77 202 161 c 2
 202 167 l 1
 323 167 l 2
 354 167 368 175 368 208 c 0
 368 226 353 227 334 227 c 0
 332 227 331 227 329 227 c 2
 209 227 l 1
 210 237 221 289 225 297 c 1
 354 297 l 2
 390 297 402 307 402 331 c 0
 402 351 387 359 366 359 c 2
 246 359 l 1
 282 459 342 518 426 526 c 0
 431 527 436 527 441 527 c 0
 500 527 525 489 525 453 c 0
 525 445 522 438 522 430 c 0
 522 411 540 400 559 400 c 0
 576 400 594 408 601 424 c 0
 609 442 613 461 613 480 c 0
 613 546 563 613 439 613 c 0
 272 613 174 487 127 359 c 1
 97 359 l 2
EndSplineSet
EndChar

StartChar: F
Encoding: 70 70 51
Width: 565
VWidth: 0
Flags: HW
PickledData: "(dp1
S'com.typemytype.robofont.layerData'
p2
(dp3
s."
AnchorPoint: "top" 507 708 basechar 0
LayerCount: 2
Fore
SplineSet
304 248 m 1
 254 84 196 46 138 46 c 0
 100 46 68 65 49 80 c 0
 45 83 41 85 36 85 c 0
 12 85 -19 47 -19 18 c 0
 -19 11 -17 4 -13 -1 c 0
 18 -37 76 -66 134 -66 c 0
 310 -66 354 75 407 248 c 1
 442 248 501 251 543 255 c 0
 561 257 567 274 567 295 c 0
 567 321 558 337 539 337 c 0
 527 337 440 336 425 336 c 1
 451 421 477 548 480 612 c 1
 500 613 522 614 543 614 c 0
 642 614 748 604 789 597 c 0
 790 597 791 597 792 597 c 0
 810 597 817 628 817 649 c 0
 817 691 752 710 599 710 c 0
 571 710 541 709 507 708 c 0
 131 694 29 501 29 376 c 0
 29 332 41 297 59 280 c 1
 72 259 107 252 136 252 c 0
 162 252 183 257 183 265 c 0
 183 266 183 268 181 270 c 0
 157 292 142 332 142 376 c 0
 142 467 207 579 396 604 c 1
 389 585 344 402 324 333 c 1
 286 332 246 326 246 286 c 0
 247 260 260 248 286 248 c 2
 304 248 l 1
EndSplineSet
Position2: "'cpsp' Capital Spacing lookup 0 subtable" dx=5 dy=0 dh=10 dv=0
EndChar

StartChar: G
Encoding: 71 71 53
Width: 703
VWidth: 0
Flags: HW
PickledData: "(dp1
S'com.typemytype.robofont.layerData'
p2
(dp3
s."
AnchorPoint: "top" 567 708 basechar 0
AnchorPoint: "bot" 277 -321 basechar 0
LayerCount: 2
Fore
SplineSet
45 205 m 0
 45 6 186 -56 329 -56 c 0
 444 -56 554 -16 575 20 c 1
 521 -152 475 -212 396 -212 c 0
 371 -212 343 -206 311 -196 c 0
 307 -195 303 -194 299 -194 c 0
 269 -194 241 -226 241 -258 c 0
 241 -279 253 -299 284 -311 c 0
 324 -326 362 -334 396 -334 c 0
 546 -334 639 -188 691 117 c 0
 694 131 695 144 695 155 c 0
 695 211 656 227 556 227 c 0
 523 227 487 215 487 178 c 0
 487 142 514 134 553 134 c 0
 580 134 591 134 591 119 c 0
 591 116 591 112 590 108 c 2
 584 77 l 1
 498 47 420 30 356 30 c 0
 238 30 164 85 164 209 c 0
 164 460 372 580 495 580 c 0
 547 580 583 558 583 517 c 0
 583 461 612 455 639 455 c 0
 669 455 697 468 697 513 c 0
 697 624 613 676 506 676 c 0
 314 676 45 508 45 205 c 0
EndSplineSet
Position2: "'cpsp' Capital Spacing lookup 0 subtable" dx=5 dy=0 dh=10 dv=0
EndChar

StartChar: H
Encoding: 72 72 60
Width: 820
VWidth: 0
Flags: HW
PickledData: "(dp1
S'com.typemytype.robofont.layerData'
p2
(dp3
s."
AnchorPoint: "top" 587 708 basechar 0
LayerCount: 2
Fore
SplineSet
182 600 m 0
 239 600 281 565 281 493 c 0
 281 467 275 437 263 401 c 2
 220.994806949 277.946325486 l 1
 201.277590521 279.704942813 180.949924273 281.722834318 160 284 c 0
 158 284 157 284 155 284 c 0
 128 284 107 260 107 238 c 0
 107 223 117 210 141 207 c 0
 159.231524139 204.581532512 177.082345113 202.405330675 194.546024333 200.464955899 c 1
 107 -56 l 2
 99 -79 95 -96 95 -110 c 0
 95 -143 116 -152 136 -157 c 0
 142 -158 147 -159 152 -159 c 0
 188 -159 205 -125 216 -89 c 2
 304.094739637 191.015422419 l 1
 338.31835168 188.98303505 370.64221089 188 401 188 c 0
 432.936748947 188 462.95065873 189.020386649 491.15334912 190.95100886 c 1
 476 143 l 2
 459 89 451 43 451 4 c 0
 451 -108 515 -158 599 -158 c 0
 662 -158 737 -129 804 -76 c 0
 814 -68 818 -56 818 -43 c 0
 818 -18 802 9 783 9 c 0
 779 9 775 8 771 5 c 0
 727 -23 664 -58 619 -58 c 0
 584 -58 559 -38 559 23 c 0
 559 51 564 86 576 132 c 2
 594.534218194 203.2608734 l 1
 868.739566686 251.666720547 918 403.370710729 918 485 c 0
 918 568 858 628 784 628 c 0
 704 628 607 559 549 374 c 2
 517.405358829 274.022436843 l 1
 482.662707833 270.775721788 444.008257293 269 401 269 c 0
 378.254592146 269 354.313870417 269.543324489 329.142014124 270.629973467 c 1
 356 356 l 2
 376 420 387 475 387 521 c 0
 387 586 365 633 314 663 c 0
 281 682 242 692 203 692 c 0
 80 692 -54 601 -90 439 c 0
 -91 435 -91 431 -91 427 c 0
 -91 402 -73 383 -52 383 c 0
 -34 383 -13 397 0 432 c 0
 43 542 106 600 182 600 c 0
616.918052245 289.322856046 m 1
 634 355 l 2
 669 491 733 548 777 548 c 0
 806 548 827 524 827 483 c 0
 827 479 826 476 826 472 c 0
 821.431981158 420.229119796 794.837899729 329.62281345 616.918052245 289.322856046 c 1
EndSplineSet
Position2: "'cpsp' Capital Spacing lookup 0 subtable" dx=5 dy=0 dh=10 dv=0
EndChar

StartChar: Hbar
Encoding: 294 294 61
Width: 768
VWidth: 0
Flags: HW
LayerCount: 2
Fore
SplineSet
124 380 m 2
 647 381 l 2
 670 382 681 402 681 420 c 0
 681 436 673 451 656 451 c 2
 655 451 l 1
 134 434 l 2
 108 433 96 418 96 404 c 0
 96 392 105 380 124 380 c 2
EndSplineSet
Refer: 60 72 N 1 0 0 1 0 0 2
Position2: "'cpsp' Capital Spacing lookup 0 subtable" dx=5 dy=0 dh=10 dv=0
EndChar

StartChar: I
Encoding: 73 73 63
Width: 346
VWidth: 0
Flags: HW
PickledData: "(dp1
S'com.typemytype.robofont.layerData'
p2
(dp3
s."
AnchorPoint: "top" 347 708 basechar 0
AnchorPoint: "ogonek" 174 0 basechar 0
LayerCount: 2
Fore
SplineSet
-8 6 m 0
 -8 -14 4 -34 26 -34 c 0
 60 -34 189 -13 283 -9 c 0
 316 -8 330 14 330 34 c 0
 330 47 324 59 314 63 c 0
 298 69 241 72 223 72 c 2
 221.011491624 72 l 1
 222.548130259 182.842534319 313.12659433 487.217018851 355 559 c 1
 420 559 463 559 469 589 c 0
 472 605 475 619 475 631 c 0
 475 650 468 662 447 662 c 0
 345 662 205 661 178 661 c 0
 154 661 140 629 140 601 c 0
 140 564 156 555 198 555 c 0
 215 555 237 556 265 557 c 1
 209 446 148 235 132 67 c 1
 93 66 4 53 -5 23 c 0
 -7 17 -8 11 -8 6 c 0
EndSplineSet
Position2: "'cpsp' Capital Spacing lookup 0 subtable" dx=5 dy=0 dh=10 dv=0
EndChar

StartChar: IJ
Encoding: 306 306 64
Width: 858
VWidth: 0
Flags: HW
LayerCount: 2
Fore
SplineSet
401 122 m 0
 401 -46 440 -190 557 -190 c 0
 708 -190 834 251 938 575 c 1
 955 574 962 574 958 576 c 1
 977 578 975 579 1028 582 c 2
 1029 582 l 2
 1038 582 1060 613 1060 638 c 0
 1060 654 1051 667 1023 667 c 0
 1013 667 1001 667 986 667 c 0
 979 667 970 667 962 667 c 1
 957 675 941 686 915 686 c 0
 896 686 882 681 873 667 c 1
 741 666 576 664 458 662 c 1
 469 662 474 661 474 661 c 2
 474 660 405 658 334 658 c 0
 263 658 190 659 178 661 c 0
 153 661 135 623 135 596 c 0
 135 588 137 581 140 576 c 0
 140 575 139 573 139 572 c 0
 139 557 165 555 194 555 c 0
 215 555 237 556 255 556 c 0
 257 556 259 556 261 556 c 1
 204 446 148 235 132 67 c 1
 93 66 4 53 -5 23 c 0
 -7 17 -8 11 -8 6 c 0
 -8 -13 4 -34 25 -34 c 0
 58 -34 198 -8 293 -4 c 0
 331 -3 346 25 346 45 c 0
 346 54 343 61 338 65 c 0
 321 71 296 73 273 73 c 0
 250 73 230 71 220 69 c 1
 221 176 341 558 351 558 c 1
 351 558 352 558 352 557 c 1
 383 561 663 576 663 579 c 2
 664 579 l 2
 682 579 833 576 845 575 c 1
 791 368 637 -81 545 -81 c 0
 485 -81 478 15 472 130 c 0
 471 159 453 175 436 175 c 0
 418 175 401 158 401 122 c 0
EndSplineSet
Position2: "'cpsp' Capital Spacing lookup 0 subtable" dx=5 dy=0 dh=10 dv=0
EndChar

StartChar: J
Encoding: 74 74 77
Width: 523
VWidth: 0
Flags: HW
PickledData: "(dp1
S'com.typemytype.robofont.layerData'
p2
(dp3
s."
AnchorPoint: "top" 587 708 basechar 0
LayerCount: 2
Fore
SplineSet
510.365074015 577.736440585 m 1
 458.722823518 370.28937051 309.615337824 -114 215 -114 c 0
 160 -114 144 -85 138 16 c 0
 136 45 118 61 100 61 c 0
 81 61 63 43 63 4 c 0
 67 -147 109 -222 223 -222 c 0
 384.713899294 -222 487.401382773 125.898117455 608.027775576 574.728693678 c 1
 642.808322135 573.70885594 671.283864527 573 687 573 c 0
 754 573 767 577 779 584 c 0
 795 593 801 610 801 632 c 0
 801 635 801 639 801 642 c 0
 801 662 792 680 748 681 c 0
 703.526330053 681 662.502380473 682.488114668 623.432812813 684.69028652 c 1
 615.706549511 693.635154589 601.596504983 699.999999933 579 700 c 0
 565.002035178 700 553.75327088 697.750654117 545.003816108 690.00337937 c 1
 465.034427405 696.080990556 389.363721106 703.000000131 303 703 c 0
 166 703 48 674 -4 503 c 0
 -6 496 -7 490 -7 485 c 0
 -7 463 7 454 23 454 c 0
 37 454 53 462 60 476 c 0
 102 558 145 582 325 582 c 0
 367.45812654 582 440.178394894 579.904928644 510.365074015 577.736440585 c 1
EndSplineSet
Position2: "'cpsp' Capital Spacing lookup 0 subtable" dx=5 dy=0 dh=10 dv=0
EndChar

StartChar: K
Encoding: 75 75 79
Width: 697
VWidth: 0
Flags: HW
PickledData: "(dp1
S'com.typemytype.robofont.layerData'
p2
(dp3
s."
AnchorPoint: "top" 547 708 basechar 0
AnchorPoint: "bot" 280 -152 basechar 0
LayerCount: 2
Fore
SplineSet
-1 -42 m 0
 -18 -42 -31 -34 -46 -34 c 0
 -75 -34 -97 -58 -97 -92 c 0
 -97 -95 -96 -99 -96 -103 c 0
 -92 -139 -15 -141 19 -141 c 0
 170 -141 265 5 320 286 c 1
 338 19 454 -151 609 -151 c 0
 614 -151 744 -146 744 -104 c 0
 744 -67 731 -55 707 -55 c 0
 685 -55 656 -65 621 -65 c 0
 523 -62 443 73 411 285 c 1
 595 376 755 553 783 613 c 0
 789 628 795 645 795 660 c 0
 795 678 786 692 760 692 c 0
 729 692 709 660 685 626 c 0
 634 557 496 416 327 327 c 1
 341 432 348 593 348 661 c 0
 348 687 328 703 306 703 c 0
 303 703 300 703 297 702 c 0
 14 655 -49 517 -49 418 c 0
 -49 366 -31 294 12 294 c 0
 14 294 16 295 18 295 c 0
 51 302 64 312 64 332 c 0
 64 334 64 336 64 338 c 0
 57 354 43 388 43 429 c 0
 43 494 79 575 237 615 c 1
 239 572 241 531 241 492 c 0
 241 162 155 -42 -1 -42 c 0
EndSplineSet
Position2: "'cpsp' Capital Spacing lookup 0 subtable" dx=5 dy=0 dh=10 dv=0
EndChar

StartChar: L
Encoding: 76 76 82
Width: 645
VWidth: 0
Flags: HW
PickledData: "(dp1
S'com.typemytype.robofont.layerData'
p2
(dp3
s."
AnchorPoint: "caron.alt" 703 481 basechar 0
AnchorPoint: "top" 687 708 basechar 0
AnchorPoint: "bot" 401 -160 basechar 0
LayerCount: 2
Fore
SplineSet
169 110 m 0
 86 110 41 50 41 -10 c 0
 41 -66 81 -121 170 -121 c 0
 174 -121 178 -121 182 -121 c 0
 262.476297537 -116.99288145 322.65833236 -92.2454724352 367.647316819 -51.9706906831 c 1
 491.374242462 -126.316493103 638.310607594 -225 753 -225 c 0
 810 -225 859 -200 894 -136 c 0
 898 -128 900 -120 900 -113 c 0
 900 -89 879 -71 857 -71 c 0
 845 -71 832 -77 824 -89 c 0
 802 -123 772 -137 738 -137 c 0
 654.438006025 -137 540.569558765 -53.8256226495 422.383716838 15.9923428987 c 1
 468.451677519 94.6210402112 487.435853947 200.930055116 495.128751486 318.781060966 c 1
 507.834079747 318.257597391 520.123117786 318 532 318 c 0
 761 318 845 409 858 501 c 0
 859 510 860 519 860 528 c 0
 860 635 766 701 635 701 c 0
 532 701 401 655 383 417 c 0
 382.792664073 414.152586602 382.58609238 411.295429215 382.379880866 408.429341232 c 1
 349.873882098 412.851387767 314.812345596 418.954820086 277 427 c 0
 274 428 271 428 268 428 c 0
 245 428 232 407 232 387 c 0
 232 370 241 354 261 350 c 0
 302.026079123 341.564731395 340.552956058 334.893605512 376.636998295 329.873887368 c 1
 369.154712099 234.449301213 358.28841143 137.313682424 330.511366506 65.6973105571 c 1
 275.284676099 91.9904161807 220.574702211 110 169 110 c 0
287.827147554 -6.64644256994 m 1
 264.587895481 -31.5073029723 234.995138124 -46 197 -46 c 0
 161 -46 138 -31 138 -7 c 0
 138 13 154 29 181 29 c 0
 209.50461151 29 246.111598546 14.9040864123 287.827147554 -6.64644256994 c 1
500.976234006 399.066531892 m 1
 516.603588257 564.023073482 550.933477226 614 640 614 c 0
 706 614 750 583 750 528 c 0
 750 468 691 399 511 399 c 0
 507.697362851 399 504.356251586 399.02198521 500.976234006 399.066531892 c 1
EndSplineSet
Position2: "'cpsp' Capital Spacing lookup 0 subtable" dx=5 dy=0 dh=10 dv=0
EndChar

StartChar: Lslash
Encoding: 321 321 89
Width: 622
VWidth: 0
Flags: HW
LayerCount: 2
Fore
SplineSet
558 226 m 2
 569 233 576 243 576 253 c 0
 575 267 560 282 543 282 c 0
 540 282 537 281 533 278 c 2
 334 170 l 2
 317 161 307 150 307 137 c 0
 307 123 319 111 335 111 c 0
 340 111 345 111 349 113 c 2
 558 226 l 2
EndSplineSet
Refer: 82 76 N 1 0 0 1 0 0 2
Position2: "'cpsp' Capital Spacing lookup 0 subtable" dx=5 dy=0 dh=10 dv=0
EndChar

StartChar: M
Encoding: 77 77 90
Width: 919
VWidth: 0
Flags: HW
PickledData: "(dp1
S'com.typemytype.robofont.layerData'
p2
(dp3
s."
AnchorPoint: "top" 657 708 basechar 0
LayerCount: 2
Fore
SplineSet
168 571 m 0
 184 571 189 558 189 531 c 0
 189 491 175 421 145 318 c 2
 41 -32 l 1
 47 -37 79 -59 121 -59 c 0
 160 -59 165 -23 177 14 c 0
 296 381 359 536 459 536 c 0
 499 536 512 507 512 470 c 0
 512 442 504 408 497 381 c 2
 378 -23 l 1
 383 -27 411 -49 445 -49 c 0
 484 -49 489 -9 506 39 c 0
 594 289 674 545 767 562 c 0
 772 563 777 563 781 563 c 0
 811 563 822 541 822 507 c 0
 822 467 807 412 791 358 c 2
 721 123 l 2
 711 90 705 57 705 28 c 0
 705 -40 744 -94 843 -94 c 0
 886 -94 933 -80 974 -33 c 0
 983 -23 987 -12 987 -2 c 0
 987 20 968 37 949 37 c 0
 941 37 933 34 927 27 c 0
 907 4 879 -7 855 -7 c 0
 825 -7 801 10 801 47 c 0
 801 56 803 66 806 78 c 2
 881 334 l 2
 901 402 916 465 920 530 c 0
 920 533 920 538 920 542 c 0
 920 584 904 661 813 661 c 0
 806 661 799 661 791 660 c 0
 708 650 639 569 572 398 c 1
 587 454 595 500 595 537 c 0
 595 615 562 650 505 650 c 0
 502 650 498 650 495 650 c 0
 416 645 331 598 241 388 c 1
 263 463 278 523 278 567 c 0
 278 623 251 657 179 657 c 0
 106 657 11 596 -9 510 c 0
 -9 508 -10 506 -10 504 c 0
 -10 469 52 433 58 433 c 1
 86 494 126 571 168 571 c 0
EndSplineSet
Position2: "'cpsp' Capital Spacing lookup 0 subtable" dx=5 dy=0 dh=10 dv=0
EndChar

StartChar: N
Encoding: 78 78 92
Width: 626
VWidth: 0
Flags: HW
PickledData: "(dp1
S'com.typemytype.robofont.layerData'
p2
(dp3
s."
AnchorPoint: "top" 547 708 basechar 0
LayerCount: 2
Fore
SplineSet
661 566 m 0
 661 635 617 674 538 674 c 0
 401.667289603 674 316.745315034 560.766227414 266.959794877 450.318550705 c 1
 279.996222875 490.742519463 289.00000131 532.392317398 289 569 c 0
 289 631 264 677 189 677 c 0
 105 677 1 620 -25 493 c 0
 -26 486 -27 480 -27 475 c 0
 -27 432 13 426 49 424 c 1
 83 544 131 589 174 589 c 0
 195 589 208 572 208 535 c 0
 208 493 191 426 150 328 c 0
 96 201 6 -9 -6 -41 c 1
 4 -48 32 -58 68 -58 c 0
 104 -58 118 -34 144 30 c 2
 247 260 l 2
 324 438 395 564 517 564 c 0
 539 564 554 549 554 528 c 0
 554 438 436 286 407 101 c 0
 406 94 405 86 405 79 c 0
 405 4 469 -43 543 -43 c 0
 594 -43 650 -20 694 31 c 0
 709 49 716 66 716 80 c 0
 716 101 701 116 683 116 c 0
 672 116 659 110 647 97 c 0
 624 70 592 57 566 57 c 0
 539 57 517 71 517 100 c 0
 517 105 518 110 519 115 c 0
 557 300 661 434 661 566 c 0
EndSplineSet
Position2: "'cpsp' Capital Spacing lookup 0 subtable" dx=5 dy=0 dh=10 dv=0
EndChar

StartChar: O
Encoding: 79 79 99
Width: 662
VWidth: 0
Flags: HW
PickledData: "(dp1
S'com.typemytype.robofont.layerData'
p2
(dp3
s."
AnchorPoint: "top" 467 708 basechar 0
AnchorPoint: "ogonek" 348 -90 basechar 0
LayerCount: 2
Fore
SplineSet
56 235 m 0
 56 53 149 -104 342 -104 c 0
 578 -104 698 114 698 316 c 0
 698 493 604 658 416 658 c 0
 178 658 56 438 56 235 c 0
411 562 m 0
 522 562 576 447 576 318 c 0
 576 163 499 -5 342 -5 c 0
 226 -5 172 113 172 244 c 0
 172 397 249 562 411 562 c 0
EndSplineSet
Position2: "'cpsp' Capital Spacing lookup 0 subtable" dx=5 dy=0 dh=10 dv=0
Substitution2: "Single Substitution lookup 9 subtable" ordmasculine
EndChar

StartChar: OE
Encoding: 338 338 100
Width: 1076
VWidth: 0
Flags: HW
LayerCount: 2
Fore
SplineSet
587 316 m 0
 587 112 536 -5 364 -5 c 0
 357 -5 350 -4 342 -4 c 0
 241 2 186 127 186 233 c 0
 186 345 245 562 436 562 c 0
 535 562 587 448 587 316 c 0
77 211 m 0
 77 82 158 -103 336 -103 c 0
 468 -103 563 -35 587 16 c 1
 597 -49 648 -104 758 -104 c 0
 887 -104 1105 -12 1182 69 c 0
 1189 78 1193 88 1193 99 c 0
 1193 124 1176 153 1152 153 c 0
 1141 153 1132 147 1120 136 c 0
 1056 67 875 -1 760 -1 c 0
 658 -1 656 76 652 98 c 1
 678 136 697 229 697 262 c 0
 697 268 696 272 695 273 c 1
 742 270 748 265 813 265 c 0
 857 265 880 298 880 325 c 0
 880 344 867 372 833 372 c 0
 832 372 830 372 829 372 c 2
 697 372 l 1
 693 392 685 430 679 453 c 0
 678 458 678 462 678 467 c 0
 678 556 803 637 932 637 c 0
 978 637 1017 624 1047 598 c 0
 1048 599 1048 600 1048 600 c 2
 1049 600 1027 542 1023 542 c 2
 1023 542 1022 542 1022 544 c 1
 1012 526 1007 512 1007 502 c 0
 1007 489 1016 483 1033 483 c 0
 1036 483 1042 483 1047 483 c 0
 1082 483 1138 491 1138 573 c 0
 1138 672 1048 717 943 717 c 0
 818 717 654 655 616 545 c 1
 610 591 549 658 432 658 c 0
 188 658 77 446 77 211 c 0
EndSplineSet
Position2: "'cpsp' Capital Spacing lookup 0 subtable" dx=5 dy=0 dh=10 dv=0
EndChar

StartChar: Omega
Encoding: 937 937 111
Width: 904
VWidth: 0
Flags: HW
LayerCount: 2
Fore
SplineSet
701 47 m 1
 807 119 862 245 862 367 c 0
 862 536 756 697 536 697 c 0
 290 697 157 494 157 304 c 0
 157 210 190 119 258 58 c 1
 235 58 217 58 201 58 c 0
 193 58 185 58 177 58 c 0
 158 58 150 40 150 26 c 0
 150 9 169 -16 194 -17 c 0
 206 -17 218 -18 230 -18 c 0
 282 -18 340 -15 458 -13 c 1
 452 50 l 1
 305 64 239 175 239 294 c 0
 239 448 349 617 534 617 c 0
 696 617 778 486 778 350 c 0
 778 211 693 67 521 50 c 1
 508 -12 l 1
 586 -22 652 -28 707 -28 c 0
 733 -28 757 -27 778 -24 c 0
 798 -21 820 -1 823 11 c 0
 824 15 824 20 824 24 c 0
 824 38 819 51 800 51 c 0
 799 51 798 51 797 51 c 0
 771 48 741 47 701 47 c 1
EndSplineSet
Position2: "'cpsp' Capital Spacing lookup 0 subtable" dx=5 dy=0 dh=10 dv=0
EndChar

StartChar: Oslash
Encoding: 216 216 113
Width: 678
VWidth: 0
Flags: HW
PickledData: "(dp1
S'com.typemytype.robofont.layerData'
p2
(dp3
s."
LayerCount: 2
Fore
SplineSet
136 -201 m 2
 711 702 l 2
 715 708 717 713 717 718 c 0
 717 730 706 737 695 737 c 0
 687 737 678 734 674 725 c 2
 76 -158 l 2
 71 -167 69 -175 69 -182 c 0
 69 -203 88 -216 107 -216 c 0
 118 -216 129 -212 136 -201 c 2
EndSplineSet
Refer: 99 79 N 1 0 0 1 0 0 2
Position2: "'cpsp' Capital Spacing lookup 0 subtable" dx=5 dy=0 dh=10 dv=0
EndChar

StartChar: P
Encoding: 80 80 116
Width: 579
VWidth: 0
Flags: HW
PickledData: "(dp1
S'com.typemytype.robofont.layerData'
p2
(dp3
s."
AnchorPoint: "top" 477 708 basechar 0
LayerCount: 2
Fore
SplineSet
728 507 m 0
 728 638 621 726 456 726 c 0
 438 726 419 725 399 723 c 0
 176 698 71 471 71 198 c 0
 71 23 110 -129 226 -129 c 0
 337 -129 369 -34 385 97 c 2
 403 240 l 1
 603 255 728 375 728 507 c 0
472 485 m 0
 472 513 447 520 425 520 c 0
 373 520 355 478 324 328 c 1
 313 331 280 344 254 358 c 0
 251 360 248 361 245 361 c 0
 233 361 227 344 227 328 c 0
 227 278 261 274 312 254 c 1
 288 67 298 -45 238 -45 c 0
 175 -45 170 103 170 205 c 0
 170 383 218 602 392 625 c 0
 408 627 424 628 438 628 c 0
 540 628 601 577 601 495 c 0
 601 410 529 337 412 319 c 1
 433 416 472 451 472 485 c 0
EndSplineSet
Position2: "'cpsp' Capital Spacing lookup 0 subtable" dx=5 dy=0 dh=10 dv=0
EndChar

StartChar: Q
Encoding: 81 81 118
Width: 736
VWidth: 0
Flags: HW
LayerCount: 2
Fore
SplineSet
1069 -271 m 0
 1069 -249 1040 -232 1022 -232 c 0
 1006 -232 998 -240 990 -250 c 0
 977 -266 962 -284 948 -294 c 0
 939 -301 926 -305 910 -305 c 0
 831 -305 671 -213 413 2 c 0
 411 4 407 4 404 4 c 0
 383 4 350 -28 350 -47 c 0
 350 -51 352 -55 355 -57 c 0
 593 -248 770 -406 899 -406 c 0
 929 -406 955 -398 980 -380 c 0
 1050 -328 1066 -287 1068 -277 c 0
 1068 -275 1069 -273 1069 -271 c 0
EndSplineSet
Refer: 99 79 N 1 0 0 1 0 0 2
Position2: "'cpsp' Capital Spacing lookup 0 subtable" dx=5 dy=0 dh=10 dv=0
EndChar

StartChar: R
Encoding: 82 82 119
Width: 750
VWidth: 0
Flags: HW
PickledData: "(dp1
S'com.typemytype.robofont.layerData'
p2
(dp3
s."
AnchorPoint: "top" 517 708 basechar 0
LayerCount: 2
Fore
SplineSet
972 -107 m 0
 972 -88 949 -64 929 -64 c 0
 925 -64 921 -66 918 -69 c 0
 875 -114 848 -123 823 -123 c 0
 816 -123 809 -123 803 -122 c 0
 703 -109 590 151 548 298 c 1
 681 329 748 416 748 501 c 0
 748 607 650 710 452 710 c 0
 234 710 91 515 78 182 c 0
 77 164 76 147 76 131 c 0
 76 -43 137 -144 225 -145 c 0
 388.675329171 -145 395.445644537 94.8903322186 417.68550428 285.827142404 c 1
 436.475083712 286.791002983 453.042561343 288.336170756 463 289 c 1
 474 144 631 -230 801 -230 c 0
 902 -230 965 -135 971 -112 c 0
 972 -111 972 -109 972 -107 c 0
342.027126001 366.662495922 m 1
 324.461273515 369.10520739 308.951607596 371 299 371 c 0
 283 371 283 346 283 333 c 0
 284.21953193 308.609361396 304.401605002 296.116787823 331.303347474 290.081002949 c 1
 308.057764262 119.47739044 289.411738135 -33.9796010552 249 -48 c 0
 244 -50 240 -50 236 -50 c 0
 196 -50 183 24 183 164 c 0
 183 173 183 183 183 193 c 0
 186 441 282 609 458 609 c 0
 577 609 629 556 630 498 c 0
 630 431 558 356 437 356 c 0
 433.990242324 356 430.76719254 356.094099459 427.369606601 356.267392242 c 1
 429.380521779 368.289161963 431.571581035 379.898656162 434 391 c 0
 440 411 480 440 483 476 c 0
 483 503 468 513 443 514 c 0
 393 514 354 446 347 400 c 0
 345.302504578 388.913233028 343.647218494 377.789884632 342.027126001 366.662495922 c 1
EndSplineSet
Position2: "'cpsp' Capital Spacing lookup 0 subtable" dx=5 dy=0 dh=10 dv=0
EndChar

StartChar: S
Encoding: 83 83 125
Width: 681
VWidth: 0
Flags: HW
PickledData: "(dp1
S'com.typemytype.robofont.layerData'
p2
(dp3
s."
AnchorPoint: "top" 507 708 basechar 0
AnchorPoint: "bot" 342 -89 basechar 0
LayerCount: 2
Fore
SplineSet
342 -26 m 0
 226 -26 162 5 162 90 c 0
 162 135 190 141 190 173 c 0
 190 192 177 203 157 203 c 0
 88 203 49 142 49 87 c 0
 49 84 49 82 49 79 c 0
 58 -56 191 -114 338 -114 c 0
 515 -114 647 -41 647 91 c 0
 647 211 571 243 447 309 c 0
 314 380 269 392 269 454 c 0
 269 506 320 551 425 551 c 0
 516 551 563 522 563 474 c 0
 563 444 550 422 531 405 c 0
 523 395 519 385 519 375 c 0
 519 352 540 332 567 332 c 0
 590 332 607 342 625 360 c 0
 649 386 670 425 671 474 c 0
 668 579 566 632 433 632 c 0
 292 632 142 569 142 446 c 0
 142 336 220 305 317 253 c 0
 419 198 520 167 520 84 c 0
 520 19 472 -26 342 -26 c 0
EndSplineSet
Position2: "'cpsp' Capital Spacing lookup 0 subtable" dx=5 dy=0 dh=10 dv=0
EndChar

StartChar: T
Encoding: 84 84 133
Width: 489
VWidth: 0
Flags: HW
PickledData: "(dp1
S'com.typemytype.robofont.layerData'
p2
(dp3
s."
AnchorPoint: "top" 517 708 basechar 0
AnchorPoint: "bot" 320 -104 basechar 0
LayerCount: 2
Fore
SplineSet
254 -24 m 0
 254 -61 270 -86 312 -86 c 0
 344 -86 368 -67 377 -6 c 0
 387.808635006 64.7474291273 431.444576484 282.252228369 497.47198991 545.950901384 c 1
 570.887459272 539.868482959 664.143471599 535 729 535 c 0
 768 535 796 536 803 541 c 0
 817 550 839 558 839 586 c 0
 839 615 824 626 789 627 c 0
 619 627 477 647 350 647 c 0
 320 647 291 646 263 643 c 0
 166 627 57 614 1 454 c 0
 -1 449 -1 445 -1 441 c 0
 -1 423 15 415 31 415 c 0
 47 415 64 422 69 432 c 0
 96 475 155 553 374 553 c 0
 388.933884989 553 404.611173048 552.504397954 421.155218576 551.63654826 c 1
 342.75682568 331.59085891 297.423890892 181.62354993 274 85 c 0
 264 46 254 7 254 -24 c 0
EndSplineSet
Position2: "'cpsp' Capital Spacing lookup 0 subtable" dx=5 dy=0 dh=10 dv=0
EndChar

StartChar: Thorn
Encoding: 222 222 138
Width: 384
VWidth: 0
Flags: HW
LayerCount: 2
Fore
SplineSet
397 326 m 1
 414 383 439 514 458 630 c 1
 543 616 587 570 587 495 c 0
 587 410 515 344 397 326 c 1
229 360 m 0
 212 360 212 350 212 328 c 0
 212 278 249 274 299 248 c 1
 274 61 285 -46 226 -46 c 0
 162 -46 154 103 154 205 c 0
 154 376 201 600 361 628 c 1
 347 546 332 446 311 328 c 1
 296 330 258 360 229 360 c 0
213 -125 m 0
 323 -125 355 -24 369 97 c 0
 380 180 380 255 393 258 c 0
 578 288 691 383 691 504 c 0
 691 607 609 698 473 720 c 1
 482 779 489 824 489 830 c 0
 490 844 485 849 472 849 c 0
 424 849 398 793 378 723 c 1
 161 708 59 468 59 198 c 0
 59 23 97 -125 213 -125 c 0
EndSplineSet
Position2: "'cpsp' Capital Spacing lookup 0 subtable" dx=5 dy=0 dh=10 dv=0
EndChar

StartChar: U
Encoding: 85 85 139
Width: 632
VWidth: 0
Flags: HW
PickledData: "(dp1
S'com.typemytype.robofont.layerData'
p2
(dp3
s."
AnchorPoint: "top" 507 708 basechar 0
AnchorPoint: "ogonek" 281 -69 basechar 0
LayerCount: 2
Fore
SplineSet
487 565 m 0
 487 593 501 617 531 617 c 0
 576 617 598 559 598 479 c 0
 598 471.233736185 597.794002702 463.261475072 597.38302178 455.116245505 c 1
 525.030417191 458.131304947 487 519.171735912 487 565 c 0
691.95282609 479.066262695 m 1
 690.281716281 603.625279423 644.170455063 699.000000021 547 699 c 0
 455 699 413 636 413 568 c 0
 413 480.342910257 479.47885855 381.77138105 588.716046737 381.004503237 c 1
 558.724332172 213.36033857 456.5368706 18 289 18 c 0
 209 18 178 85 178 176 c 0
 178 293 229 450 293 556 c 0
 299 565 301 573 301 580 c 0
 301 598 284 607 263 607 c 0
 256.098893584 607 248.981799551 606.028055719 242.074590333 603.977699067 c 0
 237.268411354 603.748703459 231.63420568 601.756137098 226 598 c 2
 46 478 l 2
 34 470 28 457 28 445 c 0
 28 429 37 416 53 416 c 0
 59 416 67 418 75 423 c 2
 149.995078919 474.095548274 l 1
 105.842261842 377.022306741 76 264.681475023 76 167 c 0
 76 31 134 -75 289 -75 c 0
 520.746318615 -75 663.167795542 185.599079421 688.073966242 404.862525985 c 1
 720.910363257 420.157921988 756.033244711 443.354034289 793 476 c 0
 801 483 805 492 805 501 c 0
 805 517 794 532 779 532 c 0
 774 532 768 530 762 525 c 0
 736.968202882 505.052786672 713.619144909 490.000814491 691.95282609 479.066262695 c 1
EndSplineSet
Position2: "'cpsp' Capital Spacing lookup 0 subtable" dx=5 dy=0 dh=10 dv=0
EndChar

StartChar: V
Encoding: 86 86 153
Width: 562
VWidth: 0
Flags: HW
LayerCount: 2
Fore
SplineSet
522 634 m 0
 550 634 567 615 567 571 c 0
 567 548.471276597 562.482882003 519.437903277 552.066179416 482.747824548 c 1
 503.18613365 499.692159618 479 545.301420218 479 582 c 0
 479 611 494 634 522 634 c 0
629.268110664 410.101878087 m 1
 675.933498672 420.878552413 728.844128451 446.550976737 788 492 c 0
 797 500 801 510 801 519 c 0
 801 534 791 548 775 548 c 0
 768 548 761 546 753 540 c 0
 714.366508989 512.659375592 679.972203666 495.210184457 649.817084032 485.552752976 c 1
 655.354996279 513.145452101 658 538.349624398 658 561 c 0
 658 657 612 709 537 709 c 0
 446 709 404 647 404 579 c 0
 404 509.507320242 448.163398173 433.705583603 527.686313606 410.874254895 c 1
 513.996934872 375.387632426 496.313492766 334.939543931 474 289 c 0
 423 191 312 40 247 27 c 0
 244 26 241 26 238 26 c 0
 212 26 191 60 191 143 c 0
 191 347 294 531 302 539 c 0
 303 541 304 543 304 545 c 0
 304 558 286 579 262 579 c 0
 251.188612733 579 239.007466545 574.890723235 226.690644281 564.204004013 c 2
 1 427 l 2
 -11 419 -17 406 -17 394 c 0
 -17 378 -7 363 9 363 c 0
 15 363 22 365 30 370 c 2
 162.771910589 453.489760371 l 1
 130.261272623 377.758815906 94 265.386836379 94 148 c 0
 94 20 141 -51 232 -51 c 0
 233 -51 235 -51 236 -51 c 0
 358 -45 481 106 562 258 c 0
 591.563515495 313.15581249 613.728488989 364.028258559 629.268110664 410.101878087 c 1
EndSplineSet
Position2: "'cpsp' Capital Spacing lookup 0 subtable" dx=5 dy=0 dh=10 dv=0
EndChar

StartChar: W
Encoding: 87 87 154
Width: 982
VWidth: 0
Flags: HW
PickledData: "(dp1
S'com.typemytype.robofont.layerData'
p2
(dp3
s."
AnchorPoint: "top" 657 708 basechar 0
LayerCount: 2
Fore
SplineSet
129.18902678 428.086645427 m 1
 101.000029882 354.260255999 74 255.452711215 74 152 c 0
 74 20 120 -58 217 -58 c 0
 218 -58 220 -58 221 -58 c 0
 317.082231295 -54.9253685986 410.210288135 43.2736802407 481.764025551 169.837114577 c 1
 487.178176513 59.5683260314 521.991459763 -58.000000003 606 -58 c 0
 734 -58 842 103 926 254 c 0
 957.123997829 311.801710253 980.14251956 365.25414065 996.110372807 413.829887383 c 1
 1044.4544756 422.010470855 1099.56313371 443.800568968 1161 484 c 0
 1174 493 1179 506 1179 518 c 0
 1179 537 1165 554 1144 554 c 0
 1135 554 1125 551 1114 543 c 0
 1076.95138731 517.739582255 1044.62935761 501.302119439 1016.68014659 491.741907742 c 1
 1022.33796155 520.953603164 1025 547.761923593 1025 572 c 0
 1025 668 948 678 916 722 c 1
 813 722 765 656 765 585 c 0
 765 516.117035144 809.382220512 442.526865081 892.080830313 418.270531607 c 1
 878.333643037 382.293383559 860.843883802 341.918408945 839 297 c 0
 789 202 690 49 619 38 c 0
 618 38 616 38 615 38 c 0
 581 38 576 103 576 149 c 0
 576 171 577 189 577 192 c 0
 577 215 577 212 578 236 c 0
 594 380 614 380 631 435 c 0
 634 446 635 455 635 464 c 0
 635 497 616 515 597 515 c 0
 595 515 593 515 591 515 c 0
 575 515 559 511 549 497 c 0
 532.114822449 472.516492551 517.367964055 435.73764995 505.962953275 393.057225478 c 1
 489.588163793 353.63263571 484.185667286 348.371331178 464 308 c 0
 382 127 285 44 231 38 c 0
 230 38 228 38 227 38 c 0
 203 38 183 64 183 145 c 0
 183 344 286 523 295 532 c 0
 298 536 299 540 299 545 c 0
 299 565 278 590 249 590 c 0
 235.533866366 590 221.06309697 584.97682119 206.299721256 571.370316353 c 1
 -18 436 l 2
 -34 427 -41 410 -41 394 c 0
 -41 372 -28 352 -6 352 c 0
 2 352 11 355 21 361 c 2
 129.18902678 428.086645427 l 1
916.290298506 489.565460874 m 1
 879.030631099 506.439558742 863 545.437346989 863 581 c 0
 863 618 880 650 909 650 c 0
 924 650 935 633 935 596 c 0
 935 570.174825122 929.488102004 534.869185692 916.290298506 489.565460874 c 1
EndSplineSet
Position2: "'cpsp' Capital Spacing lookup 0 subtable" dx=5 dy=0 dh=10 dv=0
EndChar

StartChar: X
Encoding: 88 88 159
Width: 589
VWidth: 0
Flags: HW
LayerCount: 2
Fore
SplineSet
10 413 m 0
 69 469 102 491 123 491 c 0
 144 491 153 469 166 437 c 2
 259.368164586 211.228392978 l 1
 236.006691287 182.26243831 213.681143248 154.939025682 193 130 c 0
 115 38 60 10 -21 10 c 0
 -45 10 -58 -16 -58 -42 c 0
 -58 -69 -44 -97 -13 -97 c 0
 59 -97 111 -89 224 58 c 0
 245.757684694 85.7368957553 267.349855662 113.170349679 288.753604535 140.172074909 c 1
 343 9 l 2
 374 -64 407 -95 445 -95 c 0
 480 -95 519 -68 564 -24 c 2
 674 83 l 2
 679 89 681 95 681 101 c 0
 681 119 662 135 649 135 c 0
 646 135 643 134 641 132 c 2
 531 30 l 2
 517 16 505 11 495 11 c 0
 471 11 458 44 445 77 c 2
 379.895394024 253.650497547 l 1
 454.455340561 344.974208746 526.17454675 428.389666401 594 498 c 0
 625 529 636 555 636 574 c 0
 636 597 619 610 598 610 c 0
 581 610 561 602 546 584 c 0
 487.237311491 503.133914896 418.883614859 413.258094888 352.376863917 328.317442571 c 1
 295 484 l 2
 273 542 231 578 174 578 c 0
 119 578 50 544 -26 466 c 0
 -35 457 -38 448 -38 439 c 0
 -38 421 -22 406 -6 406 c 0
 0 406 5 408 10 413 c 0
EndSplineSet
Position2: "'cpsp' Capital Spacing lookup 0 subtable" dx=5 dy=0 dh=10 dv=0
EndChar

StartChar: Y
Encoding: 89 89 160
Width: 589
VWidth: 0
Flags: HW
PickledData: "(dp1
S'com.typemytype.robofont.layerData'
p2
(dp3
s."
AnchorPoint: "top" 457 708 basechar 0
LayerCount: 2
Fore
SplineSet
521.702948279 157.854229075 m 1
 620 537 l 2
 623 550 625 562 625 572 c 0
 625 596 614 609 577 609 c 0
 555 609 539 592 531 560 c 2
 442 210 l 1
 387 141 317 95 263 95 c 0
 214 95 178 132 178 222 c 0
 178 300 205 419 275 589 c 0
 277 593 277 596 277 599 c 0
 277 616 254 620 239 620 c 0
 202 620 187 595 179 582 c 0
 104 450 72 332 72 240 c 0
 72 104 140 21 238 21 c 0
 292 21 355 46 420 102 c 1
 416.405384041 87.6824618573 412.736529277 73.747253557 409.011301685 60.2009336041 c 1
 283.197803488 -55.3843537126 168.000000075 -186.79932716 168 -274 c 0
 168 -312 194 -345 240 -345 c 0
 365.300452496 -345 422.399976898 -212.969998176 493.059070247 48.6371905616 c 1
 566.487114488 114.533280906 646.123124703 178.907015817 716 228 c 0
 722 232 725 240 725 248 c 0
 725 265 713 285 697 285 c 0
 693 285 688 283 683 280 c 0
 644.996350284 254.376327086 586.1872813 210.765498868 521.702948279 157.854229075 c 1
366.369593252 -73.5374328199 m 1
 320.671148284 -197.656582884 276.285340772 -265 262 -265 c 0
 254 -265 250 -259 250 -241 c 0
 250 -209.283631958 297.196414211 -146.219092115 366.369593252 -73.5374328199 c 1
EndSplineSet
Position2: "'cpsp' Capital Spacing lookup 0 subtable" dx=5 dy=0 dh=10 dv=0
EndChar

StartChar: Z
Encoding: 90 90 167
Width: 631
VWidth: 0
Flags: HW
PickledData: "(dp1
S'com.typemytype.robofont.layerData'
p2
(dp3
s."
AnchorPoint: "top" 497 679 basechar 0
LayerCount: 2
Fore
SplineSet
780 32 m 0
 780 57 764 72 746 72 c 0
 734 72 721 67 711 61 c 0
 657 20 613 5 573 5 c 0
 489 5 425 75 316 129 c 1
 367 184 555 418 695 523 c 1
 729 524 759 528 771 531 c 0
 792 536 810 548 810 576 c 0
 810 620 774 623 737 627 c 0
 604 631 470 647 334 647 c 0
 211 647 95 628 41 454 c 0
 40 449 39 445 39 441 c 0
 39 422 53 415 69 415 c 0
 84 415 101 422 106 432 c 0
 132 477 191 525 418 525 c 0
 465 525 528 522 573 522 c 1
 561 514 l 2
 404 410 214 186 178 151 c 0
 120 94 80 51 80 23 c 0
 80 0 108 -14 128 -14 c 0
 135 -14 141 -13 147 -9 c 0
 166 4 216 41 249 63 c 1
 352 13 454 -75 578 -75 c 0
 629 -75 685 -60 745 -21 c 0
 749 -18 780 2 780 32 c 0
EndSplineSet
Position2: "'cpsp' Capital Spacing lookup 0 subtable" dx=5 dy=0 dh=10 dv=0
EndChar

StartChar: a
Encoding: 97 97 171
Width: 360
VWidth: 0
Flags: HW
PickledData: "(dp1
S'com.typemytype.robofont.layerData'
p2
(dp3
s."
AnchorPoint: "top" 257 343 basechar 0
AnchorPoint: "ogonek" 301 1 basechar 0
LayerCount: 2
Fore
SplineSet
149 79 m 0
 121 79 109 98 109 125 c 0
 109 182 165 272 249 276 c 1
 226 168 l 2
 212 101 177 79 149 79 c 0
23 114 m 0
 23 47 60 -5 129 -5 c 0
 165 -5 196 15 217 44 c 2
 230 62 l 1
 233 30 260 1 301 1 c 0
 360 1 415 54 441 88 c 0
 443 93 443 99 444 102 c 0
 444 127 434 158 414 158 c 0
 407 158 401 153 395 147 c 0
 367 109 331 84 311 84 c 0
 302 84 296 89 296 102 c 0
 296 105 296 108 297 111 c 2
 325 272 l 2
 326 275 326 279 326 282 c 0
 326 301 314 310 297 310 c 0
 295 310 293 310 291 310 c 2
 264 307 l 2
 264 310 265 312 265 315 c 0
 265 326 259 337 224 337 c 0
 140 337 23 250 23 114 c 0
EndSplineSet
Substitution2: "Single Substitution lookup 8 subtable" ordfeminine
EndChar

StartChar: acute
Encoding: 180 180 176
Width: 208
VWidth: 0
Flags: HW
PickledData: "(dp1
S'com.typemytype.robofont.layerData'
p2
(dp3
s."
AnchorPoint: "top" 111 343 mark 0
LayerCount: 2
Fore
SplineSet
163 472 m 2
 273 598 l 2
 282 608 286 618 286 628 c 0
 286 655 257 677 231 677 c 0
 217 677 203 670 195 654 c 2
 125 502 l 2
 120 493 118 485 118 479 c 0
 118 466 126 459 137 459 c 0
 145 459 155 463 163 472 c 2
EndSplineSet
EndChar

StartChar: ae
Encoding: 230 230 180
Width: 491
VWidth: 0
Flags: HW
AnchorPoint: "top" 354 343 basechar 0
AnchorPoint: "ogonek" 363 0 basechar 0
LayerCount: 2
Fore
SplineSet
420 223 m 0
 414 194 342 168 312 168 c 0
 310 168 309 168 308 168 c 1
 318 205 356 251 397 251 c 0
 411 251 421 247 421 230 c 0
 421 228 420 226 420 223 c 0
144 81 m 0
 119 81 107 95 107 118 c 0
 107 171 173 261 271 261 c 1
 244 240 225 190 217 141 c 0
 214 123 186 81 144 81 c 0
223 73 m 1
 244 18 306 -6 358 -6 c 0
 440 -6 523 42 555 86 c 0
 561 94 564 102 564 109 c 0
 564 126 548 138 533 138 c 0
 527 138 521 136 516 132 c 0
 478 94 415 74 372 74 c 0
 371 74 370 74 369 74 c 0
 338 74 309 88 302 120 c 1
 307 120 313 120 318 120 c 0
 437 120 490 163 490 239 c 0
 490 296 448 329 393 329 c 0
 371 329 350 324 332 315 c 1
 331 323 327 337 296 337 c 0
 166 337 5 271 5 103 c 0
 5 62 25 2 93 -4 c 0
 98 -4 103 -5 109 -5 c 0
 142 -5 187 6 223 73 c 1
EndSplineSet
EndChar

StartChar: ampersand
Encoding: 38 38 186
Width: 521
VWidth: 0
Flags: HW
LayerCount: 2
Fore
SplineSet
248 337 m 1
 234 365 220 398 220 423 c 0
 220 457 235 481 271 481 c 0
 298 481 314 473 314 449 c 0
 314 399 280 372 248 337 c 1
115 125 m 0
 115 176 148 218 181 243 c 1
 211 189 244 136 283 87 c 1
 258 69 224 59 194 59 c 0
 152 59 115 79 115 125 c 0
468 -82 m 0
 519 -82 552 -57 552 -40 c 0
 552 -13 493 0 469 17 c 0
 456 28 434 48 405 75 c 1
 461 106 511 140 511 197 c 0
 511 224 484 239 464 239 c 0
 454 239 445 235 444 226 c 0
 439 182 389 149 364 132 c 1
 334 175 294 240 266 293 c 1
 322 327 386 373 386 456 c 0
 386 522 335 563 267 563 c 0
 186 563 116 500 116 417 c 0
 116 369 142 316 160 282 c 1
 100 250 17 203 17 114 c 0
 17 21 90 -16 172 -16 c 0
 226 -16 284 0 327 28 c 1
 332 19 362 -25 399 -60 c 0
 419 -79 447 -82 468 -82 c 0
EndSplineSet
EndChar

StartChar: asciicircum
Encoding: 94 94 191
Width: 372
VWidth: 0
Flags: HW
LayerCount: 2
Fore
SplineSet
68 164 m 1
 66 164 101 180 114 203 c 2
 114 203 189.793524919 343.261580597 199.89292668 370.082752335 c 1
 207.991121239 345.722430693 263.000000092 215.999999966 263 216 c 1
 271 198 289 168 319 168 c 0
 340 168 356 187 356 212 c 0
 356 219 355 226 352 234 c 0
 329 295 301 354 275 408 c 0
 259 439 239 465 194 465 c 0
 149 465 130 421 113 390 c 0
 95 356 76 321 57 286 c 0
 47 265 26 242 26 212 c 0
 26 195 65 164 68 164 c 1
EndSplineSet
EndChar

StartChar: asciitilde
Encoding: 126 126 192
Width: 295
VWidth: 0
Flags: HW
LayerCount: 2
Fore
SplineSet
249 438 m 0
 292 438 337 491 337 532 c 0
 337 550 322 561 305 561 c 0
 270 561 256 526 243 506 c 1
 211 539 l 2
 192 558 172 589 134 589 c 0
 91 589 46 537 46 496 c 0
 46 478 62 467 78 467 c 0
 111 467 127 501 140 521 c 1
 172 489 l 2
 191 469 210 438 249 438 c 0
EndSplineSet
EndChar

StartChar: asterisk
Encoding: 42 42 193
Width: 350
VWidth: 0
Flags: HW
LayerCount: 2
Fore
SplineSet
145 291 m 0
 167 291 192 304 192 327 c 0
 192 368 191 371 191 397 c 0
 191 403 191 411 191 421 c 1
 227 383 221 391 260 354 c 0
 265 349 271 346 277 346 c 0
 299 346 321 379 321 403 c 0
 321 415 315 426 300 429 c 0
 256 437 238 448 226 451 c 1
 257 456 343 456 343 496 c 0
 343 520 314 541 293 541 c 0
 289 541 286 541 283 539 c 0
 260 525 230 507 205 493 c 1
 215 521 230 556 239 583 c 0
 240 586 241 590 241 593 c 0
 241 611 224 628 206 628 c 0
 184 628 160 616 160 592 c 0
 160 563 160 526 160 497 c 1
 140 517 126 524 101 560 c 0
 95 568 86 571 77 571 c 0
 51 571 20 547 20 523 c 0
 20 511 29 498 51 490 c 0
 94 482 99 476 121 467 c 1
 74 458 7 461 7 422 c 0
 7 401 32 376 54 376 c 0
 58 376 63 377 67 379 c 0
 92 392 121 408 145 422 c 1
 131 393 109 356 109 322 c 0
 109 301 125 291 145 291 c 0
EndSplineSet
EndChar

StartChar: at
Encoding: 64 64 194
Width: 766
VWidth: 0
Flags: HW
LayerCount: 2
Fore
SplineSet
457 195 m 2
 443 146 401 72 327 72 c 0
 283 72 273 101 273 128 c 0
 273 256 375 352 484 352 c 0
 490 352 497 352 503 351 c 1
 457 195 l 2
459 76 m 1
 468 40 499 21 541 21 c 0
 637 21 731 137 731 294 c 0
 731 456 631 547 462 547 c 0
 249 547 33 362 33 123 c 0
 33 -17 117 -145 333 -145 c 0
 432 -145 540 -119 617 -75 c 0
 631 -67 636 -54 636 -42 c 0
 636 -23 623 -5 604 -5 c 0
 598 -5 592 -7 585 -11 c 0
 509 -56 423 -73 343 -73 c 0
 168 -73 113 19 113 121 c 0
 113 302 258 478 462 478 c 0
 594 478 661 413 661 287 c 0
 661 217 609 84 542 84 c 0
 528 84 520 89 520 106 c 0
 520 111 521 118 523 126 c 2
 579 347 l 2
 582 357 583 366 583 373 c 0
 583 397 570 409 544 409 c 0
 543 409 542 409 541 409 c 2
 521 409 l 2
 523 412 523 415 523 417 c 0
 523 426 512 426 505 426 c 0
 367 426 199 298 199 125 c 0
 199 50 255 5 329 5 c 0
 384 5 423 30 459 76 c 1
EndSplineSet
EndChar

StartChar: b
Encoding: 98 98 196
Width: 390
VWidth: 0
Flags: HW
PickledData: "(dp1
S'com.typemytype.robofont.layerData'
p2
(dp3
s."
AnchorPoint: "top" 437 343 basechar 0
LayerCount: 2
Fore
SplineSet
134 260 m 1
 128 285 195 558 261 558 c 0
 268 558 273 554 273 538 c 0
 273 534 273 529 272 524 c 0
 259 452 221 376 134 260 c 1
365 251 m 0
 365 295 332 319 306 319 c 0
 269.622262171 319 236.420539885 302.061250438 221.029427662 292.06124291 c 1
 287.979139449 354.299811903 349.421661766 494.491648809 360 557 c 0
 361 565 362 573 362 581 c 0
 362 617 347 656 295 656 c 0
 145 656 40 354 34 147 c 0
 34 145 34 143 34 141 c 0
 34 50 98 -5 192 -5 c 0
 265.434516557 -5 320.151295427 41.5543732228 346.84051936 123.025848107 c 1
 392.824694593 127.049504569 440.878789505 142.591471765 464 164 c 0
 476 175 478 183 478 196 c 0
 478 213 469 227 450 227 c 0
 435.137479432 227 404.223800144 192.604659885 360.600148083 183.955326701 c 1
 363.502185791 204.839521846 365 227.226742408 365 251 c 0
259.126214561 131.747615586 m 1
 248.008221228 98.298713824 227.549973254 73 198 73 c 0
 156 73 147 115 147 145 c 0
 147 200 187 252 237 252 c 0
 267 252 273 246 273 235 c 0
 273 231.866078341 272.514989384 228.247146066 271.882742658 224.143203176 c 0
 252.437570146 215.906912216 234 195.96655529 234 179 c 0
 234 153.897160856 243.448653899 139.696614672 259.126214561 131.747615586 c 1
EndSplineSet
EndChar

StartChar: backslash
Encoding: 92 92 197
Width: 426
VWidth: 0
Flags: HW
LayerCount: 2
Fore
SplineSet
359 -12 m 0
 382 -12 395 7 395 26 c 0
 395 38 391 52 383 69 c 2
 148 583 l 2
 132 619 124 640 104 640 c 0
 79 640 61 622 61 605 c 0
 61 592 67 575 77 553 c 2
 309 42 l 2
 324 10 339 -12 359 -12 c 0
EndSplineSet
EndChar

StartChar: bar
Encoding: 124 124 198
Width: 460
VWidth: 0
Flags: HW
LayerCount: 2
Fore
SplineSet
191 -3 m 2
 190 -8 189 -13 189 -18 c 0
 189 -45 210 -60 231 -60 c 0
 250 -60 269 -48 275 -22 c 2
 439 649 l 2
 441 656 441 661 441 667 c 0
 441 694 425 709 407 709 c 0
 389 709 369 694 361 661 c 2
 191 -3 l 2
EndSplineSet
EndChar

StartChar: braceleft
Encoding: 123 123 200
Width: 394
VWidth: 0
Flags: HW
LayerCount: 2
Fore
SplineSet
148 321 m 0
 127 321 109 308 109 279 c 0
 109 257 120 240 139 238 c 0
 195 234 203 220 203 185 c 0
 203 129 188 79 188 27 c 0
 188 -58 226 -106 330 -106 c 0
 344 -106 360 -105 377 -103 c 0
 391 -101 398 -86 398 -71 c 0
 398 -54 389 -36 370 -36 c 0
 358 -36 346 -37 337 -37 c 0
 282 -37 278 -23 278 12 c 0
 278 19 278 26 278 34 c 0
 278 83 293 139 293 193 c 0
 293 230.933066717 271.610195142 256.902344276 242.58280398 272.872435328 c 1
 280.858834873 285.849550463 309.289198241 314.172467027 312 365 c 0
 321 533 329 571 368 578 c 0
 372 579 377 579 381 579 c 0
 408 579 434 569 450 563 c 0
 454 562 457 561 460 561 c 0
 478 561 488 579 488 596 c 0
 488 606 485 616 477 621 c 0
 453 634 413 649 370 649 c 0
 258 649 234 565 224 386 c 0
 222 341 207 321 165 321 c 0
 160 321 154 321 148 321 c 0
EndSplineSet
EndChar

StartChar: braceright
Encoding: 125 125 201
Width: 426
VWidth: 0
Flags: HW
LayerCount: 2
Fore
SplineSet
160 569 m 0
 167 569 174 570 180 570 c 0
 237 570 245 550 245 497 c 0
 245 448 230 393 230 338 c 0
 230 299.975570089 253.67869049 273.972629196 284.76567237 258.012344998 c 1
 244.709052312 245.224739864 213.682956844 217.634701619 211 168 c 0
 202 0 193 -41 161 -48 c 0
 159 -48 156 -48 154 -48 c 0
 125 -48 96 -38 78 -33 c 0
 74 -31 70 -31 67 -31 c 0
 50 -31 40 -48 40 -64 c 0
 40 -74 44 -84 53 -89 c 0
 76 -103 114 -116 154 -116 c 0
 160 -116 167 -116 173 -115 c 0
 271 -109 295 -28 305 146 c 0
 308 193 318 211 355 211 c 0
 383 211 399 221 399 253 c 0
 399 274 389 293 371 294 c 0
 330 296 326 312 326 347 c 0
 326 403 340 454 340 504 c 0
 340 590 303 636 203 636 c 0
 187 636 171 635 152 633 c 0
 138 632 131 618 131 604 c 0
 131 587 141 569 160 569 c 0
EndSplineSet
EndChar

StartChar: bracketleft
Encoding: 91 91 202
Width: 316
VWidth: 0
Flags: HW
LayerCount: 2
Fore
SplineSet
181 -71 m 2
 282 -72 l 2
 306 -72 336 -51 336 -21 c 0
 336 2 312 13 287 13 c 2
 222 13 l 1
 241 137 240 158 251 238 c 0
 260 294 269 386 285 489 c 1
 372 489 l 2
 395 489 419 506 419 532 c 0
 419 559 401 576 375 576 c 2
 264 576 l 2
 229 576 208 567 199 514 c 0
 177 379 169 304 146 133 c 2
 126 -18 l 2
 125 -25 124 -31 124 -37 c 0
 124 -62 140 -70 181 -71 c 2
EndSplineSet
EndChar

StartChar: bracketright
Encoding: 93 93 203
Width: 316
VWidth: 0
Flags: HW
LayerCount: 2
Fore
SplineSet
45 -71 m 2
 154 -71 l 2
 193 -71 217 -65 228 -4 c 0
 251 133 255 231 282 416 c 1
 280 405 279 400 279 400 c 2
 278 400 294 513 294 513 c 2
 295 522 296 529 296 536 c 0
 296 566 281 576 241 576 c 2
 141 576 l 2
 118 576 90 556 90 526 c 0
 90 503 114 491 132 491 c 2
 200 491 l 1
 180 367 185 384 168 256 c 0
 149 131 153 116 136 13 c 1
 49 13 l 2
 26 13 3 -3 3 -28 c 0
 3 -55 19 -71 45 -71 c 2
EndSplineSet
EndChar

StartChar: breve
Encoding: 728 728 204
Width: 205
VWidth: 0
Flags: HW
AnchorPoint: "top" 111 343 mark 0
LayerCount: 2
Fore
SplineSet
116 439 m 0
 178 439 235 473 235 552 c 0
 235 563 219 570 203 570 c 0
 190 570 177 565 176 553 c 0
 172 518 147 502 122 502 c 0
 98 502 74 517 73 544 c 0
 72 558 58 565 44 565 c 0
 28 565 12 557 12 541 c 0
 12 483 43 439 116 439 c 0
EndSplineSet
EndChar

StartChar: brokenbar
Encoding: 166 166 205
Width: 350
VWidth: 0
Flags: HW
LayerCount: 2
Fore
SplineSet
164 424 m 2
 162 418 162 412 162 407 c 0
 162 381 181 367 202 367 c 0
 221 367 241 379 248 405 c 2
 313 643 l 2
 314 647 315 651 315 655 c 0
 315 680 294 698 272 698 c 0
 255 698 238 687 231 661 c 2
 164 424 l 2
61 -3 m 2
 60 -8 59 -13 59 -18 c 0
 59 -44 80 -60 101 -60 c 0
 120 -60 139 -48 145 -22 c 2
 204 223 l 2
 206 230 206 235 206 241 c 0
 206 269 188 284 169 284 c 0
 150 284 130 270 122 238 c 2
 61 -3 l 2
EndSplineSet
EndChar

StartChar: bullet
Encoding: 8226 8226 206
Width: 383
VWidth: 0
Flags: HW
LayerCount: 2
Fore
SplineSet
175 80 m 0
 254 80 301 149 301 229 c 0
 301 285 272 312 219 312 c 0
 144 312 80 262 80 186 c 0
 80 124 113 80 175 80 c 0
EndSplineSet
EndChar

StartChar: bulletoperator
Encoding: 8729 8729 207
Width: 205
VWidth: 0
Flags: HW
LayerCount: 2
Fore
SplineSet
121 459 m 0
 148 459 174 484 174 513 c 0
 174 536 152 557 126 557 c 0
 100 557 74 532 74 505 c 0
 74 480 98 459 121 459 c 0
EndSplineSet
EndChar

StartChar: c
Encoding: 99 99 208
Width: 270
VWidth: 0
Flags: HW
PickledData: "(dp1
S'com.typemytype.robofont.layerData'
p2
(dp3
s."
AnchorPoint: "top" 227 343 basechar 0
AnchorPoint: "bot" 130 0 basechar 0
LayerCount: 2
Fore
SplineSet
196 196 m 0
 196 178 211 161 224 161 c 0
 259 161 290 198 290 248 c 0
 290 288 254 330 190 330 c 0
 80 330 19 223 19 138 c 0
 19 131 19 125 20 118 c 0
 29 14 104 -6 156 -6 c 0
 251 -6 316 59 351 105 c 0
 354 110 356 115 356 121 c 0
 356 137 345 152 332 152 c 0
 328 152 323 150 319 146 c 0
 278 112 239 60 173 60 c 0
 134 60 104 86 104 131 c 0
 104 222 147 255 186 255 c 0
 200 255 209 249 209 238 c 0
 209 222 196 210 196 196 c 0
EndSplineSet
EndChar

StartChar: caron
Encoding: 711 711 210
Width: 295
VWidth: 0
Flags: HW
AnchorPoint: "top" 129 343 mark 0
LayerCount: 2
Fore
SplineSet
117 558 m 0
 114 572 102 578 89 578 c 0
 72 578 53 566 53 548 c 0
 53 545 53 543 54 540 c 2
 81 450 l 2
 96 399 103 382 142 382 c 0
 176 382 190 406 205 431 c 2
 262 532 l 2
 265 537 266 542 266 547 c 0
 266 563 251 574 235 574 c 0
 224 574 213 569 205 555 c 0
 202 549 152 467 147 456 c 1
 145 468 120 546 117 558 c 0
EndSplineSet
EndChar

StartChar: caron.alt
Encoding: 65536 -1 211
Width: 600
VWidth: 0
Flags: HW
AnchorPoint: "caron.alt" 111 343 mark 0
LayerCount: 2
Fore
SplineSet
153 428 m 0
 195 467 231 509 263 554 c 0
 270 564 273 574 273 584 c 0
 273 614 243 638 218 638 c 0
 205 638 192 631 187 615 c 0
 169 561 140 495 112 448 c 0
 108 441 106 436 106 431 c 0
 106 421 114 415 124 415 c 0
 133 415 143 419 153 428 c 0
EndSplineSet
EndChar

StartChar: cedilla
Encoding: 184 184 216
Width: 404
VWidth: 0
Flags: HW
AnchorPoint: "bot" 241 77 mark 0
LayerCount: 2
Fore
SplineSet
184 -125 m 2
 229 5 l 2
 230 7 230 10 230 12 c 0
 230 20 226 26 219 26 c 0
 214 26 209 23 203 15 c 2
 110 -103 l 2
 104 -111 102 -118 102 -125 c 0
 102 -144 122 -158 142 -158 c 0
 159 -158 176 -149 184 -125 c 2
EndSplineSet
EndChar

StartChar: cent
Encoding: 162 162 217
Width: 306
VWidth: 0
Flags: HW
LayerCount: 2
Fore
SplineSet
147 73 m 1
 125 82 124 108 124 142 c 0
 124 190 130 229 161 247 c 1
 157 190 151 130 147 73 c 1
158 -74 m 0
 169 -74 186 -62 189 -45 c 2
 194 -5 l 1
 241 9 267 30 291 50 c 0
 298 56 303 62 303 75 c 0
 303 90 292 115 275 115 c 0
 271 115 266 114 261 110 c 0
 244 100 225 86 202 77 c 1
 207 136 210 198 214 255 c 1
 232 244 210 180 259 180 c 0
 293 180 304 219 304 249 c 0
 304 298 263 324 220 331 c 1
 221 338 223 355 223 364 c 0
 223 372 217 394 206 394 c 0
 179 394 170 363 169 348 c 2
 168 333 l 1
 80 319 16 239 16 141 c 0
 16 60 60 -2 139 -6 c 1
 139 -16 137 -40 137 -54 c 0
 139 -66 143 -74 158 -74 c 0
EndSplineSet
EndChar

StartChar: circumflex
Encoding: 710 710 218
Width: 295
VWidth: 0
Flags: HW
AnchorPoint: "top" 130 343 mark 0
LayerCount: 2
Fore
SplineSet
175 406 m 0
 178 392 190 385 203 385 c 0
 221 385 241 398 241 416 c 0
 241 418 241 420 240 423 c 2
 216 516 l 2
 202 568 195 585 156 585 c 0
 122 585 106 561 90 535 c 2
 28 432 l 2
 25 426 23 421 23 416 c 0
 23 400 38 389 54 389 c 0
 65 389 77 394 85 408 c 0
 89 415 142 499 148 509 c 1
 150 497 172 417 175 406 c 0
EndSplineSet
EndChar

StartChar: colon
Encoding: 58 58 219
Width: 240
VWidth: 0
Flags: HW
LayerCount: 2
Fore
SplineSet
186 229 m 0
 231 229 256 260 256 302 c 0
 256 342 232 364 192 364 c 0
 148 364 124 334 124 292 c 0
 124 253 147 229 186 229 c 0
166 0 m 0
 210 0 235 29 235 71 c 0
 235 112 213 134 172 134 c 0
 128 134 102 103 102 61 c 0
 102 22 125 0 166 0 c 0
EndSplineSet
EndChar

StartChar: comma
Encoding: 44 44 220
Width: 290
VWidth: 0
Flags: HW
LayerCount: 2
Fore
SplineSet
111 -95 m 0
 165 -61 217 -6 217 58 c 0
 217 92 202 114 167 114 c 0
 134 114 121 94 119 72 c 0
 111 8 106 -12 75 -65 c 0
 73 -68 72 -71 72 -74 c 0
 72 -87 88 -98 101 -98 c 0
 105 -98 108 -97 111 -95 c 0
EndSplineSet
EndChar

StartChar: copyright
Encoding: 169 169 221
Width: 612
VWidth: 0
Flags: HW
LayerCount: 2
Fore
SplineSet
282 12 m 0
 451 12 550 125 550 284 c 0
 550 413 464 487 333 487 c 0
 168 487 38 389 38 224 c 0
 38 86 142 12 282 12 c 0
285 74 m 0
 184 74 109 124 109 220 c 0
 109 341 198 423 322 423 c 0
 418 423 478 375 478 281 c 0
 478 165 402 74 285 74 c 0
282 107 m 0
 327 107 363 128 389 146 c 0
 395 151 398 159 398 170 c 0
 398 183 390 205 375 205 c 0
 372 205 369 204 366 203 c 0
 347 191 323 174 295 174 c 0
 267 174 255 199 255 229 c 0
 255 274 269 327 309 327 c 0
 312 327 312 324 312 320 c 0
 312 313 310 300 310 289 c 0
 310 272 316 260 336 260 c 0
 369 260 384 291 384 323 c 0
 384 369 349 395 303 395 c 0
 201 395 172 301 172 225 c 0
 172 164 203 107 282 107 c 0
EndSplineSet
EndChar

StartChar: currency
Encoding: 164 164 222
Width: 503
VWidth: 0
Flags: HW
LayerCount: 2
Fore
SplineSet
238 234 m 0
 191 234 167 264 167 308 c 0
 167 390 200 448 279 448 c 0
 318 448 338 419 341 385 c 0
 341 310 309 234 238 234 c 0
227 154 m 0
 261 154 285 163 306 172 c 1
 323 153 352 119 382 119 c 0
 401 119 422 142 422 160 c 0
 423 172 414 183 400 196 c 2
 370 221 l 1
 400 257 428 306 428 382 c 0
 428 403 423 422 417 440 c 1
 452 466 l 2
 465 474 482 484 482 504 c 0
 482 522 466 543 446 543 c 0
 417 543 389 515 370 501 c 1
 348 515 321 525 282 525 c 0
 242 525 210 517 187 504 c 1
 149 538 l 2
 137 547 125 554 115 554 c 0
 94 554 73 534 73 513 c 0
 73 497 86 486 96 477 c 2
 125 452 l 1
 99 419 78 379 78 317 c 0
 78 288 82 266 93 241 c 1
 44 208 l 2
 31 200 16 189 16 168 c 0
 16 149 30 130 50 130 c 0
 53 130 58 131 63 132 c 0
 91 143 116 163 139 181 c 1
 160 167 187 154 227 154 c 0
EndSplineSet
EndChar

StartChar: d
Encoding: 100 100 223
Width: 368
VWidth: 0
Flags: HW
PickledData: "(dp1
S'com.typemytype.robofont.layerData'
p2
(dp3
s."
AnchorPoint: "mid" 283 474 basechar 0
AnchorPoint: "caron.alt" 521 555 basechar 0
AnchorPoint: "top" 103 343 basechar 0
LayerCount: 2
Fore
SplineSet
298 263 m 1
 315 399 341 561 401 561 c 0
 412 561 418 553 418 540 c 0
 418 484 350 354 298 263 c 1
157 77 m 0
 125 77 111 104 111 142 c 0
 111 197 145 263 222 270 c 1
 214 194 l 2
 204 99 183 77 157 77 c 0
20 121 m 0
 20 42 77 -5 141 -5 c 0
 180 -5 212 15 230 62 c 1
 248 20 298 -3 337 -3 c 0
 413 -3 463 45 495 87 c 0
 498 91 504 102 504 113 c 0
 504 137 482 149 467 150 c 0
 459 150 452 150 449 147 c 0
 437 133 388 71 345 71 c 0
 323 71 296 87 296 147 c 0
 296 151 296 156 296 160 c 0
 365 265 502 424 502 551 c 0
 502 609 473 657 414 657 c 0
 308 657 257 547 229 329 c 1
 218 332 208 333 197 333 c 0
 102 333 20 228 20 121 c 0
EndSplineSet
EndChar

StartChar: dagger
Encoding: 8224 8224 224
Width: 394
VWidth: 0
Flags: HW
LayerCount: 2
Fore
SplineSet
331 521 m 0
 277 521 271 481 234 337 c 1
 138 337 l 2
 113 337 95 324 95 303 c 0
 95 282 111 273 135 273 c 2
 218 273 l 1
 146 -17 l 2
 141 -36 139 -51 139 -62 c 0
 139 -90 153 -100 179 -100 c 0
 214 -100 229 -66 238 -32 c 2
 316 273 l 1
 409 273 l 2
 434 273 453 281 453 306 c 0
 453 324 437 337 415 337 c 2
 328 337 l 1
 351 430 360 456 360 482 c 0
 360 488 360 493 359 500 c 0
 356 507 350 521 331 521 c 0
EndSplineSet
EndChar

StartChar: daggerdbl
Encoding: 8225 8225 225
Width: 394
VWidth: 0
Flags: HW
LayerCount: 2
Fore
SplineSet
90 142 m 2
 65 142 47 129 47 108 c 0
 47 87 63 78 87 78 c 2
 169.586206897 78 l 1
 146 -17 l 2
 141 -36 139 -51 139 -62 c 0
 139 -90 153 -100 179 -100 c 0
 214 -100 229 -66 238 -32 c 2
 266.131147541 78 l 1
 361 78 l 2
 386 78 405 86 405 111 c 0
 405 129 389 142 367 142 c 2
 282.498360656 142 l 1
 316 273 l 1
 409 273 l 2
 436 273 453 281 453 306 c 0
 453 324 437 337 415 337 c 2
 328 337 l 1
 351 430 360 456 360 482 c 0
 360 488 360 493 359 500 c 0
 356 507 350 521 331 521 c 0
 277 521 271 481 234 337 c 1
 138 337 l 2
 109 337 95 324 95 303 c 0
 95 282 111 273 135 273 c 2
 218 273 l 1
 185.475862069 142 l 1
 90 142 l 2
EndSplineSet
EndChar

StartChar: degree
Encoding: 176 176 229
Width: 251
VWidth: 0
Flags: HW
LayerCount: 2
Fore
SplineSet
111 356 m 0
 182 356 233 407 233 479 c 0
 233 529 199 562 150 562 c 0
 83 562 18 520 18 450 c 0
 18 393 56 356 111 356 c 0
111 415 m 0
 89 415 77 429 77 450 c 0
 77 484 106 505 141 505 c 0
 160 505 170 494 170 475 c 0
 170 440 146 415 111 415 c 0
EndSplineSet
EndChar

StartChar: dieresis
Encoding: 168 168 230
Width: 350
VWidth: 0
Flags: HW
AnchorPoint: "top" 102 343 mark 0
LayerCount: 2
Fore
SplineSet
194 394 m 0
 228 394 248 413 248 444 c 0
 248 469 230 484 201 484 c 0
 169 484 150 465 150 434 c 0
 150 409 166 394 194 394 c 0
2 394 m 0
 36 394 55 413 55 444 c 0
 55 469 38 484 9 484 c 0
 -23 484 -41 465 -41 434 c 0
 -41 409 -25 394 2 394 c 0
EndSplineSet
EndChar

StartChar: divide
Encoding: 247 247 231
Width: 474
VWidth: 0
Flags: HW
LayerCount: 2
Fore
SplineSet
303 315 m 0
 345 315 368 340 368 381 c 0
 368 416 346 436 310 436 c 0
 270 436 246 411 246 370 c 0
 246 334 267 315 303 315 c 0
255 7 m 0
 296 7 320 32 320 72 c 0
 320 109 298 128 263 128 c 0
 223 128 198 102 198 62 c 0
 198 25 218 7 255 7 c 0
188 181 m 2
 381 181 l 2
 411 181 426 198 426 228 c 0
 426 249 409 260 386 260 c 2
 194 260 l 2
 165 260 135 245 135 217 c 0
 135 192 160 181 188 181 c 2
EndSplineSet
EndChar

StartChar: dollar
Encoding: 36 36 233
Width: 593
VWidth: 0
Flags: HW
LayerCount: 2
Fore
SplineSet
351 68 m 1
 388 254 l 1
 417 237 432 203 432 168 c 0
 432 122 405 75 351 68 c 1
328 384 m 1
 303 397 271 417 271 449 c 0
 271 489 299 513 353 515 c 1
 328 384 l 1
254 -38 m 0
 254 -63 266 -79 297 -79 c 0
 324 -79 334 -60 338 -39 c 2
 344 1 l 1
 444 8 531 61 531 177 c 0
 531 265 460 306 404 338 c 1
 436 513 l 1
 467 506 497 479 515 455 c 0
 529 437 542 431 554 431 c 0
 576 431 592 454 592 472 c 0
 592 476 591 479 590 482 c 0
 555 558 500 576 448 590 c 1
 452 617 l 2
 453 622 454 630 454 637 c 0
 454 657 448 679 427 679 c 0
 397 679 376 660 373 636 c 2
 367 597 l 2
 365 597 362 597 360 597 c 0
 253 597 153 550 153 441 c 0
 153 348 250 320 309 290 c 1
 268 70 l 1
 219 78 185 111 185 147 c 0
 185 182 193 203 225 203 c 0
 245 203 258 216 258 234 c 0
 258 260 237 276 213 276 c 0
 134 276 84 224 84 148 c 0
 84 47 168 10 258 1 c 1
 256 -13 254 -27 254 -38 c 0
EndSplineSet
EndChar

StartChar: dotaccent
Encoding: 729 729 234
Width: 240
VWidth: 0
Flags: HW
AnchorPoint: "top" 104 343 mark 0
LayerCount: 2
Fore
SplineSet
114 459 m 0
 147 459 167 479 167 513 c 0
 167 541 149 557 119 557 c 0
 86 557 67 538 67 505 c 0
 67 476 84 459 114 459 c 0
EndSplineSet
EndChar

StartChar: dotlessi
Encoding: 305 305 235
Width: 218
VWidth: 0
Flags: HW
PickledData: "(dp1
S'com.typemytype.robofont.layerData'
p2
(dp3
s."
AnchorPoint: "top" 173 343 basechar 0
LayerCount: 2
Fore
SplineSet
34 101 m 0
 34 38 74 -4 139 -4 c 0
 189 -4 248 26 297 85 c 0
 305 95 310 99 310 109 c 0
 310 136 291 149 272 149 c 0
 263 149 256 145 249 137 c 0
 209 91 176 71 154 71 c 0
 135 71 124 85 124 111 c 0
 124 160 155 257 180 303 c 0
 182 307 183 311 183 315 c 0
 183 336 155 348 135 348 c 0
 116 348 102 338 89 314 c 0
 61 261 34 161 34 101 c 0
EndSplineSet
EndChar

StartChar: dotlessj
Encoding: 567 567 236
Width: 217
VWidth: 0
Flags: HW
AnchorPoint: "top" 163 343 basechar 0
LayerCount: 2
Fore
SplineSet
138 9 m 0
 138 -50 134 -138 104 -138 c 0
 88 -138 85 -116 85 -89 c 0
 85 -26 109 82 131 152 c 1
 134 112 138 59 138 9 c 0
-1 -84 m 0
 -1 -151 18 -209 98 -209 c 0
 188 -209 208 -107 208 6 c 0
 208 49 200 107 197 129 c 1
 200 129 202 129 205 129 c 0
 258 129 343 148 343 215 c 0
 343 230 337 242 326 242 c 0
 323 242 320 241 316 239 c 0
 239 208 206 213 147 194 c 1
 164 233 l 2
 172 250 186 278 186 302 c 0
 186 316 178 329 160 329 c 0
 101 329 87 314 71 277 c 0
 38 198 15 96 5 1 c 0
 2 -26 -1 -56 -1 -84 c 0
EndSplineSet
EndChar

StartChar: e
Encoding: 101 101 239
Width: 293
VWidth: 0
Flags: HW
PickledData: "(dp1
S'com.typemytype.robofont.layerData'
p2
(dp3
s."
AnchorPoint: "bot" 163 0 basechar 0
AnchorPoint: "top" 217 343 basechar 0
AnchorPoint: "ogonek" 241 20 basechar 0
LayerCount: 2
Fore
SplineSet
109 146 m 1
 109 202 155 251 197 251 c 0
 210 251 220 247 220 232 c 0
 220 197 150 156 109 146 c 1
20 127 m 0
 20 26 95 -6 165 -6 c 0
 247 -6 323 42 354 86 c 0
 360 94 363 102 363 109 c 0
 363 126 347 139 333 139 c 0
 327 139 322 137 317 132 c 0
 277 95 219 73 175 73 c 0
 148 73 126 81 116 99 c 1
 236 119 295 169 295 236 c 0
 295 294 259 329 202 329 c 0
 97 329 20 213 20 127 c 0
EndSplineSet
EndChar

StartChar: eight
Encoding: 56 56 248
Width: 417
VWidth: 0
Flags: HW
LayerCount: 2
Fore
SplineSet
256 308 m 1
 241 324 208 351 208 377 c 0
 208 415 234 428 273 428 c 0
 282 428 310 416 310 387 c 0
 310 355 274 321 256 308 c 1
224 65 m 0
 185 65 174 92 174 110 c 0
 174 158 209 190 240 207 c 1
 256 190 282 147 282 126 c 0
 282 100 264 65 224 65 c 0
409 408 m 0
 409 483 338 509 264 509 c 0
 178 509 115 451 115 367 c 0
 115 320 159 283 189 267 c 1
 131 235 86 187 86 102 c 0
 86 18 141 -18 232 -18 c 0
 322 -18 385 29 385 111 c 0
 385 178 344 218 302 248 c 1
 364 276 409 321 409 408 c 0
EndSplineSet
EndChar

StartChar: ellipsis
Encoding: 8230 8230 250
Width: 671
VWidth: 0
Flags: HW
LayerCount: 2
Fore
SplineSet
569 0 m 0
 609 0 633 26 633 65 c 0
 633 102 612 121 575 121 c 0
 535 121 513 94 513 55 c 0
 513 19 533 0 569 0 c 0
389 0 m 0
 429 0 453 26 453 65 c 0
 453 102 432 121 395 121 c 0
 355 121 332 94 332 55 c 0
 332 19 352 0 389 0 c 0
207 0 m 0
 247 0 270 26 270 65 c 0
 270 102 250 121 213 121 c 0
 173 121 150 94 150 55 c 0
 150 19 170 0 207 0 c 0
EndSplineSet
EndChar

StartChar: emdash
Encoding: 8212 8212 252
Width: 383
VWidth: 0
Flags: HW
LayerCount: 2
Fore
SplineSet
54 124 m 2
 318 124 l 2
 352 124 367 145 367 177 c 0
 367 206 346 214 319 214 c 2
 63 214 l 2
 32 214 14 201 14 168 c 0
 14 145 29 124 54 124 c 2
EndSplineSet
EndChar

StartChar: emptyset
Encoding: 8709 8709 253
Width: 462
VWidth: 0
Flags: HW
LayerCount: 2
Fore
SplineSet
292 125 m 1
 365 352 l 1
 378 339 383 316 383 288 c 0
 383 220 348 128 292 125 c 1
252 137 m 1
 238 153 232 177 232 200 c 0
 232 267 274 340 324 357 c 1
 252 137 l 1
215 -102 m 2
 265 36 l 2
 266 36 267 36 268 36 c 0
 395 36 468 182 468 301 c 0
 468 368 445 426 395 444 c 1
 443 592 l 2
 445 597 446 601 446 605 c 0
 446 617 438 624 429 624 c 0
 420 624 410 617 405 601 c 2
 353 448 l 1
 244 442 150 305 150 179 c 0
 150 116 174 66 221 46 c 1
 177 -91 l 2
 176 -93 176 -95 176 -97 c 0
 176 -108 187 -116 197 -116 c 0
 205 -116 212 -112 215 -102 c 2
EndSplineSet
EndChar

StartChar: endash
Encoding: 8211 8211 254
Width: 338
VWidth: 0
Flags: HW
LayerCount: 2
Fore
SplineSet
54 131 m 2
 274 131 l 2
 304 131 317 148 317 177 c 0
 317 201 300 208 276 208 c 2
 64 208 l 2
 35 208 22 197 22 168 c 0
 22 147 34 131 54 131 c 2
EndSplineSet
EndChar

StartChar: eng
Encoding: 331 331 255
Width: 321
VWidth: 0
Flags: HW
LayerCount: 2
Fore
SplineSet
169 -28 m 1
 148 -54 81 -120 58 -120 c 0
 57.1637382459 -120 56.5023099221 -119.926896744 55.9426117731 -119.926896744 c 1
 56.8118551904 -121.171480792 56.3865754984 -123.306712251 55 -124 c 2
 55 -124 54 -124 54 -123 c 0
 54 -122.208822929 54.224954791 -121.045981421 54.7193591413 -119.55306841 c 0
 54.4708725671 -119.415442324 54.2354362836 -119.235436284 54 -119 c 1
 54.3220834909 -119 54.6095877234 -119.046105678 54.8637501874 -119.129654605 c 0
 59.7764569057 -105.116885092 86.9414994851 -64.5695491425 169 -28 c 1
-21 -148 m 0
 -21 -173 1 -192 38 -192 c 0
 58 -192 86 -184 127 -154 c 0
 175 -122 223 -68 259 17 c 1
 303 43 346 42 385 62 c 0
 408 73 418 88 418 98 c 0
 418 105 412 110 403 110 c 0
 401 110 398 110 395 109 c 0
 394 109 394 109 393 109 c 0
 377 109 308 88 271 70 c 1
 299 146 l 2
 308 168 328 233 328 278 c 0
 328 306 324 328 290 328 c 0
 243 328 206 262 123 171 c 1
 137 204 149 253 159 287 c 0
 160 292 161 297 161 301 c 0
 161 319 150 332 130 332 c 0
 102 332 84 313 77 292 c 0
 57 227 38 150 38 81 c 0
 38 73 38 66 38 58 c 0
 38 28 42 0 73 0 c 0
 92 0 101 25 124 59 c 1
 173 108 185 157 247 205 c 1
 224 152 224 146 220 141 c 2
 181 39 l 1
 130 17 99 -3 76 -23 c 0
 51 -41 34 -60 12 -78 c 1
 -10 -104 -21 -129 -21 -148 c 0
54.8637501874 -119.129654605 m 0
 55.335685865 -119.284790493 55.6926655993 -119.569023432 55.9426117731 -119.926896744 c 1
 55.4788865866 -119.866328703 55.0849948373 -119.755578386 54.7193591413 -119.55306841 c 0
 54.7651648229 -119.414752682 54.8132833766 -119.273603721 54.8637501874 -119.129654605 c 0
EndSplineSet
EndChar

StartChar: equal
Encoding: 61 61 257
Width: 583
VWidth: 0
Flags: HW
LayerCount: 2
Fore
SplineSet
173 239 m 2
 500 239 l 2
 548 239 568 247 568 287 c 0
 568 318 547 322 512 322 c 0
 448 322 253 319 198 319 c 0
 192 319 185 319 179 319 c 0
 148 319 121 315 121 277 c 0
 121 248 145 239 173 239 c 2
562 127 m 0
 562 159 546 168 507 168 c 2
 179 168 l 2
 140 168 113 165 113 142 c 0
 113 104 137 92 177 92 c 2
 508 92 l 2
 542 92 562 102 562 127 c 0
EndSplineSet
EndChar

StartChar: estimated
Encoding: 8494 8494 258
Width: 526
VWidth: 0
Flags: HW
LayerCount: 2
Fore
SplineSet
188 260 m 1
 188 368 239 424 287 424 c 0
 325 424 349 393 349 357 c 0
 349 312 311 259 208 259 c 0
 202 259 195 260 188 260 c 1
133 259 m 0
 133 153 202 97 285 97 c 0
 326 97 369 111 407 140 c 0
 410 143 412 146 412 149 c 0
 412 158 403 167 397 167 c 0
 396 167 395 167 394 166 c 0
 362 144 328 133 297 133 c 0
 237 133 188 173 188 239 c 1
 204 237 218 237 232 237 c 0
 344 237 402 288 402 348 c 0
 402 390 376 447 300 447 c 0
 220 447 133 392 133 259 c 0
EndSplineSet
EndChar

StartChar: eth
Encoding: 240 240 259
Width: 383
VWidth: 0
Flags: HW
LayerCount: 2
Fore
SplineSet
187 78 m 0
 143 83 114 101 114 143 c 0
 114 187 167 241 226 241 c 0
 227 241 227 241 228 241 c 0
 255 241 268 237 283 233 c 1
 262 190 241 78 191 78 c 0
 190 78 188 78 187 78 c 0
22 142 m 0
 22 51 89 0 181 -0 c 0
 319 0 399 169 402 328 c 0
 402 368 394 408 383 442 c 1
 408 452 l 2
 428 461 444 472 444 494 c 0
 444 518 431 538 411 538 c 0
 401 538 394 534 388 532 c 2
 346 515 l 1
 319 554 278 605 181 605 c 0
 152 605 118 594 118 557 c 0
 118 536 128 509 148 509 c 0
 208 509 233 492 250 474 c 1
 207 457 l 2
 192 449 180 442 180 423 c 0
 180 400 197 377 220 377 c 0
 227 377 233 378 239 381 c 0
 273 395 254 388 288 402 c 1
 292 378 293 355 293 339 c 1
 270 338 249 339 220 338 c 0
 135 337 22 248 22 142 c 0
EndSplineSet
EndChar

StartChar: exclam
Encoding: 33 33 261
Width: 363
VWidth: 0
Flags: HW
LayerCount: 2
Fore
SplineSet
208 0 m 0
 255 0 283 32 283 78 c 0
 283 121 258 143 214 143 c 0
 167 143 140 113 140 67 c 0
 140 24 164 0 208 0 c 0
429 608 m 0
 429 634 412 654 375 654 c 0
 345 654 324 632 317 602 c 2
 233 262 l 2
 232 259 232 256 232 254 c 0
 232 241 241 233 251 233 c 0
 259 233 268 238 274 250 c 2
 408 536 l 2
 421 564 429 589 429 608 c 0
EndSplineSet
EndChar

StartChar: f
Encoding: 102 102 263
Width: 260
VWidth: 0
Flags: HW
PickledData: "(dp1
S'com.typemytype.robofont.layerData'
p2
(dp3
s."
AnchorPoint: "top" 289 620 basechar 0
LayerCount: 2
Fore
SplineSet
135 241 m 1
 139 243 181 525 253 525 c 0
 261 525 263 513 263 494 c 0
 263 403 145 253 135 241 c 1
112 -185 m 0
 102 -185 100 -126 100 -79 c 0
 100 -21 110 102 110 167 c 0
 110 170 110 172 110 175 c 1
 139 125 156 -3 156 -91 c 0
 156 -97 157 -106 157 -117 c 0
 157 -144 152 -185 112 -185 c 0
99 -261 m 0
 190 -228 230 -130 230 -64 c 0
 230 -4 215 88 202 134 c 1
 266 150 352 141 352 211 c 0
 352 227.370294193 344.581687697 243.740588385 335.995648959 244.930887931 c 1
 337.196989131 245.026705898 339.384760982 245.730951471 342 249 c 1
 280 221 259 208 198 208 c 0
 187 208 184 205 177 204 c 1
 212 252 336 401 336 541 c 0
 336 590 310 620 264 620 c 0
 68 620 12 102 12 -90 c 0
 12 -165 18 -265 78 -265 c 0
 84 -265 91 -263 99 -261 c 0
EndSplineSet
EndChar

StartChar: f_f
Encoding: 65537 -1 264
Width: 511
VWidth: 0
Flags: HW
LayerCount: 2
Fore
SplineSet
353 247 m 1
 359 249 418 499 489 499 c 0
 500 499 504 494 504 483 c 0
 504 429 408 290 353 247 c 1
354 -65 m 0
 342 -65 337 32 337 105 c 0
 337 131 337 137 337 141 c 0
 337 145 337 145 336 163 c 1
 341 160 l 1
 365 106 378 27 378 -15 c 0
 378 -46 371 -65 354 -65 c 0
111 -118 m 0
 105 -118 101 -58 101 -12 c 0
 101 47 107 105 109 162 c 1
 131 115 146 56 146 -16 c 0
 146 -54 145 -118 111 -118 c 0
96 -214 m 0
 191 -214 229 -101 229 -43 c 0
 229 19 209 79 196 131 c 1
 222 138 242 142 267 148 c 1
 265 123 265 96 265 70 c 0
 265 52 265 35 265 18 c 0
 265 -66 278 -160 354 -160 c 0
 441 -160 457 -79 457 -27 c 0
 457 39 435 93 416 137 c 1
 492 144 595 153 595 247 c 0
 595 268 588 277 577 277 c 1
 577 278.874983505 576.609381873 280.74996701 576.560548144 281.648413787 c 1
 526.707040669 241.760118199 476.856445732 201.000000001 428 201 c 0
 417 201 405 203 394 208 c 1
 465 288 580 393 580 504 c 0
 580 554 552 589 505 589 c 0
 371 589 303 390 273 219 c 1
 257 212 225 200 195 200 c 0
 185 200 175 201 166 205 c 1
 234 286 347 427 347 555 c 0
 347 607 321 640 274 640 c 0
 79 640 12 179 12 -13 c 0
 12 -95 21 -214 96 -214 c 0
130.504240154 228.393401973 m 0
 145.190920857 270.623718448 195.838638903 550 267 550 c 0
 276 550 279 538 279 520 c 0
 279 446.16779412 190.403155289 298.670796007 133.388232639 226.490947944 c 0
 132.640351661 227.076077271 131.367870847 228.021378599 130.504240154 228.393401973 c 0
576.560548144 281.648413787 m 1
 576.531247231 282.187494501 576.624994482 282.375005497 577 282 c 1
 576.853516033 281.882812826 576.707032066 281.76561707 576.560548144 281.648413787 c 1
EndSplineSet
Ligature2: "'liga' Standard Ligatures lookup 10 subtable" f f
EndChar

StartChar: fi
Encoding: 64257 64257 268
Width: 441
VWidth: 0
Flags: HW
LayerCount: 2
Fore
SplineSet
139 301 m 1
 163 448 204 551 236 551 c 0
 246 551 247 535 247 520 c 0
 247 491 170 380 139 301 c 1
425 383 m 0
 469 383 500 409 500 456 c 0
 500 499 471 514 433 514 c 0
 390 514 354 488 354 446 c 0
 354 404 383 383 425 383 c 0
120 -126 m 0
 110 -126 101 -67 100 -15 c 2
 100 -15 99 -8 99 5 c 0
 99 48 102 143 122 143 c 0
 123 146 124 147 125 147 c 0
 134 147 150 64 150 6 c 0
 150 -1 149 -7 149 -13 c 0
 145 -41 151 -126 120 -126 c 0
165 210 m 1
 245 314 319 383 319 563 c 0
 319 612 294 641 245 641 c 0
 86 641 15 238 15 -7 c 0
 15 -90 26 -208 113 -208 c 0
 199 -208 230 -121 236 -21 c 0
 236 -17 236 -13 236 -9 c 0
 236 41 220 87 201 126 c 1
 228 131 253 137 279 139 c 1
 275 128 273 117 273 104 c 0
 273 50 309 -11 370 -11 c 0
 437 -11 492 32 526 62 c 0
 546 78 554 96 554 111 c 0
 554 133 539 149 521 149 c 0
 514 149 507 147 500 141 c 0
 447 85 429 70 386 70 c 0
 378 70 370 84 370 99 c 0
 370 174 405 250 431 301 c 0
 432 303 432 305 432 307 c 0
 432 321 415 336 401 336 c 0
 373 336 339 325 330 301 c 0
 322 276 315 263 306 241 c 1
 278 223 225 210 179 210 c 0
 174 210 169 210 165 210 c 1
EndSplineSet
Ligature2: "'liga' Standard Ligatures lookup 10 subtable" f i
EndChar

StartChar: firsttonechinese
Encoding: 713 713 269
Width: 205
VWidth: 0
Flags: HW
LayerCount: 2
Fore
SplineSet
220 605 m 0
 239 605 248 615 248 635 c 0
 248 655 232 663 218 669 c 0
 172 682 108 687 54 687 c 0
 27 687 2 686 -17 683 c 0
 -58 677 -66 653 -66 635 c 0
 -66 633 -66 631 -66 629 c 0
 -66 613 -53 596 -35 596 c 0
 -32 596 -29 596 -26 597 c 0
 18 607 70 611 118 611 c 0
 149 611 179 609 204 606 c 0
 210 605 216 605 220 605 c 0
EndSplineSet
EndChar

StartChar: five
Encoding: 53 53 270
Width: 430
VWidth: 0
Flags: HW
LayerCount: 2
Fore
SplineSet
72 104 m 0
 72 27 138 -8 240 -8 c 0
 320 -8 410 35 410 145 c 0
 410 264 330 306 252 306 c 0
 235 306 219 304 204 301 c 1
 232 377 l 2
 236 377 241 377 245 377 c 0
 294 377 334 370 365 370 c 0
 404 370 427 381 433 431 c 0
 434 438 434 444 434 450 c 0
 434 482 423 491 414 491 c 0
 410 491 408 489 406 487 c 0
 392 467 376 460 358 460 c 0
 324 460 281 485 224 485 c 0
 123 485 179 414 119 304 c 0
 112 289 108 275 108 264 c 0
 108 244 119 231 138 231 c 0
 141 231 144 231 147 232 c 0
 165 235 182 237 197 237 c 0
 268 237 312 202 312 146 c 0
 312 95 267 73 226 73 c 0
 178 74 162 88 149 110 c 1
 141 115 138 125 138 138 c 0
 138 158 124 164 126 166 c 1
 105 166 72 152 72 104 c 0
EndSplineSet
EndChar

StartChar: florin
Encoding: 402 402 271
Width: 449
VWidth: 0
Flags: HW
LayerCount: 2
Fore
SplineSet
189 -52 m 0
 349 -52 364 200 386 284 c 1
 479 284 l 2
 503 284 521 302 521 328 c 0
 521 355 505 371 479 371 c 2
 400 371 l 1
 409 423 426 532 485 532 c 0
 503 532 520 508 546 508 c 0
 575 508 593 542 593 568 c 0
 593 614 537 630 497 630 c 0
 349 630 313 492 300 371 c 1
 285 372 270 373 254 373 c 0
 224 373 197 365 197 328 c 0
 197 301 212 284 238 284 c 2
 287 284 l 1
 280 228 284 249 276 206 c 0
 269 157 254 46 194 46 c 0
 186 46 176 69 157 69 c 0
 129 69 110 36 110 10 c 0
 110 -33 153 -52 189 -52 c 0
EndSplineSet
EndChar

StartChar: four
Encoding: 52 52 273
Width: 417
VWidth: 0
Flags: HW
LayerCount: 2
Fore
SplineSet
254 -21 m 0
 280 -21 295 -18 307 32 c 2
 315 61 l 1
 322 61 359 63 367 63 c 0
 393 64 406 88 406 110 c 0
 406 127 398 142 381 142 c 2
 380 142 l 1
 380 142 348 143 333 143 c 1
 341 180 363 265 369 289 c 0
 369 291 370 293 370 295 c 0
 370 312 349 316 333 316 c 0
 305 316 290 302 282 277 c 0
 275.279598675 254.918681361 251.046705812 172.92620746 242.92731315 141.634393479 c 1
 239.074011474 144.282935946 225.39553779 144.999999982 211 145 c 0
 189 145 167 143 167 143 c 1
 204 261 233 357 257 440 c 0
 258 443 258 446 258 449 c 0
 258 468 237 478 216 478 c 0
 198 478 179 471 174 455 c 0
 148 378 91 210 69 132 c 0
 65 117 63 105 63 95 c 0
 63 71 76 62 97 61 c 2
 97 61 202 60 225 60 c 1
 218 30 l 2
 217 22 216 15 216 9 c 0
 216 -8 223 -20 254 -21 c 0
EndSplineSet
Substitution2: "'sups' Superscript lookup 5 subtable" foursuperior
EndChar

StartChar: fraction
Encoding: 8260 8260 275
Width: 265
VWidth: 0
Flags: HW
LayerCount: 2
Fore
SplineSet
93 -29 m 2
 349 575 l 2
 351 580 352 586 352 591 c 0
 352 613 333 631 312 631 c 0
 298 631 283 622 274 601 c 2
 18 15 l 2
 15 9 14 4 14 -2 c 0
 14 -28 41 -49 64 -49 c 0
 76 -49 88 -43 93 -29 c 2
EndSplineSet
EndChar

StartChar: g
Encoding: 103 103 276
Width: 345
VWidth: 0
Flags: HW
PickledData: "(dp1
S'com.typemytype.robofont.layerData'
p2
(dp3
s."
AnchorPoint: "top" 257 343 basechar 0
LayerCount: 2
Fore
SplineSet
80 -255 m 0
 65 -255 61 -247 61 -237 c 0
 61 -183 111 -150 204 -79 c 1
 197 -123 148 -255 80 -255 c 0
150 72 m 0
 126 72 121 91 121 112 c 0
 121 160 183 247 260 253 c 1
 237 164 l 2
 228 133 209 72 150 72 c 0
25 97 m 0
 25 40 61 -5 129 -5 c 0
 168 -5 201 13 219 35 c 1
 212 -5 l 1
 97 -73 -19 -158 -19 -248 c 0
 -19 -300 14 -328 66 -328 c 0
 194 -328 244 -188 278 -41 c 1
 347 4 396 20 445 47 c 0
 463 56 470 68 470 79 c 0
 470 97 451 114 431 114 c 0
 428 114 424 114 421 113 c 2
 421 113 421 113 420 113 c 0
 400 113 335 76 292 39 c 1
 346 264 l 2
 347 267 347 270 347 272 c 0
 347 292 330 309 304 309 c 0
 296 309 288 307 279 304 c 1
 279 304 277 327 248 328 c 0
 246 328 245 328 243 328 c 0
 132 328 25 224 25 97 c 0
EndSplineSet
EndChar

StartChar: germandbls
Encoding: 223 223 283
Width: 438
VWidth: 0
Flags: HW
LayerCount: 2
Fore
SplineSet
249 71 m 0
 227 71 184 82 170 82 c 0
 158 82 154 79 152 74 c 0
 149 63 145 50 145 39 c 0
 145 19 160 2 234 -5 c 0
 243 -6 252 -7 261 -7 c 0
 355 -7 437 51 437 155 c 0
 437 240 371 291 294 291 c 1
 379 296 448 334 448 424 c 0
 448 507 370 552 285 552 c 0
 256 552 229 548 207 539 c 0
 36 469 16 209 16 -23 c 0
 16 -48 41 -60 65 -60 c 0
 95 -60 119 -44 119 -13 c 0
 119 10 119 31 119 54 c 0
 119 221 122 474 286 474 c 0
 326 474 359 458 359 421 c 0
 359 360 319 340 256 340 c 0
 221 340 215 328 215 289 c 0
 215 267 227 256 243 250 c 0
 302 222 347 242 347 167 c 0
 347 105 304 71 249 71 c 0
EndSplineSet
EndChar

StartChar: grave
Encoding: 96 96 284
Width: 208
VWidth: 0
Flags: HW
PickledData: "(dp1
S'com.typemytype.robofont.layerData'
p2
(dp3
s."
AnchorPoint: "top" 117 343 mark 0
LayerCount: 2
Fore
SplineSet
116 403 m 0
 127 403 135 410 135 420 c 0
 135 426 132 433 125 442 c 0
 110 461 44 555 31 573 c 0
 20 588 7 594 -6 594 c 0
 -30 594 -52 572 -52 549 c 0
 -52 539 -47 528 -37 519 c 0
 -22 506 74 429 97 410 c 0
 103 405 109 403 116 403 c 0
EndSplineSet
EndChar

StartChar: greater
Encoding: 62 62 285
Width: 404
VWidth: 0
Flags: HW
LayerCount: 2
Fore
SplineSet
135 50 m 2
 310 115 l 2
 375 139 388 149 388 198 c 0
 388 262 343 272 317 282 c 2
 114 362 l 2
 102 367 93 369 84 369 c 0
 53 369 41 342 41 304 c 0
 41 281 56 274 70 270 c 2
 275 205 l 1
 85 138 l 2
 65 131 43 120 43 94 c 0
 43 85 46 74 52 61 c 0
 59 48 70 40 89 40 c 0
 101 40 116 43 135 50 c 2
EndSplineSet
EndChar

StartChar: greaterequal
Encoding: 8805 8805 286
Width: 579
VWidth: 0
Flags: HW
LayerCount: 2
Fore
SplineSet
203 57 m 2
 167 57 145 52 145 14 c 0
 145 -8 160 -19 188 -19 c 2
 424 -19 l 2
 461 -19 473 -8 473 15 c 0
 473 48 456 57 430 57 c 2
 203 57 l 2
EndSplineSet
Refer: 285 62 N 1 0 0 1 111 58 2
EndChar

StartChar: guillemotleft
Encoding: 171 171 287
Width: 566
VWidth: 0
Flags: HW
LayerCount: 2
Fore
SplineSet
465 28 m 2
 472 22 481 19 489 19 c 0
 513 19 539 42 539 65 c 0
 539 74 535 84 525 92 c 2
 420 185 l 1
 524 259 l 2
 539 269 545 282 545 295 c 0
 545 317 527 337 503 337 c 0
 494 337 483 334 473 327 c 2
 340 237 l 2
 324 226 317 204 317 182 c 0
 317 159 332 141 348 127 c 2
 465 28 l 2
244 28 m 2
 251 22 260 19 268 19 c 0
 292 19 318 42 318 65 c 0
 318 74 314 84 304 92 c 2
 199 185 l 1
 303 259 l 2
 318 269 324 282 324 295 c 0
 324 317 306 337 282 337 c 0
 273 337 262 334 252 327 c 2
 119 237 l 2
 103 226 96 204 96 182 c 0
 96 159 111 141 127 127 c 2
 244 28 l 2
EndSplineSet
EndChar

StartChar: guillemotright
Encoding: 187 187 288
Width: 594
VWidth: 0
Flags: HW
LayerCount: 2
Fore
SplineSet
354 187 m 0
 354 207 348 227 334 237 c 2
 205 327 l 2
 195 334 185 337 176 337 c 0
 152 337 132 316 132 294 c 0
 132 282 138 269 151 259 c 2
 251 185 l 1
 141 92 l 2
 130 83 126 73 126 63 c 0
 126 40 149 19 173 19 c 0
 181 19 190 22 198 28 c 2
 320 127 l 2
 338 142 354 160 354 187 c 0
575 187 m 0
 575 207 569 227 555 237 c 2
 426 327 l 2
 416 334 406 337 397 337 c 0
 373 337 353 316 353 294 c 0
 353 282 359 269 372 259 c 2
 472 185 l 1
 362 92 l 2
 351 83 347 73 347 63 c 0
 347 40 370 19 394 19 c 0
 402 19 411 22 419 28 c 2
 541 127 l 2
 559 142 575 160 575 187 c 0
EndSplineSet
EndChar

StartChar: guilsinglleft
Encoding: 8249 8249 289
Width: 432
VWidth: 0
Flags: HW
LayerCount: 2
Fore
SplineSet
346 12 m 0
 370 12 392 34 392 64 c 0
 392 88 370 99 334 118 c 2
 180 200 l 1
 377 262 l 2
 402 270 414 281 414 301 c 0
 414 333 399 353 378 353 c 0
 369 353 357 350 342 346 c 2
 152 288 l 2
 115 277 88 248 88 193 c 0
 88 162 101 137 136 118 c 2
 310 23 l 2
 324 16 335 12 346 12 c 0
EndSplineSet
EndChar

StartChar: guilsinglright
Encoding: 8250 8250 290
Width: 456
VWidth: 0
Flags: HW
LayerCount: 2
Fore
SplineSet
193 353 m 0
 169 353 147 331 147 301 c 0
 147 277 169 266 205 247 c 2
 359 165 l 1
 162 103 l 2
 137 95 124 84 124 64 c 0
 124 32 140 12 161 12 c 0
 170 12 182 15 197 19 c 2
 387 77 l 2
 424 88 451 117 451 172 c 0
 451 203 438 228 403 247 c 2
 229 342 l 2
 215 349 204 353 193 353 c 0
EndSplineSet
EndChar

StartChar: h
Encoding: 104 104 291
Width: 391
VWidth: 0
Flags: HW
AnchorPoint: "mid" 152 482 basechar 0
AnchorPoint: "top" 345 687 basechar 0
LayerCount: 2
Fore
SplineSet
287 592 m 0
 300 592 306 585 306 572 c 0
 306 532 247 439 163 354 c 1
 172 394 219 592 287 592 c 0
39 72 m 0
 39 36 45 0 79 -0 c 0
 109 0 112 16 120 43 c 0
 136 103 236 225 263 225 c 0
 267 225 268 223 268 219 c 0
 268 194 215 104 215 50 c 0
 215 10 243 -7 280 -7 c 0
 334 -7 404 23 451 65 c 0
 468 80 475 95 474 109 c 0
 474 111 474 114 474 116 c 0
 474 143 466 157 452 157 c 0
 448 157 443 155 438 153 c 0
 431 150 334 77 315 77 c 0
 309 77 304 81 304 89 c 0
 304 110 357 197 383 281 c 0
 384 285 385 288 385 292 c 0
 385 318 357 332 323 332 c 0
 283 332 182 278 126 165 c 1
 154 284 l 1
 333 420 385 516 397 596 c 0
 397 599 397 602 397 605 c 0
 397 655 367 690 316 690 c 0
 139 690 57 314 42 119 c 0
 41 107 39 90 39 72 c 0
EndSplineSet
EndChar

StartChar: hungarumlaut
Encoding: 733 733 294
Width: 350
VWidth: 0
Flags: HW
AnchorPoint: "top" 151 343 mark 0
LayerCount: 2
Fore
SplineSet
268 364 m 0
 297 397 414 532 436 555 c 0
 447 567 451 579 451 591 c 0
 451 615 433 634 409 634 c 0
 393 634 373 625 356 601 c 0
 335 572 238 430 219 402 c 0
 214 396 212 390 212 384 c 0
 212 368 229 354 246 354 c 0
 254 354 262 357 268 364 c 0
95 380 m 0
 116 410 192 513 213 540 c 0
 227 558 232 575 232 588 c 0
 232 614 211 630 187 630 c 0
 169 630 149 621 138 600 c 0
 124 574 58 443 46 418 c 0
 43 411 41 405 41 399 c 0
 41 380 57 368 72 368 c 0
 80 368 89 372 95 380 c 0
EndSplineSet
EndChar

StartChar: hyphen
Encoding: 45 45 295
Width: 387
VWidth: 0
Flags: HW
AnchorPoint: "mid" 232 307 mark 0
LayerCount: 2
Fore
SplineSet
88 268 m 0
 88 247 103 225 123 225 c 0
 128 225 133 226 138 229 c 0
 203 261 246 280 353 308 c 0
 376 314 386 321 386 339 c 0
 386 366 365 373 346 373 c 0
 262 362 173 342 123 316 c 0
 95 298 88 281 88 268 c 0
EndSplineSet
EndChar

StartChar: i
Encoding: 105 105 296
Width: 205
VWidth: 0
Flags: HW
PickledData: "(dp1
S'com.typemytype.robofont.layerData'
p2
(dp3
s."
AnchorPoint: "ogonek" 0 0 basechar 0
LayerCount: 2
Fore
SplineSet
150 438 m 0
 150 400 172 382 215 382 c 0
 252 382 279 404 279 442 c 0
 279 486 254 500 218 500 c 0
 182 500 150 476 150 438 c 0
39 117 m 0
 39 43 79 -4 143 -4 c 0
 194 -4 256 25 306 85 c 0
 314 95 319 99 319 109 c 0
 319 136 300 149 281 149 c 0
 272 149 264 145 258 137 c 0
 218 91 186 71 164 71 c 0
 142 71 133 91 133 121 c 0
 133 176 158 238 181 282 c 0
 184 288 186 294 186 300 c 0
 186 318 168 331 141 331 c 0
 120 331 102 321 87 296 c 0
 60 251 39 174 39 117 c 0
EndSplineSet
EndChar

StartChar: infinity
Encoding: 8734 8734 307
Width: 695
VWidth: 0
Flags: HW
LayerCount: 2
Fore
SplineSet
592 243 m 0
 592 232 569 204 542 204 c 0
 513 204 466 232 462 238 c 1
 478 259 516 304 545 304 c 0
 574 304 592 280 592 243 c 0
225 245 m 0
 225 283 252 296 269 296 c 0
 308 295 342 269 359 240 c 1
 346 221 323 190 285 190 c 0
 282 190 280 190 277 190 c 0
 248 196 225 204 225 245 c 0
142 234 m 0
 142 144 192 106 270 106 c 0
 339 106 381 146 410 194 c 1
 448 145 478 102 539 102 c 0
 640 102 673 182 673 259 c 0
 673 336 626 392 557 392 c 0
 481 392 426 327 411 288 c 1
 377 339 339 387 267 387 c 0
 180 387 142 321 142 234 c 0
EndSplineSet
EndChar

StartChar: integral
Encoding: 8747 8747 308
Width: 470
VWidth: 0
Flags: HW
LayerCount: 2
Fore
SplineSet
181 -49 m 0
 342 -49 360 166 375 293 c 0
 393 428 406 537 475 537 c 0
 495 537 509 513 536 513 c 0
 562 513 580 546 580 572 c 0
 580 618 525 633 486 633 c 0
 333 633 306 488 281 296 c 0
 256 119 265 47 187 47 c 0
 177 47 165 71 149 71 c 0
 122 71 104 38 104 13 c 0
 104 -31 144 -49 181 -49 c 0
EndSplineSet
EndChar

StartChar: j
Encoding: 106 106 311
Width: 217
VWidth: 0
Flags: HW
LayerCount: 2
Fore
SplineSet
182 388 m 0
 219 388 243 411 243 447 c 0
 243 481 220 496 190 496 c 0
 154 496 125 475 125 438 c 0
 125 406 147 388 182 388 c 0
138 9 m 0
 138 -50 134 -138 104 -138 c 0
 88 -138 85 -116 85 -89 c 0
 85 -26 109 82 131 152 c 1
 134 112 138 59 138 9 c 0
-1 -84 m 0
 -1 -151 18 -209 98 -209 c 0
 188 -209 208 -107 208 6 c 0
 208 49 200 107 197 129 c 1
 200 129 202 129 205 129 c 0
 258 129 343 148 343 215 c 0
 343 230 337 242 326 242 c 0
 323 242 320 241 316 239 c 0
 239 208 206 213 147 194 c 1
 164 233 l 2
 172 250 186 278 186 302 c 0
 186 316 178 329 160 329 c 0
 101 329 87 314 71 277 c 0
 38 198 15 96 5 1 c 0
 2 -26 -1 -56 -1 -84 c 0
EndSplineSet
EndChar

StartChar: k
Encoding: 107 107 314
Width: 440
VWidth: 0
Flags: HW
AnchorPoint: "top" 331 653 basechar 0
LayerCount: 2
Fore
SplineSet
161 318 m 1
 171 394 227 564 283 564 c 0
 292 564 295 561 295 550 c 0
 295 465 240 426 161 318 c 1
249 79 m 0
 249 15 309 -9 340 -9 c 0
 412 -9 489 63 503 88 c 0
 507 93 508 99 508 105 c 0
 508 125 491 147 475 147 c 0
 468 147 460 143 455 132 c 0
 402 59 371 69 370 61 c 1
 359 59 350 58 343 58 c 0
 328 58 321 63 321 73 c 0
 321 75 321 78 322 81 c 0
 336 152 456 155 456 257 c 0
 456 293 433 318 392 318 c 0
 289 318 185 200 125 79 c 1
 125 86 138 188 143 206 c 1
 158 224 387 459 387 586 c 0
 387 633 362 663 310 663 c 0
 87 663 42 228 42 94 c 0
 42 78 43 66 44 60 c 2
 44 60 50 -5 87 -5 c 0
 196 -5 243 210 352 210 c 0
 358 210 353 207 353 206 c 0
 346 174 249 152 249 79 c 0
EndSplineSet
EndChar

StartChar: kgreenlandic
Encoding: 312 312 317
Width: 440
VWidth: 0
Flags: HW
LayerCount: 2
Fore
SplineSet
152 283 m 1
 165 352 184 396 208 396 c 0
 217 396 221 391 221 383 c 0
 221 361 192 317 152 283 c 1
249 79 m 0
 249 15 309 -9 340 -9 c 0
 412 -9 489 63 503 88 c 0
 507 93 508 99 508 105 c 0
 508 125 491 147 475 147 c 0
 468 147 460 143 455 132 c 0
 402 59 371 69 370 61 c 1
 359 59 350 58 343 58 c 0
 328 58 321 63 321 73 c 0
 321 75 321 78 322 81 c 0
 336 152 456 155 456 257 c 0
 456 293 433 318 392 318 c 0
 289 318 185 200 125 79 c 1
 125 86 138 188 143 206 c 1
 246 276 285 346 285 396 c 0
 285 438 257 470 212 470 c 0
 105 470 43 244 43 91 c 0
 43 80 43 70 44 60 c 1
 44 60 50 -5 87 -5 c 0
 196 -5 243 210 352 210 c 0
 358 210 353 207 353 206 c 0
 346 174 249 152 249 79 c 0
EndSplineSet
EndChar

StartChar: l
Encoding: 108 108 318
Width: 247
VWidth: 0
Flags: HW
AnchorPoint: "mid" 149 404 basechar 0
AnchorPoint: "caron.alt" 436 406 basechar 0
AnchorPoint: "top" 349 623 basechar 0
LayerCount: 2
Fore
SplineSet
303 539 m 0
 302 486 228 341 160 260 c 1
 177 369 233 558 290 558 c 0
 299 558 303 551 303 539 c 0
174 -5 m 0
 232 -5 282 18 338 82 c 0
 348 92 352 103 352 112 c 0
 352 132 333 148 315 148 c 0
 307 148 300 145 294 138 c 0
 260 99 225 72 189 72 c 0
 155 72 147 115 147 148 c 0
 147 157 148 166 149 172 c 1
 269 268 391 471 391 580 c 0
 391 626 371 655 320 655 c 0
 166 655 75 355 57 181 c 0
 56 172 56 163 56 155 c 0
 56 61 101 -5 174 -5 c 0
EndSplineSet
EndChar

StartChar: less
Encoding: 60 60 323
Width: 404
VWidth: 0
Flags: HW
LayerCount: 2
Fore
SplineSet
344 138 m 2
 154 205 l 1
 359 270 l 2
 373 274 388 281 388 304 c 0
 388 342 376 369 345 369 c 0
 336 369 327 367 315 362 c 2
 112 282 l 2
 86 272 41 262 41 198 c 0
 41 149 54 139 119 115 c 2
 294 50 l 2
 313 43 328 40 340 40 c 0
 359 40 370 48 377 61 c 0
 383 74 386 85 386 94 c 0
 386 120 364 131 344 138 c 2
EndSplineSet
EndChar

StartChar: lessequal
Encoding: 8804 8804 324
Width: 526
VWidth: 0
Flags: HW
LayerCount: 2
Fore
SplineSet
193 45 m 2
 162 45 140 41 140 -3 c 0
 140 -31 152 -38 194 -38 c 2
 405 -36 l 2
 448 -36 461 -23 461 4 c 0
 461 36 451 45 415 45 c 2
 193 45 l 2
EndSplineSet
Refer: 323 60 N 1 0 0 1 98 44 2
EndChar

StartChar: logicalnot
Encoding: 172 172 326
Width: 416
VWidth: 0
Flags: HW
LayerCount: 2
Fore
SplineSet
312 70 m 0
 339 70 350 96 352 121 c 2
 359 236 l 2
 359 256 342 268 321 268 c 2
 105 268 l 2
 79 268 53 255 53 228 c 0
 53 204 76 192 100 192 c 2
 281 192 l 1
 278 148 277 126 276 115 c 0
 276 91 287 70 312 70 c 0
EndSplineSet
EndChar

StartChar: lozenge
Encoding: 9674 9674 327
Width: 530
VWidth: 0
Flags: HW
LayerCount: 2
Fore
SplineSet
237 253 m 1
 273 310 311 365 340 409 c 1
 399 248 l 1
 361 191 330 133 304 89 c 1
 237 253 l 1
402 476 m 2
 394 496 374 511 352 511 c 0
 336 511 320 503 307 484 c 0
 249 396 201 328 152 253 c 1
 242 28 l 2
 250 8 270 -7 291 -7 c 0
 307 -7 323 1 336 21 c 0
 394 110 439 173 489 248 c 1
 402 476 l 2
EndSplineSet
EndChar

StartChar: m
Encoding: 109 109 329
Width: 489
VWidth: 0
Flags: HW
PickledData: "(dp1
S'com.typemytype.robofont.layerData'
p2
(dp3
s."
AnchorPoint: "top" 336 343 basechar 0
LayerCount: 2
Fore
SplineSet
400 239 m 1
 361 153 357 109 357 72 c 0
 357 34 376 -2 432 -2 c 0
 491 -2 561 41 604 100 c 0
 605 101 605 103 605 104 c 0
 605 116 584 137 568 137 c 0
 563 137 559 135 556 131 c 0
 523 91 497 69 474 62 c 0
 469 60 464 60 460 60 c 0
 440 60 434 77 434 100 c 0
 434 155 462 227 482 298 c 0
 483 300 483 302 483 304 c 0
 483 319 467 333 441 333 c 0
 406 333 347 304 279 152 c 1
 290 208 308 271 308 300 c 0
 308 323 282 335 265 335 c 0
 230 335 172 287 114 143 c 1
 114 186 136 274 143 297 c 0
 144 299 144 302 144 304 c 0
 144 320 129 330 113 330 c 0
 112 330 112 330 111 330 c 0
 88 330 76 310 73 303 c 0
 50 237 35 156 35 103 c 0
 35 93 36 85 37 77 c 0
 38 34 47 0 87 -0 c 0
 106 0 122 8 145 55 c 0
 182 132 193 165 243 233 c 1
 212 136 207 88 206 71 c 0
 206 65 205 59 205 53 c 0
 205 24 216 2 253 2 c 0
 268 2 280 11 290 29 c 0
 325 102 353 177 400 239 c 1
EndSplineSet
EndChar

StartChar: macron
Encoding: 175 175 330
Width: 205
VWidth: 0
Flags: HW
AnchorPoint: "top" 96 343 mark 0
AnchorPoint: "mid" 88 478 mark 0
LayerCount: 2
Fore
SplineSet
214 435 m 0
 247 435 258 437 258 464 c 0
 258 484 242 492 228 498 c 0
 197 510 135 517 75 517 c 0
 46 517 17 516 -7 512 c 0
 -48 506 -56 482 -56 464 c 0
 -56 462 -56 460 -56 458 c 0
 -56 442 -43 425 -25 425 c 0
 -22 425 -19 425 -16 426 c 0
 22 435 69 437 113 437 c 0
 151 437 187 435 214 435 c 0
EndSplineSet
EndChar

StartChar: minus
Encoding: 8722 8722 332
Width: 416
VWidth: 0
Flags: HW
LayerCount: 2
Fore
SplineSet
107 193 m 2
 313 193 l 2
 340 193 354 209 354 236 c 0
 354 255 338 267 317 267 c 2
 113 267 l 2
 88 267 61 254 61 228 c 0
 61 205 84 193 107 193 c 2
EndSplineSet
EndChar

StartChar: mu
Encoding: 956 956 333
Width: 347
VWidth: 0
Flags: HW
LayerCount: 2
Fore
SplineSet
119 75 m 0
 100 75 95 91 95 117 c 0
 95 120 95 122 95 125 c 0
 101 212 149 296 149 301 c 0
 149 302 148 301 147 299 c 1
 148 317 129 331 106 331 c 0
 89 331 76 325 66 311 c 1
 64 314 40 265 23 194 c 2
 -59 -103 l 2
 -60 -108 -61 -113 -61 -118 c 0
 -61 -143 -45 -158 -27 -158 c 0
 -8 -158 14 -141 25 -100 c 2
 54 5 l 1
 67 0 81 -4 98 -4 c 0
 168 -4 212 73 216 98 c 2
 216 98 212 55 211 59 c 1
 211 11 229 -4 269 -4 c 0
 323 -4 421 51 447 101 c 1
 445 115 413 139 396 139 c 0
 389 139 392 136 383 132 c 0
 375 126 333 82 305 80 c 0
 301 80 297 81 299 99 c 0
 309 184 340 267 340 297 c 0
 340 316 319 332 300 332 c 0
 270 332 261 328 244 276 c 2
 221 191 l 2
 199 120 151 75 119 75 c 0
EndSplineSet
EndChar

StartChar: multiply
Encoding: 215 215 334
Width: 438
VWidth: 0
Flags: HW
LayerCount: 2
Fore
SplineSet
321 54 m 0
 340 54 354 67 354 86 c 0
 354 102 346 114 336 124 c 2
 289 175 l 1
 338 227 l 2
 345 236 352 246 352 260 c 0
 352 280 338 298 318 298 c 0
 307 298 298 291 290 285 c 2
 236 224 l 1
 180 284 l 2
 171 294 162 297 152 297 c 0
 132 297 119 279 119 259 c 0
 119 245 125 234 132 227 c 2
 184 175 l 1
 134 125 l 2
 124 116 116 103 116 87 c 0
 116 68 130 54 149 54 c 0
 165 54 177 63 186 73 c 2
 236 126 l 1
 286 71 l 2
 294 60 306 54 321 54 c 0
EndSplineSet
EndChar

StartChar: n
Encoding: 110 110 335
Width: 338
VWidth: 0
Flags: HW
PickledData: "(dp1
S'com.typemytype.robofont.layerData'
p2
(dp3
s."
AnchorPoint: "top" 257 343 basechar 0
LayerCount: 2
Fore
SplineSet
204 57 m 0
 204 15 229 -2 268 -2 c 0
 321 -2 384 35 426 70 c 0
 433 76 436 86 436 96 c 0
 436 115 425 136 409 136 c 0
 404 136 399 134 393 129 c 0
 358 99 329 82 314 82 c 0
 305 82 300 88 301 103 c 0
 308 169 355 237 355 290 c 0
 355 322 334 334 309 334 c 0
 306 334 302 333 299 333 c 0
 245 328 175 274 113 166 c 1
 124 216 141 266 150 289 c 0
 152 294 153 298 153 302 c 0
 153 321 137 332 115 332 c 0
 89 332 77 315 68 292 c 0
 43 230 25 152 24 82 c 0
 24 46 29 -2 68 -2 c 0
 93 -2 103 8 115 41 c 0
 153 148 206 206 235 216 c 0
 236 216 236 216 237 216 c 0
 239 216 241 215 241 211 c 0
 241 190 204 114 204 57 c 0
EndSplineSet
EndChar

StartChar: nine
Encoding: 57 57 340
Width: 417
VWidth: 0
Flags: HW
LayerCount: 2
Fore
SplineSet
292 231 m 0
 292 171 269 138 208 138 c 0
 204 138 201 138 197 138 c 0
 156 140 133 181 133 224 c 0
 133 271 161 319 221 319 c 0
 226 319 232 319 238 318 c 0
 282 312 292 267 292 231 c 0
242 398 m 0
 232 399 222 400 212 400 c 0
 105 400 37 321 37 210 c 0
 37 108 115 63 188 63 c 0
 222 63 255 73 279 91 c 1
 229 -5 146 -38 78 -70 c 0
 54 -80 44 -95 44 -109 c 0
 44 -128 63 -145 91 -145 c 0
 100 -145 110 -143 121 -139 c 0
 260 -82 389 20 389 217 c 0
 389 339 326 388 242 398 c 0
EndSplineSet
EndChar

StartChar: numbersign
Encoding: 35 35 344
Width: 577
VWidth: 0
Flags: HW
LayerCount: 2
Fore
SplineSet
318 235 m 1
 355 322 l 1
 446 322 l 1
 413 235 l 1
 318 235 l 1
440 532 m 0
 440 553 426 560 407 560 c 0
 377 560 354 539 340 507 c 2
 298 409 l 1
 233 409 201 409 195 364 c 0
 195 362 195 360 195 358 c 0
 195 330 224 323 264 322 c 1
 224 234 l 1
 168 233 141 231 134 191 c 0
 134 188 133 186 133 184 c 0
 133 162 155 154 189 152 c 1
 143 49 l 2
 139 39 137 30 137 23 c 0
 137 -1 155 -13 171 -13 c 0
 197 -13 213 -4 224 20 c 2
 284 151 l 1
 379 150 l 1
 336 36 l 2
 334 30 333 24 333 19 c 0
 333 2 345 -12 370 -12 c 0
 401 -12 410 2 421 31 c 2
 464 150 l 1
 480 150 l 2
 527 150 563 162 563 209 c 0
 563 229 548 235 530 236 c 2
 498 236 l 1
 529 322 l 1
 587 323 633 333 633 382 c 0
 633 402 618 409 601 409 c 2
 556 409 l 1
 594 506 l 2
 598 517 600 526 600 534 c 0
 600 553 590 560 570 560 c 0
 543 560 525 546 510 509 c 2
 470 409 l 1
 392 409 l 1
 435 511 l 2
 438 519 440 526 440 532 c 0
EndSplineSet
EndChar

StartChar: o
Encoding: 111 111 345
Width: 346
VWidth: 0
Flags: HW
PickledData: "(dp1
S'com.typemytype.robofont.layerData'
p2
(dp3
s."
AnchorPoint: "top" 257 343 basechar 0
AnchorPoint: "ogonek" 175 15 basechar 0
LayerCount: 2
Fore
SplineSet
182 66 m 0
 144 66 126 99 126 139 c 0
 126 192 159 256 217 256 c 2
 218 256 l 2
 229 256 236 253 236 253 c 1
 216 228 206 203 206 182 c 0
 206 158 219 138 246 128 c 1
 241 99 223 66 182 66 c 0
44 126 m 0
 44 49 98 -6 174 -6 c 0
 264 -6 299 63 317 110 c 1
 399 137 440 167 462 196 c 0
 464 199 465 203 465 207 c 0
 465 223 450 243 435 243 c 0
 430 243 425 241 421 237 c 0
 404 220 368 194 328 180 c 1
 330 191 331 202 331 212 c 0
 331 278 291 330 222 330 c 0
 119 330 44 234 44 126 c 0
EndSplineSet
Substitution2: "Single Substitution lookup 9 subtable" ordmasculine
EndChar

StartChar: oe
Encoding: 339 339 352
Width: 471
VWidth: 0
Flags: HW
LayerCount: 2
Fore
SplineSet
278 146 m 1
 278 202 324 251 366 251 c 0
 380 251 390 248 390 231 c 0
 390 198 311 166 278 146 c 1
103 131 m 0
 109 187 113 248 158 248 c 0
 190 248 188 199 188 188 c 0
 188 116 162 78 133 77 c 0
 115 80 102 96 102 121 c 0
 102 124 103 127 103 131 c 0
209 41 m 1
 237 6 290 -6 332 -6 c 0
 414 -6 492 42 525 86 c 0
 531 94 533 102 533 109 c 0
 533 126 518 139 503 139 c 0
 497 139 491 137 486 132 c 0
 446 95 388 73 344 73 c 0
 317 73 295 81 285 99 c 1
 403 130 460 160 460 239 c 0
 460 296 417 329 362 329 c 0
 314 329 274 303 244 268 c 1
 224 301 199 326 156 326 c 0
 106 326 20 278 10 151 c 0
 9 142 9 133 9 125 c 0
 9 42 50 2 122 2 c 0
 156 2 184 22 209 41 c 1
EndSplineSet
EndChar

StartChar: ogonek
Encoding: 731 731 353
Width: 183
VWidth: 0
Flags: HW
PickledData: "(dp1
S'com.typemytype.robofont.layerData'
p2
(dp3
s."
AnchorPoint: "ogonek" 127 0 mark 0
LayerCount: 2
Fore
SplineSet
40 -94 m 0
 40 -140 61 -157 99 -157 c 0
 123 -157 164 -153 193 -130 c 0
 200 -124 200 -108 200 -98 c 0
 200 -88 195 -70 189 -70 c 0
 188 -70 187 -70 186 -71 c 0
 157 -90 137 -91 131 -92 c 0
 115 -90 109 -85 109 -72 c 0
 109 -36 149 3 156 11 c 1
 134 11 l 1
 75 -15 40 -47 40 -94 c 0
EndSplineSet
EndChar

StartChar: one
Encoding: 49 49 358
Width: 333
VWidth: 0
Flags: HW
LayerCount: 2
Fore
SplineSet
235 12 m 0
 271 170 316 417 322 448 c 0
 323 455 324 461 324 467 c 0
 324 482 320 492 308 492 c 0
 307 492 305 492 303 492 c 0
 268 485 157 465 129 456 c 0
 118 453 113 434 113 415 c 0
 113 394 119 372 131 372 c 0
 132 372 133 372 134 372 c 0
 147 375 202 391 218 397 c 1
 198 312 169 181 137 22 c 0
 137 20 136 18 136 16 c 0
 136 -6 160 -16 184 -16 c 0
 208 -16 232 -6 235 12 c 0
EndSplineSet
Substitution2: "'sups' Superscript lookup 5 subtable" onesuperior
EndChar

StartChar: onehalf
Encoding: 189 189 359
Width: 1017
VWidth: 0
Flags: HW
LayerCount: 2
Fore
SplineSet
235 217 m 0
 271 375 316 622 322 653 c 0
 323 660 324 666 324 672 c 0
 324 687 320 697 308 697 c 0
 307 697 305 697 303 697 c 0
 268 690 157 670 129 662 c 0
 118 658 113 639 113 620 c 0
 113 598 119 577 131 577 c 0
 145 577 201 596 218 602 c 1
 198 517 169 386 137 228 c 0
 137 226 136 224 136 222 c 0
 136 200 159 190 183 190 c 0
 207 190 232 200 235 217 c 0
406 -29 m 2
 660 575 l 2
 662 580 664 586 664 591 c 0
 664 613 644 631 623 631 c 0
 609 631 594 622 585 601 c 2
 331 15 l 2
 328 9 327 3 327 -3 c 0
 327 -29 353 -49 376 -49 c 0
 388 -49 400 -43 406 -29 c 2
737 78 m 0
 723 78 711 85 711 96 c 0
 711 105 717 110 730 110 c 0
 733 110 735 110 739 110 c 0
 755 110 780 109 791 102 c 1
 769 85 747 78 737 78 c 0
747 355 m 0
 747 395 794 425 828 425 c 0
 879 425 905 382 905 302 c 0
 905 294 905 285 904 276 c 0
 896 250 890 196 841 151 c 1
 808 174 776 186 731 186 c 0
 678 186 644 154 644 100 c 0
 644 41 694 2 751 2 c 0
 791 2 823 20 849 42 c 1
 871 24 902 0 943 0 c 0
 991 0 1008 46 1008 83 c 0
 1008 99 1005 112 988 112 c 0
 976 112 973 95 957 95 c 0
 953 95 950 95 946 95 c 0
 931 95 918 96 906 102 c 1
 964 165 996 238 1000 297 c 0
 1000 299 1000 302 1000 304 c 0
 1000 461 904 501 833 501 c 0
 727 501 657 445 657 339 c 0
 657 289 670 259 727 259 c 0
 750 259 757 268 757 287 c 0
 757 300 754 319 749 342 c 0
 748 347 747 351 747 355 c 0
EndSplineSet
Ligature2: "'frac' Diagonal Fractions lookup 6 subtable" one slash two
EndChar

StartChar: onequarter
Encoding: 188 188 360
Width: 1017
VWidth: 0
Flags: HW
LayerCount: 2
Fore
SplineSet
235 217 m 0
 271 375 316 622 322 653 c 0
 323 660 324 666 324 672 c 0
 324 687 320 697 308 697 c 0
 307 697 305 697 303 697 c 0
 268 690 157 670 129 662 c 0
 118 658 113 639 113 620 c 0
 113 598 119 577 131 577 c 0
 145 577 201 596 218 602 c 1
 198 517 169 386 137 228 c 0
 137 226 136 224 136 222 c 0
 136 200 159 190 183 190 c 0
 207 190 232 200 235 217 c 0
437 -29 m 2
 693 575 l 2
 695 580 696 585 696 590 c 0
 696 612 676 631 655 631 c 0
 641 631 627 622 617 601 c 2
 362 15 l 2
 359 9 358 4 358 -2 c 0
 358 -28 385 -49 408 -49 c 0
 420 -49 431 -43 437 -29 c 2
851 -21 m 0
 879 -21 892 -18 905 32 c 2
 914 61 l 1
 921 61 958 63 965 63 c 0
 991 64 1005 89 1005 111 c 0
 1005 128 997 142 979 142 c 2
 978 142 l 1
 978 142 945 143 930 143 c 1
 938 180 961 265 967 289 c 0
 967 291 968 293 968 295 c 0
 968 312 948 316 931 316 c 0
 904 316 889 302 880 277 c 0
 874.225102582 254.862893232 848.996365056 172.511519461 841.761764422 141.398191197 c 1
 837.695391525 143.605279674 824.196375845 144.999999999 810 145 c 0
 788 145 766 143 766 143 c 1
 802 261 833 357 857 440 c 0
 858 443 858 445 858 448 c 0
 858 468 836 478 814 478 c 0
 795 478 777 471 772 455 c 0
 745 378 690 210 666 132 c 0
 662 118 661 106 661 97 c 0
 661 71 674 62 696 61 c 2
 696 61 799 60 822 60 c 1
 816 30 l 2
 814 22 813 15 813 9 c 0
 813 -9 822 -20 851 -21 c 0
EndSplineSet
Ligature2: "'frac' Diagonal Fractions lookup 6 subtable" one slash four
EndChar

StartChar: ordfeminine
Encoding: 170 170 363
Width: 317
VWidth: 0
Flags: HW
LayerCount: 2
Fore
SplineSet
121 336 m 0
 106 336 103 352 103 371 c 0
 103 420 136 490 182 496 c 1
 166 416 l 2
 161 387 149 336 121 336 c 0
243 268 m 0
 292 268 320 301 357 338 c 1
 337 432 l 1
 306 369 293 346 252 346 c 0
 245 346 245 356 245 371 c 0
 245 419 263 459 263 508 c 0
 263 540 251 541 215 541 c 0
 200 541 195 563 173 563 c 0
 158 563 149 559 143 556 c 0
 74 525 17 449 17 358 c 0
 17 309 46 269 96 269 c 0
 134 269 163 290 186 312 c 1
 197 289 211 268 243 268 c 0
EndSplineSet
EndChar

StartChar: ordmasculine
Encoding: 186 186 364
Width: 273
VWidth: 0
Flags: HW
LayerCount: 2
Fore
SplineSet
121 268 m 0
 209 268 253 359 253 445 c 0
 253 506 229 565 165 565 c 0
 78 565 18 490 18 403 c 0
 18 333 48 268 121 268 c 0
131 338 m 0
 104 338 94 360 94 391 c 0
 94 430 113 495 148 495 c 0
 171 495 177 465 177 437 c 0
 177 401 161 338 131 338 c 0
EndSplineSet
EndChar

StartChar: oslash
Encoding: 248 248 365
Width: 332
VWidth: 0
Flags: HW
LayerCount: 2
Fore
SplineSet
7 -60 m 0
 104 77 235 241 407 358 c 0
 412 362 415 368 415 374 c 0
 415 387 404 401 389 401 c 0
 384 401 378 399 372 395 c 0
 205 278 81 101 -15 -30 c 0
 -20 -36 -22 -42 -22 -47 c 0
 -22 -58 -12 -66 -4 -66 c 0
 0 -66 4 -64 7 -60 c 0
EndSplineSet
Refer: 345 111 N 1 0 0 1 0 0 2
EndChar

StartChar: p
Encoding: 112 112 368
Width: 365
VWidth: 0
Flags: HW
PickledData: "(dp1
S'com.typemytype.robofont.layerData'
p2
(dp3
s."
AnchorPoint: "top" 287 343 basechar 0
LayerCount: 2
Fore
SplineSet
167 68 m 0
 153 68 140 76 129 84 c 1
 150 145 167 254 238 254 c 0
 250.697353067 254 261.201198992 245.225971434 267.522128159 232.319870074 c 1
 238.567946995 212.664872346 230.891247555 206.510613999 227 189 c 0
 226 184 226 180 226 176 c 0
 226 156.457118033 236.443240816 142.881802247 253.685239902 135.274052642 c 1
 233.225107475 98.1395752569 200.112553738 68 167 68 c 0
355.611058089 205.684633985 m 1
 356.528894545 214.178244007 357 222.637367743 357 231 c 0
 357 288 328 331 272 331 c 0
 118 331 85 205 44 88 c 0
 33 60 -27 -207 -27 -239 c 0
 -27 -249 -25 -251 -21 -251 c 0
 -18 -251 -15 -250 -10 -250 c 0
 13 -250 45 -226 53 -208 c 1
 54 -208 l 2
 72 -208 110 -5 115 14 c 1
 133 -1 143 -8 165 -8 c 0
 243.168511084 -8 307.965401997 57.8295146881 338.367857135 136.009451705 c 1
 404.759521533 159.002212453 490.935637752 224.029044724 523 262 c 1
 532 266 535 274 536 281 c 0
 536 298 526 314 511 317 c 0
 508 318 509 321 506 320 c 0
 475.634887435 289.634887435 406.984374408 220.186761898 355.611058089 205.684633985 c 1
EndSplineSet
EndChar

StartChar: paragraph
Encoding: 182 182 369
Width: 447
VWidth: 0
Flags: HW
LayerCount: 2
Fore
SplineSet
331.80212766 478 m 1
 337 478 l 2
 349 478 373 480 385 490 c 1
 298 31 l 2
 297 27 297 23 297 20 c 0
 297 -11 326 -26 354 -26 c 0
 377 -26 398 -16 402 4 c 2
 481 416 l 2
 488 452 499 486 499 519 c 0
 499 603 377 603 294 603 c 0
 221 603 45 547 45 431 c 0
 45 342 140 299 192 299 c 1
 136 19 l 2
 136 16 135 13 135 11 c 0
 135 -17 164 -36 191 -36 c 0
 213 -36 234 -23 239 9 c 2
 331.80212766 478 l 1
EndSplineSet
EndChar

StartChar: parenleft
Encoding: 40 40 370
Width: 355
VWidth: 0
Flags: HW
LayerCount: 2
Fore
SplineSet
373 -131 m 0
 375 -131 376 -132 378 -132 c 0
 394 -132 410 -108 410 -87 c 0
 410 -76 406 -66 395 -60 c 0
 311 -15 273 74 273 175 c 0
 273 314 346 474 473 568 c 0
 482 574 485 582 485 591 c 0
 485 612 465 634 447 634 c 0
 443 634 440 633 436 631 c 0
 264 516 162 324 162 159 c 0
 162 27 227 -87 373 -131 c 0
EndSplineSet
EndChar

StartChar: parenright
Encoding: 41 41 371
Width: 398
VWidth: 0
Flags: HW
LayerCount: 2
Fore
SplineSet
71 -134 m 0
 266 -67 359 80 359 240 c 0
 359 377 291 522 159 634 c 0
 155 638 150 639 145 639 c 0
 126 639 105 617 105 594 c 0
 105 585 108 576 116 568 c 0
 200 482 241 374 241 270 c 0
 241 134 172 5 40 -60 c 0
 25 -67 18 -80 18 -93 c 0
 18 -114 36 -136 59 -136 c 0
 63 -136 67 -135 71 -134 c 0
EndSplineSet
EndChar

StartChar: partialdiff
Encoding: 8706 8706 372
Width: 478
VWidth: 0
Flags: HW
LayerCount: 2
Fore
SplineSet
262 88 m 0
 225 88 196 111 196 152 c 0
 196 220 272 264 340 264 c 0
 352 264 364 263 375 260 c 0
 375 256 375 251 375 247 c 0
 375 134 313 88 262 88 c 0
246 -0 m 0
 389 -0 485 123 485 301 c 0
 485 310 484 319 484 328 c 0
 479 431 428 605 263 605 c 0
 231 605 213 584 213 565 c 0
 213 551 223 537 245 532 c 0
 339 510 375 455 375 339 c 1
 253 334 104 302 104 142 c 0
 104 55 154 -0 246 -0 c 0
EndSplineSet
EndChar

StartChar: percent
Encoding: 37 37 374
Width: 783
VWidth: 0
Flags: HW
LayerCount: 2
Fore
SplineSet
592 -6 m 0
 697 -6 760 97 760 208 c 0
 760 293 726 365 640 365 c 0
 522 365 465 258 465 141 c 0
 465 59 507 -6 592 -6 c 0
600 74 m 0
 576 74 571 114 571 148 c 0
 571 205 583 285 630 285 c 0
 654 285 659 236 659 201 c 0
 659 153 639 74 600 74 c 0
249 4 m 0
 265 4 284 14 299 37 c 1
 298 37 546 483 567 521 c 0
 578 540 582 556 582 569 c 0
 582 589 571 601 557 601 c 0
 544 601 529 591 516 569 c 2
 226 78 l 2
 218 64 215 52 215 41 c 0
 215 18 230 4 249 4 c 0
164 295 m 0
 137 295 133 348 133 383 c 0
 133 440 149 511 192 511 c 0
 220 511 227 478 227 441 c 0
 227 389 207 295 164 295 c 0
155 216 m 0
 172 216 189 219 206 227 c 0
 278 257 330 341 330 441 c 0
 330 526 290 589 203 589 c 0
 88 589 27 489 27 376 c 0
 27 291 69 216 155 216 c 0
EndSplineSet
EndChar

StartChar: period
Encoding: 46 46 375
Width: 296
VWidth: 0
Flags: HW
LayerCount: 2
Fore
SplineSet
190 0 m 0
 237 0 265 32 265 78 c 0
 265 121 240 143 196 143 c 0
 149 143 122 113 122 67 c 0
 122 24 146 0 190 0 c 0
EndSplineSet
EndChar

StartChar: periodcentered
Encoding: 183 183 376
Width: 240
VWidth: 0
Flags: HW
AnchorPoint: "mid" -59 125 mark 0
LayerCount: 2
Fore
SplineSet
236 -13 m 0
 284 -13 314 19 314 66 c 0
 314 111 287 134 243 134 c 0
 194 134 168 101 168 54 c 0
 168 11 193 -13 236 -13 c 0
EndSplineSet
EndChar

StartChar: perthousand
Encoding: 8240 8240 377
Width: 1104
VWidth: 0
Flags: HW
LayerCount: 2
Fore
SplineSet
931 50 m 0
 892 50 876 93 876 141 c 0
 876 202 904 270 957 270 c 0
 993 270 1009 227 1009 179 c 0
 1009 118 982 50 931 50 c 0
587 52 m 0
 547 52 530 97 530 144 c 0
 530 204 559 271 611 271 c 0
 649 271 664 230 664 181 c 0
 664 120 637 52 587 52 c 0
174 314 m 0
 139 314 122 357 122 404 c 0
 122 464 150 531 204 531 c 0
 240 531 258 486 258 437 c 0
 258 378 231 314 174 314 c 0
787 136 m 0
 787 49 839 -25 929 -25 c 0
 1026 -25 1095 56 1095 184 c 0
 1095 267 1047 348 955 348 c 0
 846 348 787 245 787 136 c 0
442 139 m 0
 442 50 495 -23 589 -23 c 0
 681 -23 750 60 750 186 c 0
 750 268 704 349 609 349 c 0
 506 349 442 249 442 139 c 0
295 -7 m 0
 371 144 522 446 571 546 c 0
 573 551 574 555 574 560 c 0
 574 583 553 605 531 605 c 0
 518 605 506 598 496 579 c 0
 446 480 295 175 224 34 c 0
 216 20 213 7 213 -3 c 0
 213 -26 229 -39 248 -39 c 0
 265 -39 284 -29 295 -7 c 0
32 395 m 0
 32 306 79 239 175 239 c 0
 273 239 344 310 344 447 c 0
 344 532 296 610 205 610 c 0
 93 610 32 506 32 395 c 0
EndSplineSet
EndChar

StartChar: pi
Encoding: 960 960 378
Width: 605
VWidth: 0
Flags: HW
LayerCount: 2
Fore
SplineSet
314 423 m 0
 207 423 117 382 117 265 c 0
 117 259 118 254 118 248 c 0
 118 226 139 212 158 212 c 0
 171 212 184 219 188 234 c 0
 199 310 215 335 266 340 c 1
 214 186 170 64 170 27 c 0
 170 4 182 -22 214 -22 c 0
 238 -22 275 38 275 45 c 2
 275 46 l 2
 274 46 270 42 263 32 c 1
 279 113 318 209 345 338 c 1
 377 336 390 333 431 329 c 1
 408 193 399 107 399 53 c 0
 399 -14 414 -30 435 -30 c 0
 447 -30 461 -25 476 -20 c 0
 498 -14 504 -8 504 11 c 0
 504 32 496 69 496 139 c 0
 496 185 499 245 510 324 c 1
 520 323 529 323 539 323 c 0
 549 323 559 323 569 323 c 0
 635 323 653 373 657 373 c 0
 657.312015658 373 657.526677545 372.707938688 657.674361899 372.063064314 c 1
 654.747705068 391.578541834 638.709740236 406.999999949 619 407 c 0
 618 407 617 407 616 407 c 0
 482 407 419 423 314 423 c 0
657.674361899 372.063064314 m 1
 657.75811793 371.697336707 657.820331441 371.218131563 657.866543062 370.61436713 c 1
 657.810524101 371.099635103 657.746416832 371.582590525 657.674361899 372.063064314 c 1
657.866543062 370.61436713 m 1
 658.000000112 368.870731671 658 366.088247332 658 362 c 1
 658.243913288 364.92695946 658.190358116 367.809298651 657.866543062 370.61436713 c 1
EndSplineSet
EndChar

StartChar: plus
Encoding: 43 43 379
Width: 514
VWidth: 0
Flags: HW
LayerCount: 2
Fore
SplineSet
263 17 m 0
 288 17 300 41 300 66 c 2
 300 138 l 1
 375 138 l 2
 399 138 419 154 419 180 c 0
 419 199 403 212 381 212 c 2
 300 212 l 1
 300 292 l 2
 300 314 287 330 267 330 c 0
 243 330 226 310 226 286 c 2
 226 212 l 1
 155 212 l 2
 130 212 105 200 105 175 c 0
 105 148 129 138 153 138 c 2
 226 138 l 1
 226 64 l 2
 226 40 236 17 263 17 c 0
EndSplineSet
EndChar

StartChar: plusminus
Encoding: 177 177 380
Width: 514
VWidth: 0
Flags: HW
LayerCount: 2
Fore
SplineSet
184 -18 m 2
 324 -18 l 2
 349 -17 357 2 357 24 c 0
 357 41 344 54 318 54 c 2
 184 54 l 2
 164 54 155 37 155 19 c 0
 155 1 165 -18 184 -18 c 2
263 125 m 0
 288 125 300 150 300 175 c 2
 300 225 l 1
 357 225 l 2
 381 225 401 241 401 267 c 0
 401 286 385 299 363 299 c 2
 300 299 l 1
 300 359 l 2
 300 381 287 398 267 398 c 0
 243 398 226 377 226 353 c 2
 226 299 l 1
 166 299 l 2
 141 299 125 287 125 262 c 0
 125 235 140 225 164 225 c 2
 226 225 l 1
 226 174 l 2
 226 148 236 125 263 125 c 0
EndSplineSet
EndChar

StartChar: product
Encoding: 8719 8719 381
Width: 772
VWidth: 0
Flags: HW
LayerCount: 2
Fore
SplineSet
593 -107 m 0
 621 -107 657 -78 657 -27 c 0
 657 -6 652 31 652 86 c 0
 652 177 665 319 738 534 c 1
 780 534 844 535 865 537 c 0
 885 539 902 569 902 596 c 0
 902 618 890 637 860 637 c 0
 650 637 503 643 380 643 c 0
 290 643 212 640 133 629 c 0
 108 626 96 602 96 579 c 0
 96 554 110 530 134 530 c 0
 136 530 138 531 141 531 c 0
 182 537 203 542 272 542 c 0
 278 542 283 542 289 542 c 1
 161 273 136 83 136 0 c 0
 136 -22 138 -36 140 -43 c 0
 150 -85 178 -107 206 -107 c 0
 234 -107 262 -84 270 -38 c 0
 277 4 251 150 378 542 c 1
 409 540 444 541 484 540 c 0
 545 538 606 537 647 536 c 1
 542 252 522 74 522 -3 c 0
 522 -23 524 -36 525 -43 c 0
 537 -85 565 -107 593 -107 c 0
EndSplineSet
EndChar

StartChar: q
Encoding: 113 113 382
Width: 395
VWidth: 0
Flags: HW
LayerCount: 2
Fore
SplineSet
217 55 m 0
 212 54 208 54 204 54 c 0
 156 54 135 94 135 140 c 0
 135 201 173 273 234 273 c 0
 251 273 277 268 277 267 c 0
 277 249.917507585 262.189263041 195.207737492 245.483924526 141.112581214 c 1
 221.161308257 134.412140031 209.000000123 110.99069893 209 89 c 0
 209 78.0067282726 212.147188106 67.2232690855 218.345458919 58.7639382341 c 0
 217.892013037 57.4888288306 217.443404972 56.2338220966 217 55 c 0
312.801055673 62.1841870103 m 1
 371.027382083 80.4829276384 465.387995387 179.775990774 492 233 c 0
 494 238 495 242 495 247 c 0
 495 265 481 280 465 280 c 0
 457 280 449 276 442 266 c 0
 418.8505113 232.561849655 378.333930981 192.921166589 344.647068235 165.159082946 c 1
 356.582587984 204.660124848 367 244.820694171 367 271 c 0
 367 300 298 336 227 336 c 0
 104 332 44 233 44 141 c 0
 44 59 91 -17 183 -17 c 0
 189 -17 195 -17 202 -16 c 1
 184 -85 154 -172 131 -240 c 0
 130 -242 130 -243 130 -245 c 0
 130 -264 161 -284 187 -284 c 0
 203 -284 218 -277 223 -257 c 2
 312.801055673 62.1841870103 l 1
EndSplineSet
EndChar

StartChar: question
Encoding: 63 63 383
Width: 350
VWidth: 0
Flags: HW
LayerCount: 2
Fore
SplineSet
186 -10 m 0
 230 -10 256 19 256 61 c 0
 256 102 233 124 193 124 c 0
 148 124 124 93 124 51 c 0
 124 12 147 -10 186 -10 c 0
250 547 m 0
 291 547 329 529 329 478 c 0
 329 475 329 473 329 470 c 0
 321 360 193 349 191 250 c 0
 191 240 195 227 215 227 c 0
 231 227 236 238 243 255 c 0
 273 325 430 326 430 488 c 0
 430 589 346 638 258 638 c 0
 200 638 102 614 78 509 c 0
 77 507 77 504 77 502 c 0
 77 480 103 465 123 465 c 0
 133 465 143 469 146 477 c 0
 169 528 210 547 250 547 c 0
EndSplineSet
EndChar

StartChar: quotedbl
Encoding: 34 34 385
Width: 573
VWidth: 0
Flags: HW
LayerCount: 2
Fore
SplineSet
182 408 m 0
 182 392 189 384 209 384 c 0
 226 384 236 393 241 410 c 0
 247 429 288 556 300 597 c 0
 301 602 302 606 302 610 c 0
 302 632 282 639 258 639 c 0
 236 639 216 633 211 604 c 0
 204 565 189 472 183 420 c 0
 183 416 182 412 182 408 c 0
324 409 m 0
 324 393 333 383 353 383 c 0
 369 383 380 393 387 412 c 0
 407 463 438 554 454 596 c 0
 456 601 456 605 456 609 c 0
 456 634 429 642 404 642 c 0
 380 642 365 631 361 612 c 0
 349 553 331 453 325 421 c 0
 324 417 324 413 324 409 c 0
EndSplineSet
EndChar

StartChar: quotedblbase
Encoding: 8222 8222 386
Width: 449
VWidth: 0
Flags: HW
LayerCount: 2
Fore
SplineSet
123 -92 m 0
 123 -108 130 -116 150 -116 c 0
 167 -116 177 -107 182 -90 c 0
 188 -71 229 56 241 97 c 0
 242 102 243 106 243 110 c 0
 243 132 223 139 199 139 c 0
 177 139 157 133 152 104 c 0
 145 65 130 -28 124 -80 c 0
 124 -84 123 -88 123 -92 c 0
265 -91 m 0
 265 -107 274 -117 294 -117 c 0
 310 -117 321 -107 328 -88 c 0
 348 -37 379 54 395 96 c 0
 397 101 397 105 397 109 c 0
 397 134 370 142 345 142 c 0
 321 142 306 131 302 112 c 0
 290 53 272 -47 266 -79 c 0
 265 -83 265 -87 265 -91 c 0
EndSplineSet
EndChar

StartChar: quotedblleft
Encoding: 8220 8220 387
Width: 436
VWidth: 0
Flags: HW
LayerCount: 2
Fore
SplineSet
432 616 m 0
 432 632 425 640 405 640 c 0
 388 640 378 631 373 614 c 0
 367 595 326 468 314 427 c 0
 313 422 312 418 312 414 c 0
 312 392 332 385 356 385 c 0
 378 385 398 391 403 420 c 0
 410 459 425 552 431 604 c 0
 431 608 432 612 432 616 c 0
290 615 m 0
 290 631 281 641 261 641 c 0
 245 641 234 631 227 612 c 0
 207 561 176 470 160 428 c 0
 158 423 158 419 158 415 c 0
 158 390 185 382 210 382 c 0
 234 382 249 393 253 412 c 0
 265 471 283 571 289 603 c 0
 290 607 290 611 290 615 c 0
EndSplineSet
EndChar

StartChar: quotedblright
Encoding: 8221 8221 388
Width: 537
VWidth: 0
Flags: HW
LayerCount: 2
Fore
SplineSet
153 408 m 0
 153 392 160 384 180 384 c 0
 197 384 207 393 212 410 c 0
 218 429 259 556 271 597 c 0
 272 602 273 606 273 610 c 0
 273 632 253 639 229 639 c 0
 207 639 187 633 182 604 c 0
 175 565 160 472 154 420 c 0
 154 416 153 412 153 408 c 0
295 409 m 0
 295 393 304 383 324 383 c 0
 340 383 351 393 358 412 c 0
 378 463 409 554 425 596 c 0
 427 601 427 605 427 609 c 0
 427 634 400 642 375 642 c 0
 351 642 336 631 332 612 c 0
 320 553 302 453 296 421 c 0
 295 417 295 413 295 409 c 0
EndSplineSet
EndChar

StartChar: quoteleft
Encoding: 8216 8216 389
Width: 240
VWidth: 0
Flags: HW
LayerCount: 2
Fore
SplineSet
168 615 m 0
 168 631 159 641 139 641 c 0
 123 641 112 631 105 612 c 0
 85 561 54 470 38 428 c 0
 36 423 36 419 36 415 c 0
 36 390 63 382 88 382 c 0
 112 382 127 393 131 412 c 0
 143 471 161 571 167 603 c 0
 168 607 168 611 168 615 c 0
EndSplineSet
EndChar

StartChar: quoteright
Encoding: 8217 8217 390
Width: 219
VWidth: 0
Flags: HW
LayerCount: 2
Fore
SplineSet
57 409 m 0
 57 393 66 383 86 383 c 0
 102 383 113 393 120 412 c 0
 140 463 171 554 187 596 c 0
 189 601 189 605 189 609 c 0
 189 634 162 642 137 642 c 0
 113 642 98 631 94 612 c 0
 82 553 64 453 58 421 c 0
 57 417 57 413 57 409 c 0
EndSplineSet
EndChar

StartChar: quotesinglbase
Encoding: 8218 8218 391
Width: 307
VWidth: 0
Flags: HW
LayerCount: 2
Fore
SplineSet
123 -92 m 0
 123 -108 130 -116 150 -116 c 0
 167 -116 177 -107 182 -90 c 0
 188 -71 229 56 241 97 c 0
 242 102 243 106 243 110 c 0
 243 132 223 139 199 139 c 0
 177 139 157 133 152 104 c 0
 145 65 130 -28 124 -80 c 0
 124 -84 123 -88 123 -92 c 0
EndSplineSet
EndChar

StartChar: quotesingle
Encoding: 39 39 392
Width: 300
VWidth: 0
Flags: HW
LayerCount: 2
Fore
SplineSet
188 409 m 0
 188 393 197 383 217 383 c 0
 233 383 244 393 251 412 c 0
 271 463 302 554 318 596 c 0
 320 601 320 605 320 609 c 0
 320 634 293 642 268 642 c 0
 244 642 229 631 225 612 c 0
 213 553 195 453 189 421 c 0
 188 417 188 413 188 409 c 0
EndSplineSet
EndChar

StartChar: r
Encoding: 114 114 393
Width: 282
VWidth: 0
Flags: HW
PickledData: "(dp1
S'com.typemytype.robofont.layerData'
p2
(dp3
s."
AnchorPoint: "top" 257 343 basechar 0
LayerCount: 2
Fore
SplineSet
75 0 m 0
 106 0 118 13 127 30 c 0
 158.911867031 117.092803771 184.635738574 168.825633327 200.939211367 205.768331037 c 1
 199.665966652 199.484564655 198.999999421 193.552006104 199 188 c 0
 199 157 219 138 273 138 c 0
 329 138 376 165 411 193 c 0
 413 194 414 196 414 199 c 0
 414 214 389 244 376 244 c 2
 375 244 l 1
 330 226 300 217 286 217 c 0
 280 217 277 219 277 222 c 0
 277 223 278 225 279 227 c 0
 291 256 299 279 299 296 c 0
 299 318 286 329 249 329 c 0
 213.976753213 329 139.028639854 220.268448486 110.277065533 151.560500143 c 1
 122.262975133 188.81077537 136.073675881 258.908233666 142 286 c 0
 143 289 143 293 143 296 c 0
 143 314 129 330 109 330 c 0
 81 330 65 315 52 281 c 0
 35 223 26 157 26 91 c 0
 26 88 26 84 26 81 c 0
 26 78 26 74 26 71 c 0
 26 36 37 0 75 0 c 0
EndSplineSet
EndChar

StartChar: radical
Encoding: 8730 8730 395
Width: 711
VWidth: 0
Flags: HW
LayerCount: 2
Fore
SplineSet
753 596 m 0
 753 611 736 626 715 626 c 0
 695 626 684 605 663 569 c 2
 383 100 l 1
 328 239 l 2
 314 274 311 296 291 296 c 0
 290 296 289 296 288 296 c 2
 174 295 l 2
 147 295 132 273 132 253 c 0
 132 236 143 219 166 219 c 2
 241 219 l 1
 333 4 l 2
 340 -13 353 -21 367 -21 c 0
 379 -21 392 -14 400 -2 c 2
 729 539 l 2
 744 564 753 582 753 596 c 0
EndSplineSet
EndChar

StartChar: registered
Encoding: 174 174 399
Width: 636
VWidth: 0
Flags: HW
LayerCount: 2
Fore
SplineSet
308 309 m 2
 326 378 l 1
 341 378 l 2
 380 378 397 369 397 350 c 0
 397 328 345 309 315 309 c 0
 312 309 310 309 308 309 c 2
616 314 m 0
 616 463 514 533 362 533 c 0
 188 533 54 428 54 248 c 0
 54 97 169 9 327 9 c 0
 463 9 616 111 616 314 c 0
374 467 m 0
 478 467 537 419 537 319 c 0
 537 186 458 75 325 75 c 0
 210 75 125 131 125 248 c 0
 125 369 201 467 374 467 c 0
334 134 m 0
 336 115 354 105 372 105 c 0
 391 105 410 117 407 140 c 2
 392.050912009 272.880782142 l 1
 435.969602953 287.966237854 463 317.978052752 463 357 c 0
 463 409 417 431 363 431 c 0
 342 431 301 427 280 427 c 0
 278 427 276 427 274 427 c 2
 237 314 l 1
 229 314 233 315 224 315 c 0
 217 314 213 305 213 299 c 0
 213 289 219 286 227 279 c 1
 196 160 l 2
 195 157 195 154 195 151 c 0
 195 133 212 119 230 119 c 0
 244 119 258 128 264 149 c 2
 292 263 l 1
 282 264 318 265 318 265 c 1
 321 255 328 175 334 134 c 0
EndSplineSet
EndChar

StartChar: ring
Encoding: 730 730 400
Width: 251
VWidth: 0
Flags: HW
PickledData: "(dp1
S'com.typemytype.robofont.layerData'
p2
(dp3
s."
AnchorPoint: "top" 123 344 mark 0
AnchorPoint: "top" 160 516 basechar 0
LayerCount: 2
Fore
SplineSet
123 376 m 0
 187 376 233 421 233 487 c 0
 233 531 203 560 159 560 c 0
 98 560 40 521 40 460 c 0
 40 408 72 376 123 376 c 0
123 431 m 0
 105 431 93 443 93 460 c 0
 93 489 117 507 147 507 c 0
 164 507 172 497 172 482 c 0
 172 453 152 431 123 431 c 0
EndSplineSet
EndChar

StartChar: s
Encoding: 115 115 402
Width: 291
VWidth: 0
Flags: HW
PickledData: "(dp1
S'com.typemytype.robofont.layerData'
p2
(dp3
s."
AnchorPoint: "top" 237 343 basechar 0
AnchorPoint: "bot" 146 20 basechar 0
LayerCount: 2
Fore
SplineSet
152 61 m 0
 151 61 151 61 150 61 c 0
 139 61 123 70 105 80 c 1
 111 92 104 82 127 129 c 2
 161 199 l 1
 187 161 202 125 202 100 c 0
 202 76 188 61 157 61 c 0
 156 61 154 61 152 61 c 0
179 -6 m 0
 299 -6 386 34 418 95 c 0
 421 101 423 108 423 114 c 0
 423 137 404 161 385 161 c 0
 379 161 372 158 367 152 c 0
 356 138 317 91 279 75 c 1
 285 85 288 95 288 105 c 0
 288 166 192 225 192 258 c 0
 192 261 193 264 194 266 c 0
 202 280 206 293 206 303 c 0
 206 327 186 341 164 341 c 0
 146 341 125 332 112 312 c 1
 113 312 20 128 -6 88 c 1
 26 32 95 -6 176 -6 c 0
 177 -6 178 -6 179 -6 c 0
EndSplineSet
EndChar

StartChar: section
Encoding: 167 167 410
Width: 492
VWidth: 0
Flags: HW
LayerCount: 2
Fore
SplineSet
325 184 m 1
 317 189 309 195 299 199 c 0
 272 214 192 230 192 264 c 0
 192 278 199 288 209 298 c 1
 224 290 237 281 253 275 c 0
 281 261 335 241 338 214 c 0
 338 201 333 193 325 184 c 1
233 -42 m 0
 312 -42 397 -8 397 72 c 0
 397 97 391 117 383 130 c 1
 405 150 426 172 426 214 c 0
 423 276 363 309 322 332 c 0
 295 347 224 369 224 400 c 0
 224 425 252 436 281 436 c 0
 318 436 356 421 356 388 c 0
 356 381 354 371 354 364 c 0
 354 344 369 329 388 329 c 0
 418 329 432 358 432 389 c 0
 432 461 364 511 291 511 c 0
 213 511 126 480 126 404 c 0
 126 375 138 355 152 342 c 1
 127 325 104 299 104 262 c 0
 104 213 141 193 171 176 c 0
 211 151 295 129 295 73 c 0
 295 43 268 31 235 31 c 0
 195 31 153 44 153 82 c 0
 153 97 161 111 161 126 c 0
 161 145 143 151 126 151 c 0
 92 151 71 115 71 80 c 0
 71 -5 150 -42 233 -42 c 0
EndSplineSet
EndChar

StartChar: semicolon
Encoding: 59 59 411
Width: 339
VWidth: 0
Flags: HW
LayerCount: 2
Fore
SplineSet
231 222 m 0
 276 222 301 253 301 295 c 0
 301 335 277 358 237 358 c 0
 193 358 169 327 169 285 c 0
 169 246 192 222 231 222 c 0
166 -66 m 2
 167 -66 l 2
 199 -66 250 -32 263 70 c 0
 263 73 264 76 264 79 c 0
 264 106 246 124 212 124 c 0
 179 124 157 105 157 80 c 0
 157 73 158 66 158 60 c 0
 158 8 139 -23 139 -43 c 0
 139 -57 150 -66 166 -66 c 2
EndSplineSet
EndChar

StartChar: seven
Encoding: 55 55 412
Width: 417
VWidth: 0
Flags: HW
LayerCount: 2
Fore
SplineSet
248 23 m 0
 274 112 337 240 413 362 c 0
 415 369 446 399 446 429 c 0
 446 448 439 467 416 467 c 0
 408 467 376 462 362 462 c 0
 268 462 206 462 141 462 c 0
 128 462 117 438 117 414 c 0
 117 392 127 371 155 371 c 0
 159 371 163 371 168 372 c 0
 198 378 246 385 283 388 c 2
 331 391 l 1
 237 248 185 125 152 46 c 0
 150 41 150 37 150 33 c 0
 150 7 177 -13 203 -13 c 0
 222 -13 240 -2 248 23 c 0
EndSplineSet
EndChar

StartChar: six
Encoding: 54 54 413
Width: 387
VWidth: 0
Flags: HW
LayerCount: 2
Fore
SplineSet
229 72 m 0
 172 72 146 123 146 155 c 0
 146 210 179 235 231 235 c 0
 271 235 294 192 294 151 c 0
 294 111 273 72 229 72 c 0
388 154 m 0
 388 257 312 320 241 320 c 0
 210 320 180 308 159 282 c 1
 201 372 271 400 333 429 c 0
 350 436 360 453 360 472 c 0
 360 494 347 505 321 505 c 0
 308 505 299 501 289 496 c 0
 170 438 54 351 54 177 c 0
 54 51 118 0 201 -12 c 0
 210 -13 219 -14 227 -14 c 0
 323 -14 388 56 388 154 c 0
EndSplineSet
EndChar

StartChar: slash
Encoding: 47 47 414
Width: 426
VWidth: 0
Flags: HW
LayerCount: 2
Fore
SplineSet
136 12 m 0
 136 -7 149 -26 172 -26 c 0
 192 -26 207 -4 222 28 c 2
 454 539 l 2
 464 561 470 578 470 591 c 0
 470 608 452 626 427 626 c 0
 407 626 399 605 383 569 c 2
 148 55 l 2
 140 38 136 24 136 12 c 0
EndSplineSet
EndChar

StartChar: sterling
Encoding: 163 163 417
Width: 514
VWidth: 0
Flags: HW
LayerCount: 2
Fore
SplineSet
154 39 m 0
 154 5 172 -7 213 -7 c 2
 444 -5 l 2
 471 -5 484 19 484 42 c 0
 484 62 474 81 457 81 c 2
 263 81 l 1
 296 272 l 1
 392 272 l 2
 414 272 424 293 424 313 c 0
 424 330 417 345 404 345 c 2
 305 345 l 1
 321 435 l 2
 328 477 366 505 407 505 c 0
 428 505 450 498 469 482 c 0
 484 470 495 455 509 455 c 0
 525 455 553 471 553 495 c 0
 553 504 549 514 543 523 c 0
 514 568 458 593 401 593 c 0
 325 593 247 550 225 451 c 2
 202 345 l 1
 156 345 l 2
 135 345 123 323 123 304 c 0
 123 287 131 272 148 272 c 2
 193 272 l 1
 157 66 l 2
 155 56 154 47 154 39 c 0
EndSplineSet
EndChar

StartChar: summation
Encoding: 8721 8721 418
Width: 815
VWidth: 0
Flags: HW
LayerCount: 2
Fore
SplineSet
416 658 m 0
 325 658 263 649 206 627 c 0
 186 619 178 603 178 587 c 0
 178 566 193 546 218 546 c 0
 224 546 230 547 236 549 c 0
 238 549 240 548 242 548 c 0
 258 548 271 560 289 564 c 1
 434 317 l 1
 251 156 133 65 133 23 c 0
 133 1 153 -12 173 -12 c 0
 190 -12 211 -4 230 16 c 1
 318 -12 411 -45 518 -45 c 0
 586 -45 659 -32 740 4 c 0
 755 10 761 23 761 37 c 0
 761 59 746 82 724 82 c 0
 720 82 715 81 710 79 c 0
 651 54 594 36 522 36 c 0
 459 36 384 50 286 86 c 1
 353 150 445 213 544 303 c 1
 385 574 l 1
 399 574 414 574 432 574 c 0
 490 574 583 571 651 571 c 0
 665 571 678 571 689 571 c 0
 777 573 785 589 785 613 c 0
 785 645 766 659 742 659 c 0
 740 659 739 659 737 659 c 0
 691 655 653 654 617 654 c 0
 553 654 496 658 416 658 c 0
EndSplineSet
EndChar

StartChar: t
Encoding: 116 116 419
Width: 268
VWidth: 0
Flags: HW
PickledData: "(dp1
S'com.typemytype.robofont.layerData'
p2
(dp3
s."
AnchorPoint: "bot" 147 3 basechar 0
AnchorPoint: "mid" 144 395 basechar 0
AnchorPoint: "top" 310 552 basechar 0
AnchorPoint: "caron.alt" 359 551 basechar 0
LayerCount: 2
Fore
SplineSet
147 320 m 1
 163 421 215 535 268 535 c 0
 273 535 276 532 276 527 c 0
 276 446 220 390 147 320 c 1
357 560 m 0
 357 596 335 631 282 631 c 0
 153.042658495 631 66.0802562026 386.665808221 49.0857048856 234.604796218 c 1
 39.7826534047 229.54021331 30.7177640364 224.333220352 22 219 c 0
 12 214 8 205 8 194 c 0
 8 177 20 157 37 157 c 0
 39.4995798954 157 42.249075777 157.499831972 45.1235506499 158.499495917 c 1
 47.0908208748 75.6694230173 72.7863191076 2 139 2 c 0
 141 2 144 2 146 2 c 0
 199 8 247 26 304 88 c 0
 314 98 318 109 318 118 c 0
 318 138 300 153 282 153 c 0
 274 153 267 150 261 144 c 0
 227 109 191 85 163 79 c 0
 162 79 160 79 159 79 c 0
 136 79 129 120 129 166 c 0
 129 178.78556977 129.510314655 191.741244425 130.320470944 204.375920252 c 1
 187.818654315 231.619099918 259.852134461 260.814877085 297 269 c 0
 311 272 318 282 318 293 c 0
 318 309 305 325 285 325 c 0
 282 325 278 325 275 324 c 0
 258.113711158 319.609564901 233.471430693 312.139544893 204.963735486 302.167748423 c 1
 279.362450993 361.89668045 350.167525479 451.549537525 357 551 c 0
 357 554 357 557 357 560 c 0
EndSplineSet
EndChar

StartChar: thorn
Encoding: 254 254 424
Width: 355
VWidth: 0
Flags: HW
LayerCount: 2
Fore
SplineSet
190 78 m 0
 163 78 132 83 122 95 c 1
 126 139 136 249 216 249 c 0
 247 249 261 222 261 185 c 0
 261 154 228 78 190 78 c 0
331 202 m 0
 331 269 305 329 246 329 c 0
 197 329 177 308 158 290 c 1
 198 494 l 2
 199 499 200 504 200 508 c 0
 200 533 183 544 165 544 c 0
 144 544 119 529 115 505 c 0
 89 368 80 316 69 256 c 2
 -15 -191 l 2
 -15 -193 -16 -196 -16 -198 c 0
 -16 -220 4 -231 25 -231 c 0
 45 -231 66 -220 70 -200 c 2
 110 24 l 1
 124 17 150 0 190 0 c 0
 220 0 240 4 269 27 c 1
 308 28 377 68 428 118 c 0
 442 131 449 149 449 164 c 0
 449 180 441 192 429 192 c 0
 423 192 416 189 408 182 c 0
 372 152 311 103 297 103 c 1
 318 125 331 157 331 202 c 0
EndSplineSet
EndChar

StartChar: three
Encoding: 51 51 425
Width: 417
VWidth: 0
Flags: HW
LayerCount: 2
Fore
SplineSet
233 -23 m 0
 307 -23 396 13 396 145 c 0
 396 200 359 254 290 269 c 1
 363 280 386 345 386 384 c 0
 386 452 339 480 280 489 c 0
 272 490 263 491 255 491 c 0
 199 491 137 463 105 427 c 0
 101 422 99 416 99 409 c 0
 99 389 115 366 137 366 c 0
 147 366 158 371 170 384 c 0
 188 401 211 410 232 410 c 0
 258 410 280 395 280 360 c 0
 280 311 226 293 195 293 c 0
 158 293 143 282 143 258 c 0
 143 232 155 219 176 219 c 0
 239 219 296 187 301 146 c 0
 302 141 302 136 302 131 c 0
 302 80 266 58 227 58 c 0
 190 58 149 78 133 112 c 0
 127 124 116 129 105 129 c 0
 84 129 60 111 60 85 c 0
 60 78 62 69 66 61 c 0
 96 0 164 -23 233 -23 c 0
EndSplineSet
Substitution2: "'sups' Superscript lookup 5 subtable" threesuperior
EndChar

StartChar: threequarters
Encoding: 190 190 426
Width: 1102
VWidth: 0
Flags: HW
LayerCount: 2
Fore
SplineSet
183 183 m 0
 261 183 354 216 354 350 c 0
 354 405 317 459 250 474 c 1
 320 485 346 551 346 589 c 0
 346 657 297 685 238 694 c 0
 230 695 221 696 213 696 c 0
 157 696 97 668 65 632 c 0
 61 627 59 621 59 614 c 0
 59 595 74 572 96 572 c 0
 106 572 117 577 129 589 c 0
 147 606 171 615 192 615 c 0
 218 615 240 600 240 565 c 0
 240 516 185 498 153 498 c 0
 118 498 103 487 103 463 c 0
 103 437 114 424 134 424 c 0
 201 424 260 391 260 346 c 0
 260 284 233 264 199 264 c 0
 159 264 112 293 94 319 c 0
 88 328 77 332 67 332 c 0
 42 332 13 310 13 282 c 0
 13 274 16 265 22 256 c 0
 63 202 122 183 183 183 c 0
423 -29 m 2
 680 575 l 2
 682 580 683 584 683 589 c 0
 683 612 662 631 641 631 c 0
 627 631 613 622 603 601 c 2
 348 15 l 2
 345 9 344 4 344 -2 c 0
 344 -28 371 -49 394 -49 c 0
 406 -49 418 -43 423 -29 c 2
834 -21 m 0
 862 -21 876 -18 887 32 c 1
 897 61 l 1
 904 61 941 63 949 63 c 0
 974 64 987 88 987 110 c 0
 987 127 979 142 962 142 c 2
 961 142 l 1
 961 142 929 143 913 143 c 1
 923 180 945 265 949 289 c 0
 950 292 950 294 950 296 c 0
 950 312 931 316 915 316 c 0
 887 316 871 302 864 277 c 0
 857 254 830 170 825 143 c 1
 749 143 l 1
 785 261 815 357 839 440 c 0
 840 443 840 446 840 449 c 0
 840 468 819 478 797 478 c 0
 778 478 760 471 755 455 c 0
 730 378 672 210 651 132 c 0
 647 117 645 105 645 95 c 0
 645 71 658 62 679 61 c 2
 679 61 782 60 805 60 c 1
 800 30 l 2
 798 22 797 15 797 8 c 0
 797 -9 805 -20 834 -21 c 0
EndSplineSet
Ligature2: "'frac' Diagonal Fractions lookup 6 subtable" three slash four
EndChar

StartChar: tilde
Encoding: 732 732 428
Width: 328
VWidth: 0
Flags: HW
AnchorPoint: "top" 140 343 mark 0
LayerCount: 2
Fore
SplineSet
227 416 m 0
 272 416 319 470 319 513 c 0
 319 534 301 546 283 546 c 0
 246 546 230 511 221 492 c 1
 206 505 194 514 184 522 c 0
 164 538 147 557 112 557 c 0
 66 557 19 503 19 460 c 0
 19 439 37 427 56 427 c 0
 90 427 108 460 118 480 c 1
 132 468 145 458 155 451 c 0
 174 435 192 416 227 416 c 0
EndSplineSet
EndChar

StartChar: trademark
Encoding: 8482 8482 429
Width: 937
VWidth: 0
Flags: HW
LayerCount: 2
Fore
SplineSet
646 348 m 0
 638 348 635 353 635 362 c 0
 635 395 674 478 682 531 c 0
 682 535 683 538 683 542 c 0
 683 582 653 608 611 608 c 0
 567 608 543 572 525 529 c 1
 525 531 525 532 525 534 c 0
 525 572 505 609 463 609 c 0
 460 609 457 608 454 608 c 0
 411 603 369 541 337 473 c 1
 345 497 364 554 364 568 c 0
 364 606 280 608 229 608 c 0
 135 608 27 601 27 504 c 0
 27 483 38 468 61 468 c 0
 86 468 104 481 104 504 c 0
 104 539 134 548 183 548 c 1
 119 353 l 2
 116 344 114 336 114 329 c 0
 114 311 125 300 145 300 c 0
 169 300 175 317 181 341 c 0
 197 414 216 467 237 548 c 1
 256 548 289 547 309 544 c 1
 309 544 265 415 248 340 c 0
 248 338 247 336 247 334 c 0
 247 312 274 297 296 297 c 0
 316 297 324 317 330 332 c 0
 342 360 354 393 365 423 c 0
 390 487 415 530 439 537 c 0
 440 537 442 537 443 537 c 0
 453 537 457 529 457 512 c 0
 457 505 457 497 455 487 c 0
 447 445 431 393 417 339 c 0
 417 337 416 335 416 333 c 0
 416 314 433 297 462 297 c 0
 480 297 489 309 494 325 c 0
 518 405 536 533 592 533 c 0
 607 533 613 519 613 510 c 0
 613 460 581 397 573 353 c 0
 572 349 572 345 572 342 c 0
 572 313 601 292 637 292 c 0
 677 292 713 323 737 359 c 0
 742 367 744 375 744 381 c 0
 744 397 730 406 716 406 c 0
 708 406 700 403 695 396 c 0
 681 374 663 348 646 348 c 0
EndSplineSet
EndChar

StartChar: two
Encoding: 50 50 430
Width: 417
VWidth: 0
Flags: HW
LayerCount: 2
Fore
SplineSet
114 96 m 0
 114 108 123 120 145 120 c 0
 159 120 180 115 207 102 c 1
 182 81 159 72 142 72 c 0
 125 72 114 81 114 96 c 0
238 501 m 0
 130 501 59 447 59 339 c 0
 59 296 68 259 108 259 c 0
 213 259 95 409 228 425 c 0
 231 425 235 426 238 426 c 0
 287 426 309 377 309 319 c 0
 309 260 285 191 242 151 c 1
 209 174 177 186 133 186 c 0
 81 186 46 154 46 100 c 0
 46 34 91 2 145 2 c 0
 180 2 219 15 250 42 c 1
 274 24 305 0 344 0 c 0
 393 0 410 51 410 83 c 0
 410 85 410 88 410 90 c 0
 410 105 409 113 396 113 c 0
 378 113 372 86 348 86 c 0
 338 86 324 90 309 102 c 1
 369 170 401 255 401 329 c 0
 401 424 349 501 238 501 c 0
EndSplineSet
Substitution2: "'sups' Superscript lookup 5 subtable" twosuperior
EndChar

StartChar: u
Encoding: 117 117 432
Width: 394
VWidth: 0
Flags: HW
PickledData: "(dp1
S'com.typemytype.robofont.layerData'
p2
(dp3
s."
AnchorPoint: "top" 277 343 basechar 0
AnchorPoint: "ogonek" 334 0 basechar 0
LayerCount: 2
Fore
SplineSet
50 106 m 0
 50 49 76 -4 145 -4 c 0
 205 -4 247 41 269 89 c 1
 268 85 267 78 267 69 c 0
 267 40 278 -4 330 -4 c 0
 417 -4 470 66 487 103 c 1
 485 117 461 139 444 139 c 0
 439 139 434 135 428 128 c 0
 421 120 386 80 358 80 c 0
 349 80 341 84 341 99 c 0
 341 103 342 108 343 114 c 0
 354 166 379 255 392 292 c 0
 394 297 394 302 394 306 c 0
 394 323 379 332 350 332 c 0
 327 332 312 324 299 283 c 2
 264 172 l 2
 245 112 199 74 169 74 c 0
 145 74 143 96 143 119 c 0
 144 177 180 266 196 299 c 0
 197 301 198 304 198 306 c 0
 198 321 174 331 154 331 c 0
 137 331 122 325 112 311 c 0
 103 299 50 214 50 106 c 0
EndSplineSet
EndChar

StartChar: underscore
Encoding: 95 95 443
Width: 456
VWidth: 0
Flags: HW
LayerCount: 2
Fore
SplineSet
148 -26 m 2
 103 -26 77 -29 77 -62 c 0
 77 -86 95 -97 130 -97 c 2
 374 -97 l 2
 422 -97 435 -86 435 -55 c 0
 435 -37 425 -26 390 -26 c 2
 148 -26 l 2
EndSplineSet
EndChar

StartChar: uni0307
Encoding: 775 775 455
Width: 205
VWidth: 0
Flags: HW
AnchorPoint: "top" 111 343 mark 0
LayerCount: 2
Fore
SplineSet
114 459 m 0
 141 459 167 484 167 513 c 0
 167 536 145 557 119 557 c 0
 93 557 67 532 67 505 c 0
 67 480 91 459 114 459 c 0
EndSplineSet
EndChar

StartChar: uni030F
Encoding: 783 783 456
Width: 205
VWidth: 0
Flags: HW
AnchorPoint: "top" 191 343 mark 0
LayerCount: 2
Fore
SplineSet
232 380 m 2
 238 372 247 368 256 368 c 0
 272 368 287 380 287 397 c 0
 287 402 286 407 283 412 c 2
 201 602 l 2
 190 628 172 638 155 638 c 0
 130 638 107 617 107 588 c 0
 107 577 111 565 119 552 c 2
 232 380 l 2
65 394 m 2
 72 387 80 384 89 384 c 0
 106 384 122 395 122 410 c 0
 122 415 120 420 116 426 c 2
 -14 602 l 2
 -29 624 -48 633 -65 633 c 0
 -90 633 -111 614 -111 590 c 0
 -111 578 -106 565 -93 552 c 2
 65 394 l 2
EndSplineSet
EndChar

StartChar: uni0311
Encoding: 785 785 457
Width: 205
VWidth: 0
Flags: HW
AnchorPoint: "top" 91 343 mark 0
LayerCount: 2
Fore
SplineSet
237 465 m 0
 237 523 197 562 131 562 c 0
 62 562 -15 515 -15 442 c 0
 -15 432 -3 428 10 428 c 0
 23 428 37 432 39 439 c 0
 54 477 90 492 122 492 c 0
 123 492 124 492 125 492 c 0
 155 492 181 478 181 458 c 0
 181 453 178 448 178 443 c 0
 178 432 190 426 203 426 c 0
 218 426 234 433 236 449 c 0
 237 455 237 460 237 465 c 0
EndSplineSet
EndChar

StartChar: uni0312
Encoding: 786 786 458
Width: 205
VWidth: 0
Flags: HW
AnchorPoint: "top" 86 343 mark 0
LayerCount: 2
Fore
SplineSet
168 609 m 0
 109 575 50 520 41 456 c 0
 40 451 40 446 40 442 c 0
 40 416 53 400 83 400 c 0
 117 400 132 420 137 442 c 0
 154 506 162 526 200 579 c 0
 203 583 204 587 204 591 c 0
 204 603 192 612 179 612 c 0
 175 612 171 611 168 609 c 0
EndSplineSet
EndChar

StartChar: uni0358
Encoding: 856 856 460
Width: 205
VWidth: 0
Flags: HW
AnchorPoint: "top" 111 343 mark 0
LayerCount: 2
Fore
SplineSet
114 459 m 0
 141 459 167 484 167 513 c 0
 167 536 145 557 119 557 c 0
 93 557 67 532 67 505 c 0
 67 480 91 459 114 459 c 0
EndSplineSet
EndChar

StartChar: v
Encoding: 118 118 465
Width: 348
VWidth: 0
Flags: HW
LayerCount: 2
Fore
SplineSet
510 249 m 0
 513 254 514 259 514 265 c 0
 514 286 498 307 480 307 c 0
 473 307 465 303 459 295 c 0
 429.845226123 255.103993642 378.910652335 225.80356562 326.971041443 214.324720389 c 1
 335.746177531 237.954671287 343.479925477 262.919701909 350 289 c 0
 351 294 352 299 352 303 c 0
 352 324 338 336 319 336 c 0
 284 336 235 295 235 197 c 0
 235 192 235 186 235 181 c 0
 199.538988463 103.872299907 163.292049839 80.973568818 156.915930472 76.7698507815 c 1
 157.000000106 77.1238540451 157 77.5619269423 157 78 c 0
 157 86 141 121 141 187 c 0
 141 216 144 251 153 292 c 0
 153 294 154 296 154 298 c 0
 154 319 129 334 106 334 c 0
 89 334 72 326 65 305 c 0
 49 252 42 205 42 163 c 0
 42 56 87 -10 135 -10 c 0
 143 -10 152 -8 160 -4 c 0
 209.841631513 19.9978225803 256.654226925 70.8783405518 293.681319168 140.021233099 c 1
 372.468030313 141.261239378 480.337933459 196.597016746 510 249 c 0
EndSplineSet
EndChar

StartChar: w
Encoding: 119 119 466
Width: 583
VWidth: 0
Flags: HW
PickledData: "(dp1
S'com.typemytype.robofont.layerData'
p2
(dp3
s."
AnchorPoint: "top" 367 343 basechar 0
LayerCount: 2
Fore
SplineSet
372 65 m 0
 340 65 325 87 325 124 c 0
 325 130.994158745 325.561561619 138.487483374 326.700271085 146.417630082 c 0
 334.757969884 165.016800554 343.006960956 184.395175701 352 204 c 1
 347.752527712 216.476949846 l 2
 349.408209982 220.277899602 351.157063219 224.120133092 353 228 c 0
 367 258 376 281 376 295 c 0
 376 309 368 316 351 316 c 0
 348 316 344 315 341 315 c 0
 325.890857563 313.409563954 312.362644386 289.84421119 301.232529706 258.510114589 c 2
 272 197 l 1
 227 86 204 67 189 67 c 0
 184 67 180 69 177 70 c 0
 153 73 144 102 144 131 c 0
 144 141 145 152 147 161 c 0
 158 212 224 285 228 291 c 0
 230 293 230 296 230 299 c 0
 230 315 209 337 184 337 c 0
 170 337 154 329 141 309 c 0
 127 287 54 200 54 120 c 0
 54 40 106 -7 176 -7 c 0
 223.533864531 -7 254.469247686 16.5145152818 279.321588114 53.0281071971 c 1
 290.924784904 21.3759836446 315.454299946 -10 364 -10 c 0
 367 -10 370 -10 374 -10 c 0
 432 -7 513 51 558 144 c 0
 559.011141144 145.97831963 559.997156989 147.950841114 560.958302433 149.917394496 c 0
 575.333942578 147.375225285 590.687241548 146.000000021 607 146 c 0
 638 146 673 151 710 162 c 0
 723 167 729 177 729 188 c 0
 729 203 718 219 700 219 c 0
 694 219 688 218 681 214 c 0
 656 210 633 208 613 208 c 0
 602.308630199 208 592.412837553 208.537854978 583.263990325 209.538838119 c 1
 588.543110779 230.091962462 591 249.660203536 591 268 c 0
 591 337 556 385 503 386 c 0
 439 385 409 347 409 301 c 0
 409 258.651186017 434.991623851 209.898638622 484.894125914 178.555335695 c 0
 483.947725061 177.043966877 482.983055376 175.525430756 482 174 c 0
 457 110 411 65 372 65 c 0
512.926625033 233.601000592 m 1
 490.314742797 250.096396372 482 271.626883885 482 289 c 0
 482 306 489 318 500 318 c 0
 515 318 524 305 524 284 c 0
 524 270.416086735 520.451486546 253.283660017 512.926625033 233.601000592 c 1
EndSplineSet
EndChar

StartChar: x
Encoding: 120 120 471
Width: 326
VWidth: 0
Flags: HW
LayerCount: 2
Fore
SplineSet
243 -6 m 0
 255 -9 267 -11 277 -11 c 0
 354 -11 387 74 406 106 c 0
 411 114 413 123 413 131 c 0
 413 149 402 164 387 164 c 0
 378 164 368 159 359 147 c 0
 341 123 312 66 274 66 c 0
 249.25077245 66 232.411207403 83.71764401 201.947920773 134.101727596 c 1
 281 243 l 2
 288 252 297 255 306 255 c 0
 324 255 343 245 358 245 c 0
 373 245 381 261 381 281 c 0
 381 315 353 334 321 334 c 0
 297 334 271 323 252 300 c 2
 169.025151576 190.861911082 l 1
 149.857706478 224.573594811 126.250080815 266.443340525 96 318 c 0
 93 324 86 327 78 327 c 0
 59 327 35 312 35 289 c 0
 35 284 36 278 39 272 c 0
 73.0534857618 213.480903108 98.1437826098 166.001831586 119.366453352 127.755848268 c 1
 93.0519712153 97.4144185509 72.2647358009 79.5000221137 54 66 c 0
 41 58 36 46 36 34 c 0
 36 10 58 -15 81 -15 c 0
 92 -15 104 -9 114 5 c 0
 128.408522485 27.5524699763 140.462350979 47.3577969633 154.58683261 68.3496228522 c 1
 180.78716795 28.8089527147 205.364841442 5.76098704929 243 -6 c 0
EndSplineSet
EndChar

StartChar: y
Encoding: 121 121 472
Width: 346
VWidth: 0
Flags: HW
PickledData: "(dp1
S'com.typemytype.robofont.layerData'
p2
(dp3
s."
AnchorPoint: "top" 237 343 basechar 0
LayerCount: 2
Fore
SplineSet
66 -244 m 0
 61 -244 61 -237 61 -236 c 0
 61 -207 151 -106 178 -92 c 1
 166 -154 122 -245 73 -245 c 0
 71 -245 68 -244 66 -244 c 0
61 -314 m 0
 215 -314 256 -167 279 -47 c 1
 344 -11 445 44 498 82 c 0
 518 95 525 110 525 124 c 0
 525 144 509 159 492 159 c 0
 487 159 481 158 476 154 c 0
 445 132 328 59 293 36 c 1
 303 97 305 108 312 138 c 0
 312 154 336 230 336 277 c 0
 336 294 314 302 298 302 c 0
 273 302 261 283 253 254 c 2
 226 162 l 2
 210 111 191 76 159 69 c 0
 157 69 154 69 152 69 c 0
 126 69 119 90 119 110 c 0
 119 153 130 190 137 218 c 0
 145 237 161 253 161 275 c 0
 161 297 140 306 124 306 c 0
 106 306 78 290 68 271 c 0
 40 218 23 174 23 94 c 0
 23 37 67 0 118 0 c 0
 138 0 196 22 228 77 c 1
 195 -11 l 1
 143 -49 82 -80 40 -128 c 0
 12 -161 -28 -194 -28 -247 c 0
 -28 -300 6 -314 61 -314 c 0
EndSplineSet
EndChar

StartChar: yen
Encoding: 165 165 476
Width: 508
VWidth: 0
Flags: HW
LayerCount: 2
Fore
SplineSet
304 24 m 2
 339 133 l 1
 438 133 l 2
 468 133 486 139 486 166 c 0
 486 179 473 185 455 185 c 2
 354 185 l 1
 368 227 l 1
 459 227 l 2
 492 227 503 236 503 256 c 0
 503 276 483 277 465 277 c 2
 415 277 l 1
 572 502 l 2
 580 514 584 525 584 535 c 0
 584 561 560 581 534 581 c 0
 517 581 499 572 486 552 c 2
 337 320 l 1
 272 553 l 2
 265 577 246 588 225 588 c 0
 198 588 169 569 169 539 c 0
 169 534 169 529 171 524 c 2
 245 281 l 1
 170 281 l 2
 147 281 124 280 124 251 c 0
 124 236 140 227 166 227 c 2
 255 227 l 1
 242 185 l 1
 152 185 l 2
 126 185 111 179 111 158 c 0
 111 140 128 133 145 133 c 2
 226 133 l 1
 202 51 l 2
 200 45 199 39 199 34 c 0
 199 5 226 -10 252 -10 c 0
 274 -10 296 1 304 24 c 2
EndSplineSet
EndChar

StartChar: z
Encoding: 122 122 480
Width: 224
VWidth: 0
Flags: HW
PickledData: "(dp1
S'com.typemytype.robofont.layerData'
p2
(dp3
s."
AnchorPoint: "top" 207 343 basechar 0
LayerCount: 2
Fore
SplineSet
296 64 m 0
 305 71 309 83 309 95 c 0
 309 111 302 126 293 126 c 0
 291 126 289 125 287 124 c 0
 209 78 158 64 126 64 c 0
 92 64 80 80 79 91 c 1
 94 100 226 213 240 224 c 0
 258 242 257 273 257 287 c 0
 257 299 243 319 216 319 c 0
 199 319 117 318 58 318 c 0
 35 318 27 303 27 287 c 0
 27 267 44 252 47 245 c 1
 71 245 147 249 188 255 c 1
 39 145 l 2
 22 133 -2 107 -2 72 c 0
 -2 24 44 -5 109 -5 c 0
 164 -5 232 16 296 64 c 0
EndSplineSet
EndChar

StartChar: zero
Encoding: 48 48 484
Width: 417
VWidth: 0
Flags: HW
LayerCount: 2
Fore
SplineSet
42 181 m 0
 42 76 93 -7 199 -7 c 0
 300 -7 393 65 408 273 c 0
 409 283 409 292 409 302 c 0
 409 407 363 495 254 495 c 0
 125 495 42 366 42 181 c 0
249 403 m 0
 294 403 306 360 306 304 c 0
 306 290 305 276 304 261 c 0
 294 125 253 80 208 80 c 0
 165 80 149 122 149 185 c 0
 149 193 149 201 150 210 c 0
 160 343 203 403 249 403 c 0
EndSplineSet
EndChar
